G04 #@! TF.FileFunction,Soldermask,Top*
%FSLAX46Y46*%
G04 Gerber Fmt 4.6, Leading zero omitted, Abs format (unit mm)*
G04 Created by KiCad (PCBNEW 4.0.5-e0-6337~49~ubuntu16.04.1) date Mon Feb 20 15:27:01 2017*
%MOMM*%
%LPD*%
G01*
G04 APERTURE LIST*
%ADD10C,0.100000*%
%ADD11R,2.100000X1.300000*%
%ADD12C,2.686000*%
%ADD13C,1.901140*%
%ADD14C,3.651200*%
%ADD15O,1.924000X2.432000*%
%ADD16C,2.940000*%
%ADD17R,1.400000X2.000000*%
%ADD18R,1.924000X2.432000*%
%ADD19R,1.040000X2.310000*%
%ADD20R,1.300000X2.100000*%
%ADD21R,2.432000X1.924000*%
%ADD22R,2.100000X2.100000*%
%ADD23O,2.100000X2.100000*%
%ADD24R,3.800000X3.800000*%
%ADD25R,4.600000X3.800000*%
%ADD26R,4.400000X3.800000*%
%ADD27R,3.800000X4.600000*%
%ADD28R,3.800000X4.400000*%
%ADD29C,6.400000*%
G04 APERTURE END LIST*
D10*
D11*
X83000000Y-48900000D03*
X83000000Y-46000000D03*
D12*
X256908800Y-76583000D03*
D13*
X253556000Y-64899000D03*
X253556000Y-66931000D03*
X253556000Y-68963000D03*
X253556000Y-70995000D03*
X256096000Y-67947000D03*
X256096000Y-69979000D03*
X256096000Y-65915000D03*
X256096000Y-72011000D03*
D14*
X252667000Y-62232000D03*
X252667000Y-74932000D03*
D12*
X256908800Y-60327000D03*
X256908800Y-113583000D03*
D13*
X253556000Y-101899000D03*
X253556000Y-103931000D03*
X253556000Y-105963000D03*
X253556000Y-107995000D03*
X256096000Y-104947000D03*
X256096000Y-106979000D03*
X256096000Y-102915000D03*
X256096000Y-109011000D03*
D14*
X252667000Y-99232000D03*
X252667000Y-111932000D03*
D12*
X256908800Y-97327000D03*
X76417000Y-36908800D03*
D13*
X88101000Y-33556000D03*
X86069000Y-33556000D03*
X84037000Y-33556000D03*
X82005000Y-33556000D03*
X85053000Y-36096000D03*
X83021000Y-36096000D03*
X87085000Y-36096000D03*
X80989000Y-36096000D03*
D14*
X90768000Y-32667000D03*
X78068000Y-32667000D03*
D12*
X92673000Y-36908800D03*
X92583000Y-137091200D03*
D13*
X80899000Y-140444000D03*
X82931000Y-140444000D03*
X84963000Y-140444000D03*
X86995000Y-140444000D03*
X83947000Y-137904000D03*
X85979000Y-137904000D03*
X81915000Y-137904000D03*
X88011000Y-137904000D03*
D14*
X78232000Y-141333000D03*
X90932000Y-141333000D03*
D12*
X76327000Y-137091200D03*
X41583000Y-137091200D03*
D13*
X29899000Y-140444000D03*
X31931000Y-140444000D03*
X33963000Y-140444000D03*
X35995000Y-140444000D03*
X32947000Y-137904000D03*
X34979000Y-137904000D03*
X30915000Y-137904000D03*
X37011000Y-137904000D03*
D14*
X27232000Y-141333000D03*
X39932000Y-141333000D03*
D12*
X25327000Y-137091200D03*
X58583000Y-137091200D03*
D13*
X46899000Y-140444000D03*
X48931000Y-140444000D03*
X50963000Y-140444000D03*
X52995000Y-140444000D03*
X49947000Y-137904000D03*
X51979000Y-137904000D03*
X47915000Y-137904000D03*
X54011000Y-137904000D03*
D14*
X44232000Y-141333000D03*
X56932000Y-141333000D03*
D12*
X42327000Y-137091200D03*
D15*
X50940000Y-64200000D03*
X53480000Y-64200000D03*
X56020000Y-64200000D03*
X58560000Y-64200000D03*
X61100000Y-64200000D03*
X63640000Y-64200000D03*
X66180000Y-64200000D03*
X68720000Y-64200000D03*
X73800000Y-64200000D03*
X76340000Y-64200000D03*
X78880000Y-64200000D03*
X81420000Y-64200000D03*
X83960000Y-64200000D03*
X86500000Y-64200000D03*
X86500000Y-112460000D03*
X83960000Y-112460000D03*
X81420000Y-112460000D03*
X78880000Y-112460000D03*
X76340000Y-112460000D03*
X73800000Y-112460000D03*
X71260000Y-112460000D03*
X68720000Y-112460000D03*
X64656000Y-112460000D03*
X62116000Y-112460000D03*
X59576000Y-112460000D03*
X57036000Y-112460000D03*
X54496000Y-112460000D03*
X51956000Y-112460000D03*
X49416000Y-112460000D03*
X46876000Y-112460000D03*
D16*
X229370000Y-118000000D03*
X224290000Y-118000000D03*
X219210000Y-118000000D03*
X214130000Y-118000000D03*
X209050000Y-118000000D03*
X203970000Y-118000000D03*
X176030000Y-118000000D03*
X170950000Y-118000000D03*
X165870000Y-118000000D03*
X160790000Y-118000000D03*
X155710000Y-118000000D03*
X150630000Y-118000000D03*
D17*
X52000000Y-118000000D03*
X55000000Y-118000000D03*
X79500000Y-118000000D03*
X82500000Y-118000000D03*
X107500000Y-118000000D03*
X110500000Y-118000000D03*
X74500000Y-58000000D03*
X71500000Y-58000000D03*
X90500000Y-58000000D03*
X87500000Y-58000000D03*
X44500000Y-48000000D03*
X47500000Y-48000000D03*
D18*
X242698000Y-110000000D03*
X246000000Y-110000000D03*
D16*
X226940000Y-54000000D03*
X221860000Y-54000000D03*
X216780000Y-54000000D03*
X211700000Y-54000000D03*
X206620000Y-54000000D03*
X201540000Y-54000000D03*
X196460000Y-54000000D03*
X191380000Y-54000000D03*
X186300000Y-54000000D03*
X181220000Y-54000000D03*
X176140000Y-54000000D03*
X171060000Y-54000000D03*
X226940000Y-92000000D03*
X221860000Y-92000000D03*
X216780000Y-92000000D03*
X211700000Y-92000000D03*
X206620000Y-92000000D03*
X201540000Y-92000000D03*
X196460000Y-92000000D03*
X191380000Y-92000000D03*
X186300000Y-92000000D03*
X181220000Y-92000000D03*
X176140000Y-92000000D03*
X171060000Y-92000000D03*
X226940000Y-130000000D03*
X221860000Y-130000000D03*
X216780000Y-130000000D03*
X211700000Y-130000000D03*
X206620000Y-130000000D03*
X201540000Y-130000000D03*
X196460000Y-130000000D03*
X191380000Y-130000000D03*
X186300000Y-130000000D03*
X181220000Y-130000000D03*
X176140000Y-130000000D03*
X171060000Y-130000000D03*
D19*
X90905000Y-48210000D03*
X89635000Y-48210000D03*
X88365000Y-48210000D03*
X87095000Y-48210000D03*
X87095000Y-53790000D03*
X88365000Y-53790000D03*
X89635000Y-53790000D03*
X90905000Y-53790000D03*
X74905000Y-48210000D03*
X73635000Y-48210000D03*
X72365000Y-48210000D03*
X71095000Y-48210000D03*
X71095000Y-53790000D03*
X72365000Y-53790000D03*
X73635000Y-53790000D03*
X74905000Y-53790000D03*
X51095000Y-53790000D03*
X52365000Y-53790000D03*
X53635000Y-53790000D03*
X54905000Y-53790000D03*
X54905000Y-48210000D03*
X53635000Y-48210000D03*
X52365000Y-48210000D03*
X51095000Y-48210000D03*
X44190000Y-123790000D03*
X45460000Y-123790000D03*
X46730000Y-123790000D03*
X48000000Y-123790000D03*
X48000000Y-118210000D03*
X46730000Y-118210000D03*
X45460000Y-118210000D03*
X44190000Y-118210000D03*
X72095000Y-123790000D03*
X73365000Y-123790000D03*
X74635000Y-123790000D03*
X75905000Y-123790000D03*
X75905000Y-118210000D03*
X74635000Y-118210000D03*
X73365000Y-118210000D03*
X72095000Y-118210000D03*
X100095000Y-123790000D03*
X101365000Y-123790000D03*
X102635000Y-123790000D03*
X103905000Y-123790000D03*
X103905000Y-118210000D03*
X102635000Y-118210000D03*
X101365000Y-118210000D03*
X100095000Y-118210000D03*
D11*
X36000000Y-124000000D03*
X36000000Y-126900000D03*
X40000000Y-124000000D03*
X40000000Y-126900000D03*
X52000000Y-124000000D03*
X52000000Y-126900000D03*
X56000000Y-124000000D03*
X56000000Y-126900000D03*
X64000000Y-124000000D03*
X64000000Y-126900000D03*
X68000000Y-124000000D03*
X68000000Y-126900000D03*
X80000000Y-124000000D03*
X80000000Y-126900000D03*
X84000000Y-124000000D03*
X84000000Y-126900000D03*
X92000000Y-124000000D03*
X92000000Y-126900000D03*
X96000000Y-124000000D03*
X96000000Y-126900000D03*
X108000000Y-124000000D03*
X108000000Y-126900000D03*
X112000000Y-124000000D03*
X112000000Y-126900000D03*
D20*
X118400000Y-96500000D03*
X115500000Y-96500000D03*
D11*
X59000000Y-48900000D03*
X59000000Y-46000000D03*
X67000000Y-48900000D03*
X67000000Y-46000000D03*
X63000000Y-48900000D03*
X63000000Y-46000000D03*
X79000000Y-48900000D03*
X79000000Y-46000000D03*
X95000000Y-48900000D03*
X95000000Y-46000000D03*
X49000000Y-57550000D03*
X49000000Y-60450000D03*
X53000000Y-57550000D03*
X53000000Y-60450000D03*
X57000000Y-57550000D03*
X57000000Y-60450000D03*
X61000000Y-57550000D03*
X61000000Y-60450000D03*
D20*
X118400000Y-93000000D03*
X115500000Y-93000000D03*
D21*
X190190000Y-107190000D03*
X190190000Y-109730000D03*
X197810000Y-109730000D03*
X197810000Y-107190000D03*
D16*
X229370000Y-43000000D03*
X224290000Y-43000000D03*
X219210000Y-43000000D03*
X214130000Y-43000000D03*
X209050000Y-43000000D03*
X203970000Y-43000000D03*
X176030000Y-43000000D03*
X170950000Y-43000000D03*
X165870000Y-43000000D03*
X160790000Y-43000000D03*
X155710000Y-43000000D03*
X150630000Y-43000000D03*
X229370000Y-80000000D03*
X224290000Y-80000000D03*
X219210000Y-80000000D03*
X214130000Y-80000000D03*
X209050000Y-80000000D03*
X203970000Y-80000000D03*
X176030000Y-80000000D03*
X170950000Y-80000000D03*
X165870000Y-80000000D03*
X160790000Y-80000000D03*
X155710000Y-80000000D03*
X150630000Y-80000000D03*
D18*
X242698000Y-118000000D03*
X246000000Y-118000000D03*
D22*
X40000000Y-46460000D03*
D23*
X40000000Y-49000000D03*
D22*
X35000000Y-46460000D03*
D23*
X35000000Y-49000000D03*
D22*
X243460000Y-105000000D03*
D23*
X246000000Y-105000000D03*
D22*
X206540000Y-105000000D03*
D23*
X204000000Y-105000000D03*
D24*
X112500000Y-37500000D03*
D25*
X109000000Y-32300000D03*
D26*
X109000000Y-38500000D03*
D24*
X254450000Y-142500000D03*
D27*
X259650000Y-139000000D03*
D28*
X253450000Y-139000000D03*
D24*
X254450000Y-38500000D03*
D27*
X259650000Y-35000000D03*
D28*
X253450000Y-35000000D03*
D21*
X190190000Y-100390000D03*
X190190000Y-102930000D03*
X197810000Y-102930000D03*
X197810000Y-100390000D03*
D12*
X256908800Y-130583000D03*
D13*
X253556000Y-118899000D03*
X253556000Y-120931000D03*
X253556000Y-122963000D03*
X253556000Y-124995000D03*
X256096000Y-121947000D03*
X256096000Y-123979000D03*
X256096000Y-119915000D03*
X256096000Y-126011000D03*
D14*
X252667000Y-116232000D03*
X252667000Y-128932000D03*
D12*
X256908800Y-114327000D03*
X59417000Y-36908800D03*
D13*
X71101000Y-33556000D03*
X69069000Y-33556000D03*
X67037000Y-33556000D03*
X65005000Y-33556000D03*
X68053000Y-36096000D03*
X66021000Y-36096000D03*
X70085000Y-36096000D03*
X63989000Y-36096000D03*
D14*
X73768000Y-32667000D03*
X61068000Y-32667000D03*
D12*
X75673000Y-36908800D03*
X42417000Y-36908800D03*
D13*
X54101000Y-33556000D03*
X52069000Y-33556000D03*
X50037000Y-33556000D03*
X48005000Y-33556000D03*
X51053000Y-36096000D03*
X49021000Y-36096000D03*
X53085000Y-36096000D03*
X46989000Y-36096000D03*
D14*
X56768000Y-32667000D03*
X44068000Y-32667000D03*
D12*
X58673000Y-36908800D03*
X25417000Y-36908800D03*
D13*
X37101000Y-33556000D03*
X35069000Y-33556000D03*
X33037000Y-33556000D03*
X31005000Y-33556000D03*
X34053000Y-36096000D03*
X32021000Y-36096000D03*
X36085000Y-36096000D03*
X29989000Y-36096000D03*
D14*
X39768000Y-32667000D03*
X27068000Y-32667000D03*
D12*
X41673000Y-36908800D03*
X256908800Y-59583000D03*
D13*
X253556000Y-47899000D03*
X253556000Y-49931000D03*
X253556000Y-51963000D03*
X253556000Y-53995000D03*
X256096000Y-50947000D03*
X256096000Y-52979000D03*
X256096000Y-48915000D03*
X256096000Y-55011000D03*
D14*
X252667000Y-45232000D03*
X252667000Y-57932000D03*
D12*
X256908800Y-43327000D03*
X256908800Y-93583000D03*
D13*
X253556000Y-81899000D03*
X253556000Y-83931000D03*
X253556000Y-85963000D03*
X253556000Y-87995000D03*
X256096000Y-84947000D03*
X256096000Y-86979000D03*
X256096000Y-82915000D03*
X256096000Y-89011000D03*
D14*
X252667000Y-79232000D03*
X252667000Y-91932000D03*
D12*
X256908800Y-77327000D03*
X75583000Y-137091200D03*
D13*
X63899000Y-140444000D03*
X65931000Y-140444000D03*
X67963000Y-140444000D03*
X69995000Y-140444000D03*
X66947000Y-137904000D03*
X68979000Y-137904000D03*
X64915000Y-137904000D03*
X71011000Y-137904000D03*
D14*
X61232000Y-141333000D03*
X73932000Y-141333000D03*
D12*
X59327000Y-137091200D03*
X109583000Y-137091200D03*
D13*
X97899000Y-140444000D03*
X99931000Y-140444000D03*
X101963000Y-140444000D03*
X103995000Y-140444000D03*
X100947000Y-137904000D03*
X102979000Y-137904000D03*
X98915000Y-137904000D03*
X105011000Y-137904000D03*
D14*
X95232000Y-141333000D03*
X107932000Y-141333000D03*
D12*
X93327000Y-137091200D03*
X126583000Y-137091200D03*
D13*
X114899000Y-140444000D03*
X116931000Y-140444000D03*
X118963000Y-140444000D03*
X120995000Y-140444000D03*
X117947000Y-137904000D03*
X119979000Y-137904000D03*
X115915000Y-137904000D03*
X122011000Y-137904000D03*
D14*
X112232000Y-141333000D03*
X124932000Y-141333000D03*
D12*
X110327000Y-137091200D03*
D29*
X29000000Y-125000000D03*
X124000000Y-125000000D03*
X244000000Y-125000000D03*
X244000000Y-49000000D03*
X124000000Y-49000000D03*
X29000000Y-49000000D03*
M02*
