M48
;DRILL file {KiCad 4.0.5-e0-6337~49~ubuntu16.04.1} date Mon Feb 20 15:27:08 2017
;FORMAT={-:-/ absolute / metric / decimal}
FMAT,2
METRIC,TZ
T1C0.400
T2C0.800
T3C0.889
T4C1.000
T5C1.016
T6C1.524
T7C1.575
T8C3.200
T9C3.251
%
G90
G05
M71
T1
X50.Y-118.
X55.Y-60.5
X57.Y-118.
X64.5Y-96.
X68.5Y-58.
X69.Y-106.
X69.345Y-95.595
X71.845Y-93.095
X72.Y-63.
X72.Y-56.
X72.Y-103.5
X73.5Y-61.75
X74.Y-56.
X77.Y-116.5
X79.Y-61.
X80.Y-100.
X80.5Y-96.75
X81.Y-87.
X83.5Y-87.
X83.5Y-94.
X84.Y-58.
X84.5Y-118.
X86.Y-94.
X86.Y-87.
X88.Y-87.
X88.Y-94.
X89.5Y-60.
X90.Y-87.
X90.Y-94.
X105.5Y-116.
X112.5Y-118.
X187.5Y-103.
X187.5Y-109.5
T2
X237.25Y-50.25
X237.608Y-91.766
X238.5Y-73.
X238.5Y-75.
X239.Y-39.5
X239.Y-43.
X239.Y-46.
X239.Y-97.
X239.25Y-83.5
X241.5Y-69.
X242.85Y-89.
X246.Y-86.
X246.Y-113.
X246.25Y-115.25
T3
X29.899Y-140.444
X29.989Y-36.096
X30.915Y-137.904
X31.005Y-33.556
X31.931Y-140.444
X32.021Y-36.096
X32.947Y-137.904
X33.037Y-33.556
X33.963Y-140.444
X34.053Y-36.096
X34.979Y-137.904
X35.069Y-33.556
X35.995Y-140.444
X36.085Y-36.096
X37.011Y-137.904
X37.101Y-33.556
X46.899Y-140.444
X46.989Y-36.096
X47.915Y-137.904
X48.005Y-33.556
X48.931Y-140.444
X49.021Y-36.096
X49.947Y-137.904
X50.037Y-33.556
X50.963Y-140.444
X51.053Y-36.096
X51.979Y-137.904
X52.069Y-33.556
X52.995Y-140.444
X53.085Y-36.096
X54.011Y-137.904
X54.101Y-33.556
X63.899Y-140.444
X63.989Y-36.096
X64.915Y-137.904
X65.005Y-33.556
X65.931Y-140.444
X66.021Y-36.096
X66.947Y-137.904
X67.037Y-33.556
X67.963Y-140.444
X68.053Y-36.096
X68.979Y-137.904
X69.069Y-33.556
X69.995Y-140.444
X70.085Y-36.096
X71.011Y-137.904
X71.101Y-33.556
X80.899Y-140.444
X80.989Y-36.096
X81.915Y-137.904
X82.005Y-33.556
X82.931Y-140.444
X83.021Y-36.096
X83.947Y-137.904
X84.037Y-33.556
X84.963Y-140.444
X85.053Y-36.096
X85.979Y-137.904
X86.069Y-33.556
X86.995Y-140.444
X87.085Y-36.096
X88.011Y-137.904
X88.101Y-33.556
X97.899Y-140.444
X98.915Y-137.904
X99.931Y-140.444
X100.947Y-137.904
X101.963Y-140.444
X102.979Y-137.904
X103.995Y-140.444
X105.011Y-137.904
X114.899Y-140.444
X115.915Y-137.904
X116.931Y-140.444
X117.947Y-137.904
X118.963Y-140.444
X119.979Y-137.904
X120.995Y-140.444
X122.011Y-137.904
X253.556Y-47.899
X253.556Y-49.931
X253.556Y-51.963
X253.556Y-53.995
X253.556Y-64.899
X253.556Y-66.931
X253.556Y-68.963
X253.556Y-70.995
X253.556Y-81.899
X253.556Y-83.931
X253.556Y-85.963
X253.556Y-87.995
X253.556Y-101.899
X253.556Y-103.931
X253.556Y-105.963
X253.556Y-107.995
X253.556Y-118.899
X253.556Y-120.931
X253.556Y-122.963
X253.556Y-124.995
X256.096Y-48.915
X256.096Y-50.947
X256.096Y-52.979
X256.096Y-55.011
X256.096Y-65.915
X256.096Y-67.947
X256.096Y-69.979
X256.096Y-72.011
X256.096Y-82.915
X256.096Y-84.947
X256.096Y-86.979
X256.096Y-89.011
X256.096Y-102.915
X256.096Y-104.947
X256.096Y-106.979
X256.096Y-109.011
X256.096Y-119.915
X256.096Y-121.947
X256.096Y-123.979
X256.096Y-126.011
T4
X35.Y-46.46
X35.Y-49.
X40.Y-46.46
X40.Y-49.
X204.Y-105.
X206.54Y-105.
X243.46Y-105.
X246.Y-105.
T5
X46.876Y-112.46
X49.416Y-112.46
X50.94Y-64.2
X51.956Y-112.46
X53.48Y-64.2
X54.496Y-112.46
X56.02Y-64.2
X57.036Y-112.46
X58.56Y-64.2
X59.576Y-112.46
X61.1Y-64.2
X62.116Y-112.46
X63.64Y-64.2
X64.656Y-112.46
X66.18Y-64.2
X68.72Y-64.2
X68.72Y-112.46
X71.26Y-112.46
X73.8Y-64.2
X73.8Y-112.46
X76.34Y-64.2
X76.34Y-112.46
X78.88Y-64.2
X78.88Y-112.46
X81.42Y-64.2
X81.42Y-112.46
X83.96Y-64.2
X83.96Y-112.46
X86.5Y-64.2
X86.5Y-112.46
T6
X150.63Y-43.
X150.63Y-80.
X150.63Y-118.
X155.71Y-43.
X155.71Y-80.
X155.71Y-118.
X160.79Y-43.
X160.79Y-80.
X160.79Y-118.
X165.87Y-43.
X165.87Y-80.
X165.87Y-118.
X170.95Y-43.
X170.95Y-80.
X170.95Y-118.
X171.06Y-54.
X171.06Y-92.
X171.06Y-130.
X176.03Y-43.
X176.03Y-80.
X176.03Y-118.
X176.14Y-54.
X176.14Y-92.
X176.14Y-130.
X181.22Y-54.
X181.22Y-92.
X181.22Y-130.
X186.3Y-54.
X186.3Y-92.
X186.3Y-130.
X191.38Y-54.
X191.38Y-92.
X191.38Y-130.
X196.46Y-54.
X196.46Y-92.
X196.46Y-130.
X201.54Y-54.
X201.54Y-92.
X201.54Y-130.
X203.97Y-43.
X203.97Y-80.
X203.97Y-118.
X206.62Y-54.
X206.62Y-92.
X206.62Y-130.
X209.05Y-43.
X209.05Y-80.
X209.05Y-118.
X211.7Y-54.
X211.7Y-92.
X211.7Y-130.
X214.13Y-43.
X214.13Y-80.
X214.13Y-118.
X216.78Y-54.
X216.78Y-92.
X216.78Y-130.
X219.21Y-43.
X219.21Y-80.
X219.21Y-118.
X221.86Y-54.
X221.86Y-92.
X221.86Y-130.
X224.29Y-43.
X224.29Y-80.
X224.29Y-118.
X226.94Y-54.
X226.94Y-92.
X226.94Y-130.
X229.37Y-43.
X229.37Y-80.
X229.37Y-118.
T7
X25.327Y-137.091
X25.417Y-36.909
X41.583Y-137.091
X41.673Y-36.909
X42.327Y-137.091
X42.417Y-36.909
X58.583Y-137.091
X58.673Y-36.909
X59.327Y-137.091
X59.417Y-36.909
X75.583Y-137.091
X75.673Y-36.909
X76.327Y-137.091
X76.417Y-36.909
X92.583Y-137.091
X92.673Y-36.909
X93.327Y-137.091
X109.583Y-137.091
X110.327Y-137.091
X126.583Y-137.091
X256.909Y-43.327
X256.909Y-59.583
X256.909Y-60.327
X256.909Y-76.583
X256.909Y-77.327
X256.909Y-93.583
X256.909Y-97.327
X256.909Y-113.583
X256.909Y-114.327
X256.909Y-130.583
T8
X29.Y-49.
X29.Y-125.
X124.Y-49.
X124.Y-125.
X244.Y-49.
X244.Y-125.
T9
X27.068Y-32.667
X27.232Y-141.333
X39.768Y-32.667
X39.932Y-141.333
X44.068Y-32.667
X44.232Y-141.333
X56.768Y-32.667
X56.932Y-141.333
X61.068Y-32.667
X61.232Y-141.333
X73.768Y-32.667
X73.932Y-141.333
X78.068Y-32.667
X78.232Y-141.333
X90.768Y-32.667
X90.932Y-141.333
X95.232Y-141.333
X107.932Y-141.333
X112.232Y-141.333
X124.932Y-141.333
X252.667Y-45.232
X252.667Y-57.932
X252.667Y-62.232
X252.667Y-74.932
X252.667Y-79.232
X252.667Y-91.932
X252.667Y-99.232
X252.667Y-111.932
X252.667Y-116.232
X252.667Y-128.932
T4
X107.55Y-32.3G85X110.45Y-32.3
G05
X107.8Y-38.5G85X110.2Y-38.5
G05
X111.55Y-37.5G85X113.45Y-37.5
G05
X253.45Y-33.8G85X253.45Y-36.2
G05
X253.45Y-137.8G85X253.45Y-140.2
G05
X254.45Y-37.55G85X254.45Y-39.45
G05
X254.45Y-141.55G85X254.45Y-143.45
G05
X259.65Y-33.55G85X259.65Y-36.45
G05
X259.65Y-137.55G85X259.65Y-140.45
G05
T0
M30
