G04 #@! TF.FileFunction,Other,Fab,Top*
%FSLAX46Y46*%
G04 Gerber Fmt 4.6, Leading zero omitted, Abs format (unit mm)*
G04 Created by KiCad (PCBNEW 4.0.5-e0-6337~49~ubuntu16.04.1) date Mon Feb 20 15:27:01 2017*
%MOMM*%
%LPD*%
G01*
G04 APERTURE LIST*
%ADD10C,0.100000*%
%ADD11C,0.150000*%
G04 APERTURE END LIST*
D10*
X83800000Y-49050000D02*
X82200000Y-49050000D01*
X83800000Y-45850000D02*
X83800000Y-49050000D01*
X82200000Y-45850000D02*
X83800000Y-45850000D01*
X82200000Y-49050000D02*
X82200000Y-45850000D01*
D11*
X255715000Y-62867000D02*
X260795000Y-62867000D01*
X260795000Y-62867000D02*
X260795000Y-66423000D01*
X260795000Y-66423000D02*
X261811000Y-66423000D01*
X261811000Y-66423000D02*
X261811000Y-70487000D01*
X261811000Y-70487000D02*
X260795000Y-70487000D01*
X260795000Y-70487000D02*
X260795000Y-74043000D01*
X260795000Y-74043000D02*
X255715000Y-74043000D01*
X258128000Y-76456000D02*
X263462000Y-76456000D01*
X263462000Y-76456000D02*
X263462000Y-60454000D01*
X263462000Y-60454000D02*
X258255000Y-60454000D01*
X255588000Y-60454000D02*
X250254000Y-60454000D01*
X250254000Y-60454000D02*
X250254000Y-76456000D01*
X250254000Y-76456000D02*
X255588000Y-76456000D01*
X255715000Y-99867000D02*
X260795000Y-99867000D01*
X260795000Y-99867000D02*
X260795000Y-103423000D01*
X260795000Y-103423000D02*
X261811000Y-103423000D01*
X261811000Y-103423000D02*
X261811000Y-107487000D01*
X261811000Y-107487000D02*
X260795000Y-107487000D01*
X260795000Y-107487000D02*
X260795000Y-111043000D01*
X260795000Y-111043000D02*
X255715000Y-111043000D01*
X258128000Y-113456000D02*
X263462000Y-113456000D01*
X263462000Y-113456000D02*
X263462000Y-97454000D01*
X263462000Y-97454000D02*
X258255000Y-97454000D01*
X255588000Y-97454000D02*
X250254000Y-97454000D01*
X250254000Y-97454000D02*
X250254000Y-113456000D01*
X250254000Y-113456000D02*
X255588000Y-113456000D01*
X90133000Y-35715000D02*
X90133000Y-40795000D01*
X90133000Y-40795000D02*
X86577000Y-40795000D01*
X86577000Y-40795000D02*
X86577000Y-41811000D01*
X86577000Y-41811000D02*
X82513000Y-41811000D01*
X82513000Y-41811000D02*
X82513000Y-40795000D01*
X82513000Y-40795000D02*
X78957000Y-40795000D01*
X78957000Y-40795000D02*
X78957000Y-35715000D01*
X76544000Y-38128000D02*
X76544000Y-43462000D01*
X76544000Y-43462000D02*
X92546000Y-43462000D01*
X92546000Y-43462000D02*
X92546000Y-38255000D01*
X92546000Y-35588000D02*
X92546000Y-30254000D01*
X92546000Y-30254000D02*
X76544000Y-30254000D01*
X76544000Y-30254000D02*
X76544000Y-35588000D01*
X78867000Y-138285000D02*
X78867000Y-133205000D01*
X78867000Y-133205000D02*
X82423000Y-133205000D01*
X82423000Y-133205000D02*
X82423000Y-132189000D01*
X82423000Y-132189000D02*
X86487000Y-132189000D01*
X86487000Y-132189000D02*
X86487000Y-133205000D01*
X86487000Y-133205000D02*
X90043000Y-133205000D01*
X90043000Y-133205000D02*
X90043000Y-138285000D01*
X92456000Y-135872000D02*
X92456000Y-130538000D01*
X92456000Y-130538000D02*
X76454000Y-130538000D01*
X76454000Y-130538000D02*
X76454000Y-135745000D01*
X76454000Y-138412000D02*
X76454000Y-143746000D01*
X76454000Y-143746000D02*
X92456000Y-143746000D01*
X92456000Y-143746000D02*
X92456000Y-138412000D01*
X27867000Y-138285000D02*
X27867000Y-133205000D01*
X27867000Y-133205000D02*
X31423000Y-133205000D01*
X31423000Y-133205000D02*
X31423000Y-132189000D01*
X31423000Y-132189000D02*
X35487000Y-132189000D01*
X35487000Y-132189000D02*
X35487000Y-133205000D01*
X35487000Y-133205000D02*
X39043000Y-133205000D01*
X39043000Y-133205000D02*
X39043000Y-138285000D01*
X41456000Y-135872000D02*
X41456000Y-130538000D01*
X41456000Y-130538000D02*
X25454000Y-130538000D01*
X25454000Y-130538000D02*
X25454000Y-135745000D01*
X25454000Y-138412000D02*
X25454000Y-143746000D01*
X25454000Y-143746000D02*
X41456000Y-143746000D01*
X41456000Y-143746000D02*
X41456000Y-138412000D01*
X44867000Y-138285000D02*
X44867000Y-133205000D01*
X44867000Y-133205000D02*
X48423000Y-133205000D01*
X48423000Y-133205000D02*
X48423000Y-132189000D01*
X48423000Y-132189000D02*
X52487000Y-132189000D01*
X52487000Y-132189000D02*
X52487000Y-133205000D01*
X52487000Y-133205000D02*
X56043000Y-133205000D01*
X56043000Y-133205000D02*
X56043000Y-138285000D01*
X58456000Y-135872000D02*
X58456000Y-130538000D01*
X58456000Y-130538000D02*
X42454000Y-130538000D01*
X42454000Y-130538000D02*
X42454000Y-135745000D01*
X42454000Y-138412000D02*
X42454000Y-143746000D01*
X42454000Y-143746000D02*
X58456000Y-143746000D01*
X58456000Y-143746000D02*
X58456000Y-138412000D01*
X51900000Y-118800000D02*
X51900000Y-117200000D01*
X55100000Y-118800000D02*
X51900000Y-118800000D01*
X55100000Y-117200000D02*
X55100000Y-118800000D01*
X51900000Y-117200000D02*
X55100000Y-117200000D01*
X79400000Y-118800000D02*
X79400000Y-117200000D01*
X82600000Y-118800000D02*
X79400000Y-118800000D01*
X82600000Y-117200000D02*
X82600000Y-118800000D01*
X79400000Y-117200000D02*
X82600000Y-117200000D01*
X107400000Y-118800000D02*
X107400000Y-117200000D01*
X110600000Y-118800000D02*
X107400000Y-118800000D01*
X110600000Y-117200000D02*
X110600000Y-118800000D01*
X107400000Y-117200000D02*
X110600000Y-117200000D01*
X74600000Y-57200000D02*
X74600000Y-58800000D01*
X71400000Y-57200000D02*
X74600000Y-57200000D01*
X71400000Y-58800000D02*
X71400000Y-57200000D01*
X74600000Y-58800000D02*
X71400000Y-58800000D01*
X90600000Y-57200000D02*
X90600000Y-58800000D01*
X87400000Y-57200000D02*
X90600000Y-57200000D01*
X87400000Y-58800000D02*
X87400000Y-57200000D01*
X90600000Y-58800000D02*
X87400000Y-58800000D01*
X44400000Y-48800000D02*
X44400000Y-47200000D01*
X47600000Y-48800000D02*
X44400000Y-48800000D01*
X47600000Y-47200000D02*
X47600000Y-48800000D01*
X44400000Y-47200000D02*
X47600000Y-47200000D01*
D10*
X35200000Y-123850000D02*
X36800000Y-123850000D01*
X35200000Y-127050000D02*
X35200000Y-123850000D01*
X36800000Y-127050000D02*
X35200000Y-127050000D01*
X36800000Y-123850000D02*
X36800000Y-127050000D01*
X39200000Y-123850000D02*
X40800000Y-123850000D01*
X39200000Y-127050000D02*
X39200000Y-123850000D01*
X40800000Y-127050000D02*
X39200000Y-127050000D01*
X40800000Y-123850000D02*
X40800000Y-127050000D01*
X51200000Y-123850000D02*
X52800000Y-123850000D01*
X51200000Y-127050000D02*
X51200000Y-123850000D01*
X52800000Y-127050000D02*
X51200000Y-127050000D01*
X52800000Y-123850000D02*
X52800000Y-127050000D01*
X55200000Y-123850000D02*
X56800000Y-123850000D01*
X55200000Y-127050000D02*
X55200000Y-123850000D01*
X56800000Y-127050000D02*
X55200000Y-127050000D01*
X56800000Y-123850000D02*
X56800000Y-127050000D01*
X63200000Y-123850000D02*
X64800000Y-123850000D01*
X63200000Y-127050000D02*
X63200000Y-123850000D01*
X64800000Y-127050000D02*
X63200000Y-127050000D01*
X64800000Y-123850000D02*
X64800000Y-127050000D01*
X67200000Y-123850000D02*
X68800000Y-123850000D01*
X67200000Y-127050000D02*
X67200000Y-123850000D01*
X68800000Y-127050000D02*
X67200000Y-127050000D01*
X68800000Y-123850000D02*
X68800000Y-127050000D01*
X79200000Y-123850000D02*
X80800000Y-123850000D01*
X79200000Y-127050000D02*
X79200000Y-123850000D01*
X80800000Y-127050000D02*
X79200000Y-127050000D01*
X80800000Y-123850000D02*
X80800000Y-127050000D01*
X83200000Y-123850000D02*
X84800000Y-123850000D01*
X83200000Y-127050000D02*
X83200000Y-123850000D01*
X84800000Y-127050000D02*
X83200000Y-127050000D01*
X84800000Y-123850000D02*
X84800000Y-127050000D01*
X91200000Y-123850000D02*
X92800000Y-123850000D01*
X91200000Y-127050000D02*
X91200000Y-123850000D01*
X92800000Y-127050000D02*
X91200000Y-127050000D01*
X92800000Y-123850000D02*
X92800000Y-127050000D01*
X95200000Y-123850000D02*
X96800000Y-123850000D01*
X95200000Y-127050000D02*
X95200000Y-123850000D01*
X96800000Y-127050000D02*
X95200000Y-127050000D01*
X96800000Y-123850000D02*
X96800000Y-127050000D01*
X107200000Y-123850000D02*
X108800000Y-123850000D01*
X107200000Y-127050000D02*
X107200000Y-123850000D01*
X108800000Y-127050000D02*
X107200000Y-127050000D01*
X108800000Y-123850000D02*
X108800000Y-127050000D01*
X111200000Y-123850000D02*
X112800000Y-123850000D01*
X111200000Y-127050000D02*
X111200000Y-123850000D01*
X112800000Y-127050000D02*
X111200000Y-127050000D01*
X112800000Y-123850000D02*
X112800000Y-127050000D01*
X118550000Y-95700000D02*
X118550000Y-97300000D01*
X115350000Y-95700000D02*
X118550000Y-95700000D01*
X115350000Y-97300000D02*
X115350000Y-95700000D01*
X118550000Y-97300000D02*
X115350000Y-97300000D01*
X59800000Y-49050000D02*
X58200000Y-49050000D01*
X59800000Y-45850000D02*
X59800000Y-49050000D01*
X58200000Y-45850000D02*
X59800000Y-45850000D01*
X58200000Y-49050000D02*
X58200000Y-45850000D01*
X67800000Y-49050000D02*
X66200000Y-49050000D01*
X67800000Y-45850000D02*
X67800000Y-49050000D01*
X66200000Y-45850000D02*
X67800000Y-45850000D01*
X66200000Y-49050000D02*
X66200000Y-45850000D01*
X63800000Y-49050000D02*
X62200000Y-49050000D01*
X63800000Y-45850000D02*
X63800000Y-49050000D01*
X62200000Y-45850000D02*
X63800000Y-45850000D01*
X62200000Y-49050000D02*
X62200000Y-45850000D01*
X79800000Y-49050000D02*
X78200000Y-49050000D01*
X79800000Y-45850000D02*
X79800000Y-49050000D01*
X78200000Y-45850000D02*
X79800000Y-45850000D01*
X78200000Y-49050000D02*
X78200000Y-45850000D01*
X95800000Y-49050000D02*
X94200000Y-49050000D01*
X95800000Y-45850000D02*
X95800000Y-49050000D01*
X94200000Y-45850000D02*
X95800000Y-45850000D01*
X94200000Y-49050000D02*
X94200000Y-45850000D01*
X48200000Y-57400000D02*
X49800000Y-57400000D01*
X48200000Y-60600000D02*
X48200000Y-57400000D01*
X49800000Y-60600000D02*
X48200000Y-60600000D01*
X49800000Y-57400000D02*
X49800000Y-60600000D01*
X52200000Y-57400000D02*
X53800000Y-57400000D01*
X52200000Y-60600000D02*
X52200000Y-57400000D01*
X53800000Y-60600000D02*
X52200000Y-60600000D01*
X53800000Y-57400000D02*
X53800000Y-60600000D01*
X56200000Y-57400000D02*
X57800000Y-57400000D01*
X56200000Y-60600000D02*
X56200000Y-57400000D01*
X57800000Y-60600000D02*
X56200000Y-60600000D01*
X57800000Y-57400000D02*
X57800000Y-60600000D01*
X60200000Y-57400000D02*
X61800000Y-57400000D01*
X60200000Y-60600000D02*
X60200000Y-57400000D01*
X61800000Y-60600000D02*
X60200000Y-60600000D01*
X61800000Y-57400000D02*
X61800000Y-60600000D01*
X118550000Y-92200000D02*
X118550000Y-93800000D01*
X115350000Y-92200000D02*
X118550000Y-92200000D01*
X115350000Y-93800000D02*
X115350000Y-92200000D01*
X118550000Y-93800000D02*
X115350000Y-93800000D01*
X38730000Y-45190000D02*
X38730000Y-50270000D01*
X38730000Y-50270000D02*
X41270000Y-50270000D01*
X41270000Y-50270000D02*
X41270000Y-45190000D01*
X41270000Y-45190000D02*
X38730000Y-45190000D01*
X33730000Y-45190000D02*
X33730000Y-50270000D01*
X33730000Y-50270000D02*
X36270000Y-50270000D01*
X36270000Y-50270000D02*
X36270000Y-45190000D01*
X36270000Y-45190000D02*
X33730000Y-45190000D01*
X242190000Y-106270000D02*
X247270000Y-106270000D01*
X247270000Y-106270000D02*
X247270000Y-103730000D01*
X247270000Y-103730000D02*
X242190000Y-103730000D01*
X242190000Y-103730000D02*
X242190000Y-106270000D01*
X207810000Y-103730000D02*
X202730000Y-103730000D01*
X202730000Y-103730000D02*
X202730000Y-106270000D01*
X202730000Y-106270000D02*
X207810000Y-106270000D01*
X207810000Y-106270000D02*
X207810000Y-103730000D01*
D11*
X104500000Y-30500000D02*
X104500000Y-41500000D01*
X104500000Y-41500000D02*
X113500000Y-41500000D01*
X113500000Y-41500000D02*
X113500000Y-30500000D01*
X113500000Y-30500000D02*
X104500000Y-30500000D01*
X112500000Y-35000000D02*
G75*
G03X112500000Y-35000000I-3500000J0D01*
G01*
X110000000Y-35000000D02*
G75*
G03X110000000Y-35000000I-1000000J0D01*
G01*
X261450000Y-134500000D02*
X250450000Y-134500000D01*
X250450000Y-134500000D02*
X250450000Y-143500000D01*
X250450000Y-143500000D02*
X261450000Y-143500000D01*
X261450000Y-143500000D02*
X261450000Y-134500000D01*
X260450000Y-139000000D02*
G75*
G03X260450000Y-139000000I-3500000J0D01*
G01*
X257950000Y-139000000D02*
G75*
G03X257950000Y-139000000I-1000000J0D01*
G01*
X261450000Y-30500000D02*
X250450000Y-30500000D01*
X250450000Y-30500000D02*
X250450000Y-39500000D01*
X250450000Y-39500000D02*
X261450000Y-39500000D01*
X261450000Y-39500000D02*
X261450000Y-30500000D01*
X260450000Y-35000000D02*
G75*
G03X260450000Y-35000000I-3500000J0D01*
G01*
X257950000Y-35000000D02*
G75*
G03X257950000Y-35000000I-1000000J0D01*
G01*
X255715000Y-116867000D02*
X260795000Y-116867000D01*
X260795000Y-116867000D02*
X260795000Y-120423000D01*
X260795000Y-120423000D02*
X261811000Y-120423000D01*
X261811000Y-120423000D02*
X261811000Y-124487000D01*
X261811000Y-124487000D02*
X260795000Y-124487000D01*
X260795000Y-124487000D02*
X260795000Y-128043000D01*
X260795000Y-128043000D02*
X255715000Y-128043000D01*
X258128000Y-130456000D02*
X263462000Y-130456000D01*
X263462000Y-130456000D02*
X263462000Y-114454000D01*
X263462000Y-114454000D02*
X258255000Y-114454000D01*
X255588000Y-114454000D02*
X250254000Y-114454000D01*
X250254000Y-114454000D02*
X250254000Y-130456000D01*
X250254000Y-130456000D02*
X255588000Y-130456000D01*
X73133000Y-35715000D02*
X73133000Y-40795000D01*
X73133000Y-40795000D02*
X69577000Y-40795000D01*
X69577000Y-40795000D02*
X69577000Y-41811000D01*
X69577000Y-41811000D02*
X65513000Y-41811000D01*
X65513000Y-41811000D02*
X65513000Y-40795000D01*
X65513000Y-40795000D02*
X61957000Y-40795000D01*
X61957000Y-40795000D02*
X61957000Y-35715000D01*
X59544000Y-38128000D02*
X59544000Y-43462000D01*
X59544000Y-43462000D02*
X75546000Y-43462000D01*
X75546000Y-43462000D02*
X75546000Y-38255000D01*
X75546000Y-35588000D02*
X75546000Y-30254000D01*
X75546000Y-30254000D02*
X59544000Y-30254000D01*
X59544000Y-30254000D02*
X59544000Y-35588000D01*
X56133000Y-35715000D02*
X56133000Y-40795000D01*
X56133000Y-40795000D02*
X52577000Y-40795000D01*
X52577000Y-40795000D02*
X52577000Y-41811000D01*
X52577000Y-41811000D02*
X48513000Y-41811000D01*
X48513000Y-41811000D02*
X48513000Y-40795000D01*
X48513000Y-40795000D02*
X44957000Y-40795000D01*
X44957000Y-40795000D02*
X44957000Y-35715000D01*
X42544000Y-38128000D02*
X42544000Y-43462000D01*
X42544000Y-43462000D02*
X58546000Y-43462000D01*
X58546000Y-43462000D02*
X58546000Y-38255000D01*
X58546000Y-35588000D02*
X58546000Y-30254000D01*
X58546000Y-30254000D02*
X42544000Y-30254000D01*
X42544000Y-30254000D02*
X42544000Y-35588000D01*
X39133000Y-35715000D02*
X39133000Y-40795000D01*
X39133000Y-40795000D02*
X35577000Y-40795000D01*
X35577000Y-40795000D02*
X35577000Y-41811000D01*
X35577000Y-41811000D02*
X31513000Y-41811000D01*
X31513000Y-41811000D02*
X31513000Y-40795000D01*
X31513000Y-40795000D02*
X27957000Y-40795000D01*
X27957000Y-40795000D02*
X27957000Y-35715000D01*
X25544000Y-38128000D02*
X25544000Y-43462000D01*
X25544000Y-43462000D02*
X41546000Y-43462000D01*
X41546000Y-43462000D02*
X41546000Y-38255000D01*
X41546000Y-35588000D02*
X41546000Y-30254000D01*
X41546000Y-30254000D02*
X25544000Y-30254000D01*
X25544000Y-30254000D02*
X25544000Y-35588000D01*
X255715000Y-45867000D02*
X260795000Y-45867000D01*
X260795000Y-45867000D02*
X260795000Y-49423000D01*
X260795000Y-49423000D02*
X261811000Y-49423000D01*
X261811000Y-49423000D02*
X261811000Y-53487000D01*
X261811000Y-53487000D02*
X260795000Y-53487000D01*
X260795000Y-53487000D02*
X260795000Y-57043000D01*
X260795000Y-57043000D02*
X255715000Y-57043000D01*
X258128000Y-59456000D02*
X263462000Y-59456000D01*
X263462000Y-59456000D02*
X263462000Y-43454000D01*
X263462000Y-43454000D02*
X258255000Y-43454000D01*
X255588000Y-43454000D02*
X250254000Y-43454000D01*
X250254000Y-43454000D02*
X250254000Y-59456000D01*
X250254000Y-59456000D02*
X255588000Y-59456000D01*
X255715000Y-79867000D02*
X260795000Y-79867000D01*
X260795000Y-79867000D02*
X260795000Y-83423000D01*
X260795000Y-83423000D02*
X261811000Y-83423000D01*
X261811000Y-83423000D02*
X261811000Y-87487000D01*
X261811000Y-87487000D02*
X260795000Y-87487000D01*
X260795000Y-87487000D02*
X260795000Y-91043000D01*
X260795000Y-91043000D02*
X255715000Y-91043000D01*
X258128000Y-93456000D02*
X263462000Y-93456000D01*
X263462000Y-93456000D02*
X263462000Y-77454000D01*
X263462000Y-77454000D02*
X258255000Y-77454000D01*
X255588000Y-77454000D02*
X250254000Y-77454000D01*
X250254000Y-77454000D02*
X250254000Y-93456000D01*
X250254000Y-93456000D02*
X255588000Y-93456000D01*
X61867000Y-138285000D02*
X61867000Y-133205000D01*
X61867000Y-133205000D02*
X65423000Y-133205000D01*
X65423000Y-133205000D02*
X65423000Y-132189000D01*
X65423000Y-132189000D02*
X69487000Y-132189000D01*
X69487000Y-132189000D02*
X69487000Y-133205000D01*
X69487000Y-133205000D02*
X73043000Y-133205000D01*
X73043000Y-133205000D02*
X73043000Y-138285000D01*
X75456000Y-135872000D02*
X75456000Y-130538000D01*
X75456000Y-130538000D02*
X59454000Y-130538000D01*
X59454000Y-130538000D02*
X59454000Y-135745000D01*
X59454000Y-138412000D02*
X59454000Y-143746000D01*
X59454000Y-143746000D02*
X75456000Y-143746000D01*
X75456000Y-143746000D02*
X75456000Y-138412000D01*
X95867000Y-138285000D02*
X95867000Y-133205000D01*
X95867000Y-133205000D02*
X99423000Y-133205000D01*
X99423000Y-133205000D02*
X99423000Y-132189000D01*
X99423000Y-132189000D02*
X103487000Y-132189000D01*
X103487000Y-132189000D02*
X103487000Y-133205000D01*
X103487000Y-133205000D02*
X107043000Y-133205000D01*
X107043000Y-133205000D02*
X107043000Y-138285000D01*
X109456000Y-135872000D02*
X109456000Y-130538000D01*
X109456000Y-130538000D02*
X93454000Y-130538000D01*
X93454000Y-130538000D02*
X93454000Y-135745000D01*
X93454000Y-138412000D02*
X93454000Y-143746000D01*
X93454000Y-143746000D02*
X109456000Y-143746000D01*
X109456000Y-143746000D02*
X109456000Y-138412000D01*
X112867000Y-138285000D02*
X112867000Y-133205000D01*
X112867000Y-133205000D02*
X116423000Y-133205000D01*
X116423000Y-133205000D02*
X116423000Y-132189000D01*
X116423000Y-132189000D02*
X120487000Y-132189000D01*
X120487000Y-132189000D02*
X120487000Y-133205000D01*
X120487000Y-133205000D02*
X124043000Y-133205000D01*
X124043000Y-133205000D02*
X124043000Y-138285000D01*
X126456000Y-135872000D02*
X126456000Y-130538000D01*
X126456000Y-130538000D02*
X110454000Y-130538000D01*
X110454000Y-130538000D02*
X110454000Y-135745000D01*
X110454000Y-138412000D02*
X110454000Y-143746000D01*
X110454000Y-143746000D02*
X126456000Y-143746000D01*
X126456000Y-143746000D02*
X126456000Y-138412000D01*
D10*
X31154066Y-125000000D02*
G75*
G03X31154066Y-125000000I-2154066J0D01*
G01*
X126154066Y-125000000D02*
G75*
G03X126154066Y-125000000I-2154066J0D01*
G01*
X246154066Y-125000000D02*
G75*
G03X246154066Y-125000000I-2154066J0D01*
G01*
X246154066Y-49000000D02*
G75*
G03X246154066Y-49000000I-2154066J0D01*
G01*
X126154066Y-49000000D02*
G75*
G03X126154066Y-49000000I-2154066J0D01*
G01*
X31154066Y-49000000D02*
G75*
G03X31154066Y-49000000I-2154066J0D01*
G01*
D11*
X82880952Y-48497619D02*
X82833333Y-48592857D01*
X82785714Y-48640476D01*
X82690476Y-48688095D01*
X82642857Y-48688095D01*
X82547619Y-48640476D01*
X82500000Y-48592857D01*
X82452381Y-48497619D01*
X82452381Y-48307142D01*
X82500000Y-48211904D01*
X82547619Y-48164285D01*
X82642857Y-48116666D01*
X82690476Y-48116666D01*
X82785714Y-48164285D01*
X82833333Y-48211904D01*
X82880952Y-48307142D01*
X82880952Y-48497619D01*
X82928571Y-48592857D01*
X82976190Y-48640476D01*
X83071429Y-48688095D01*
X83261905Y-48688095D01*
X83357143Y-48640476D01*
X83404762Y-48592857D01*
X83452381Y-48497619D01*
X83452381Y-48307142D01*
X83404762Y-48211904D01*
X83357143Y-48164285D01*
X83261905Y-48116666D01*
X83071429Y-48116666D01*
X82976190Y-48164285D01*
X82928571Y-48211904D01*
X82880952Y-48307142D01*
X82785714Y-47259523D02*
X83452381Y-47259523D01*
X82404762Y-47497619D02*
X83119048Y-47735714D01*
X83119048Y-47116666D01*
X82452381Y-46259523D02*
X82452381Y-46735714D01*
X82928571Y-46783333D01*
X82880952Y-46735714D01*
X82833333Y-46640476D01*
X82833333Y-46402380D01*
X82880952Y-46307142D01*
X82928571Y-46259523D01*
X83023810Y-46211904D01*
X83261905Y-46211904D01*
X83357143Y-46259523D01*
X83404762Y-46307142D01*
X83452381Y-46402380D01*
X83452381Y-46640476D01*
X83404762Y-46735714D01*
X83357143Y-46783333D01*
X258702381Y-69273809D02*
X258226190Y-69607143D01*
X258702381Y-69845238D02*
X257702381Y-69845238D01*
X257702381Y-69464285D01*
X257750000Y-69369047D01*
X257797619Y-69321428D01*
X257892857Y-69273809D01*
X258035714Y-69273809D01*
X258130952Y-69321428D01*
X258178571Y-69369047D01*
X258226190Y-69464285D01*
X258226190Y-69845238D01*
X257702381Y-68559523D02*
X258416667Y-68559523D01*
X258559524Y-68607143D01*
X258654762Y-68702381D01*
X258702381Y-68845238D01*
X258702381Y-68940476D01*
X258035714Y-67654761D02*
X258702381Y-67654761D01*
X257654762Y-67892857D02*
X258369048Y-68130952D01*
X258369048Y-67511904D01*
X257702381Y-66654761D02*
X257702381Y-67130952D01*
X258178571Y-67178571D01*
X258130952Y-67130952D01*
X258083333Y-67035714D01*
X258083333Y-66797618D01*
X258130952Y-66702380D01*
X258178571Y-66654761D01*
X258273810Y-66607142D01*
X258511905Y-66607142D01*
X258607143Y-66654761D01*
X258654762Y-66702380D01*
X258702381Y-66797618D01*
X258702381Y-67035714D01*
X258654762Y-67130952D01*
X258607143Y-67178571D01*
X258702381Y-106523809D02*
X258226190Y-106857143D01*
X258702381Y-107095238D02*
X257702381Y-107095238D01*
X257702381Y-106714285D01*
X257750000Y-106619047D01*
X257797619Y-106571428D01*
X257892857Y-106523809D01*
X258035714Y-106523809D01*
X258130952Y-106571428D01*
X258178571Y-106619047D01*
X258226190Y-106714285D01*
X258226190Y-107095238D01*
X257702381Y-105809523D02*
X258416667Y-105809523D01*
X258559524Y-105857143D01*
X258654762Y-105952381D01*
X258702381Y-106095238D01*
X258702381Y-106190476D01*
X258035714Y-104904761D02*
X258702381Y-104904761D01*
X257654762Y-105142857D02*
X258369048Y-105380952D01*
X258369048Y-104761904D01*
X257702381Y-103904761D02*
X257702381Y-104380952D01*
X258178571Y-104428571D01*
X258130952Y-104380952D01*
X258083333Y-104285714D01*
X258083333Y-104047618D01*
X258130952Y-103952380D01*
X258178571Y-103904761D01*
X258273810Y-103857142D01*
X258511905Y-103857142D01*
X258607143Y-103904761D01*
X258654762Y-103952380D01*
X258702381Y-104047618D01*
X258702381Y-104285714D01*
X258654762Y-104380952D01*
X258607143Y-104428571D01*
X83726191Y-39202381D02*
X83392857Y-38726190D01*
X83154762Y-39202381D02*
X83154762Y-38202381D01*
X83535715Y-38202381D01*
X83630953Y-38250000D01*
X83678572Y-38297619D01*
X83726191Y-38392857D01*
X83726191Y-38535714D01*
X83678572Y-38630952D01*
X83630953Y-38678571D01*
X83535715Y-38726190D01*
X83154762Y-38726190D01*
X84440477Y-38202381D02*
X84440477Y-38916667D01*
X84392857Y-39059524D01*
X84297619Y-39154762D01*
X84154762Y-39202381D01*
X84059524Y-39202381D01*
X85345239Y-38535714D02*
X85345239Y-39202381D01*
X85107143Y-38154762D02*
X84869048Y-38869048D01*
X85488096Y-38869048D01*
X86345239Y-38202381D02*
X85869048Y-38202381D01*
X85821429Y-38678571D01*
X85869048Y-38630952D01*
X85964286Y-38583333D01*
X86202382Y-38583333D01*
X86297620Y-38630952D01*
X86345239Y-38678571D01*
X86392858Y-38773810D01*
X86392858Y-39011905D01*
X86345239Y-39107143D01*
X86297620Y-39154762D01*
X86202382Y-39202381D01*
X85964286Y-39202381D01*
X85869048Y-39154762D01*
X85821429Y-39107143D01*
X83226191Y-135952381D02*
X82892857Y-135476190D01*
X82654762Y-135952381D02*
X82654762Y-134952381D01*
X83035715Y-134952381D01*
X83130953Y-135000000D01*
X83178572Y-135047619D01*
X83226191Y-135142857D01*
X83226191Y-135285714D01*
X83178572Y-135380952D01*
X83130953Y-135428571D01*
X83035715Y-135476190D01*
X82654762Y-135476190D01*
X83940477Y-134952381D02*
X83940477Y-135666667D01*
X83892857Y-135809524D01*
X83797619Y-135904762D01*
X83654762Y-135952381D01*
X83559524Y-135952381D01*
X84845239Y-135285714D02*
X84845239Y-135952381D01*
X84607143Y-134904762D02*
X84369048Y-135619048D01*
X84988096Y-135619048D01*
X85845239Y-134952381D02*
X85369048Y-134952381D01*
X85321429Y-135428571D01*
X85369048Y-135380952D01*
X85464286Y-135333333D01*
X85702382Y-135333333D01*
X85797620Y-135380952D01*
X85845239Y-135428571D01*
X85892858Y-135523810D01*
X85892858Y-135761905D01*
X85845239Y-135857143D01*
X85797620Y-135904762D01*
X85702382Y-135952381D01*
X85464286Y-135952381D01*
X85369048Y-135904762D01*
X85321429Y-135857143D01*
X32431191Y-135952381D02*
X32097857Y-135476190D01*
X31859762Y-135952381D02*
X31859762Y-134952381D01*
X32240715Y-134952381D01*
X32335953Y-135000000D01*
X32383572Y-135047619D01*
X32431191Y-135142857D01*
X32431191Y-135285714D01*
X32383572Y-135380952D01*
X32335953Y-135428571D01*
X32240715Y-135476190D01*
X31859762Y-135476190D01*
X33145477Y-134952381D02*
X33145477Y-135666667D01*
X33097857Y-135809524D01*
X33002619Y-135904762D01*
X32859762Y-135952381D01*
X32764524Y-135952381D01*
X34050239Y-135285714D02*
X34050239Y-135952381D01*
X33812143Y-134904762D02*
X33574048Y-135619048D01*
X34193096Y-135619048D01*
X35050239Y-134952381D02*
X34574048Y-134952381D01*
X34526429Y-135428571D01*
X34574048Y-135380952D01*
X34669286Y-135333333D01*
X34907382Y-135333333D01*
X35002620Y-135380952D01*
X35050239Y-135428571D01*
X35097858Y-135523810D01*
X35097858Y-135761905D01*
X35050239Y-135857143D01*
X35002620Y-135904762D01*
X34907382Y-135952381D01*
X34669286Y-135952381D01*
X34574048Y-135904762D01*
X34526429Y-135857143D01*
X49431191Y-135952381D02*
X49097857Y-135476190D01*
X48859762Y-135952381D02*
X48859762Y-134952381D01*
X49240715Y-134952381D01*
X49335953Y-135000000D01*
X49383572Y-135047619D01*
X49431191Y-135142857D01*
X49431191Y-135285714D01*
X49383572Y-135380952D01*
X49335953Y-135428571D01*
X49240715Y-135476190D01*
X48859762Y-135476190D01*
X50145477Y-134952381D02*
X50145477Y-135666667D01*
X50097857Y-135809524D01*
X50002619Y-135904762D01*
X49859762Y-135952381D01*
X49764524Y-135952381D01*
X51050239Y-135285714D02*
X51050239Y-135952381D01*
X50812143Y-134904762D02*
X50574048Y-135619048D01*
X51193096Y-135619048D01*
X52050239Y-134952381D02*
X51574048Y-134952381D01*
X51526429Y-135428571D01*
X51574048Y-135380952D01*
X51669286Y-135333333D01*
X51907382Y-135333333D01*
X52002620Y-135380952D01*
X52050239Y-135428571D01*
X52097858Y-135523810D01*
X52097858Y-135761905D01*
X52050239Y-135857143D01*
X52002620Y-135904762D01*
X51907382Y-135952381D01*
X51669286Y-135952381D01*
X51574048Y-135904762D01*
X51526429Y-135857143D01*
X51528000Y-89258667D02*
X52004191Y-89258667D01*
X51432762Y-89544381D02*
X51766095Y-88544381D01*
X52099429Y-89544381D01*
X52432762Y-89544381D02*
X52432762Y-88877714D01*
X52432762Y-89068190D02*
X52480381Y-88972952D01*
X52528000Y-88925333D01*
X52623238Y-88877714D01*
X52718477Y-88877714D01*
X53480382Y-89544381D02*
X53480382Y-88544381D01*
X53480382Y-89496762D02*
X53385144Y-89544381D01*
X53194667Y-89544381D01*
X53099429Y-89496762D01*
X53051810Y-89449143D01*
X53004191Y-89353905D01*
X53004191Y-89068190D01*
X53051810Y-88972952D01*
X53099429Y-88925333D01*
X53194667Y-88877714D01*
X53385144Y-88877714D01*
X53480382Y-88925333D01*
X54385144Y-88877714D02*
X54385144Y-89544381D01*
X53956572Y-88877714D02*
X53956572Y-89401524D01*
X54004191Y-89496762D01*
X54099429Y-89544381D01*
X54242287Y-89544381D01*
X54337525Y-89496762D01*
X54385144Y-89449143D01*
X54861334Y-89544381D02*
X54861334Y-88877714D01*
X54861334Y-88544381D02*
X54813715Y-88592000D01*
X54861334Y-88639619D01*
X54908953Y-88592000D01*
X54861334Y-88544381D01*
X54861334Y-88639619D01*
X55337524Y-88877714D02*
X55337524Y-89544381D01*
X55337524Y-88972952D02*
X55385143Y-88925333D01*
X55480381Y-88877714D01*
X55623239Y-88877714D01*
X55718477Y-88925333D01*
X55766096Y-89020571D01*
X55766096Y-89544381D01*
X56385143Y-89544381D02*
X56289905Y-89496762D01*
X56242286Y-89449143D01*
X56194667Y-89353905D01*
X56194667Y-89068190D01*
X56242286Y-88972952D01*
X56289905Y-88925333D01*
X56385143Y-88877714D01*
X56528001Y-88877714D01*
X56623239Y-88925333D01*
X56670858Y-88972952D01*
X56718477Y-89068190D01*
X56718477Y-89353905D01*
X56670858Y-89449143D01*
X56623239Y-89496762D01*
X56528001Y-89544381D01*
X56385143Y-89544381D01*
X57147048Y-88544381D02*
X57147048Y-89353905D01*
X57194667Y-89449143D01*
X57242286Y-89496762D01*
X57337524Y-89544381D01*
X57528001Y-89544381D01*
X57623239Y-89496762D01*
X57670858Y-89449143D01*
X57718477Y-89353905D01*
X57718477Y-88544381D01*
X58194667Y-88877714D02*
X58194667Y-89544381D01*
X58194667Y-88972952D02*
X58242286Y-88925333D01*
X58337524Y-88877714D01*
X58480382Y-88877714D01*
X58575620Y-88925333D01*
X58623239Y-89020571D01*
X58623239Y-89544381D01*
X59242286Y-89544381D02*
X59147048Y-89496762D01*
X59099429Y-89449143D01*
X59051810Y-89353905D01*
X59051810Y-89068190D01*
X59099429Y-88972952D01*
X59147048Y-88925333D01*
X59242286Y-88877714D01*
X59385144Y-88877714D01*
X59480382Y-88925333D01*
X59528001Y-88972952D01*
X59575620Y-89068190D01*
X59575620Y-89353905D01*
X59528001Y-89449143D01*
X59480382Y-89496762D01*
X59385144Y-89544381D01*
X59242286Y-89544381D01*
X60575620Y-89544381D02*
X60242286Y-89068190D01*
X60004191Y-89544381D02*
X60004191Y-88544381D01*
X60385144Y-88544381D01*
X60480382Y-88592000D01*
X60528001Y-88639619D01*
X60575620Y-88734857D01*
X60575620Y-88877714D01*
X60528001Y-88972952D01*
X60480382Y-89020571D01*
X60385144Y-89068190D01*
X60004191Y-89068190D01*
X60908953Y-88544381D02*
X61528001Y-88544381D01*
X61194667Y-88925333D01*
X61337525Y-88925333D01*
X61432763Y-88972952D01*
X61480382Y-89020571D01*
X61528001Y-89115810D01*
X61528001Y-89353905D01*
X61480382Y-89449143D01*
X61432763Y-89496762D01*
X61337525Y-89544381D01*
X61051810Y-89544381D01*
X60956572Y-89496762D01*
X60908953Y-89449143D01*
X184738095Y-117182381D02*
X184738095Y-116182381D01*
X185071429Y-116896667D01*
X185404762Y-116182381D01*
X185404762Y-117182381D01*
X186357143Y-116182381D02*
X185880952Y-116182381D01*
X185833333Y-116658571D01*
X185880952Y-116610952D01*
X185976190Y-116563333D01*
X186214286Y-116563333D01*
X186309524Y-116610952D01*
X186357143Y-116658571D01*
X186404762Y-116753810D01*
X186404762Y-116991905D01*
X186357143Y-117087143D01*
X186309524Y-117134762D01*
X186214286Y-117182381D01*
X185976190Y-117182381D01*
X185880952Y-117134762D01*
X185833333Y-117087143D01*
X187261905Y-116515714D02*
X187261905Y-117182381D01*
X187023809Y-116134762D02*
X186785714Y-116849048D01*
X187404762Y-116849048D01*
X187738095Y-116277619D02*
X187785714Y-116230000D01*
X187880952Y-116182381D01*
X188119048Y-116182381D01*
X188214286Y-116230000D01*
X188261905Y-116277619D01*
X188309524Y-116372857D01*
X188309524Y-116468095D01*
X188261905Y-116610952D01*
X187690476Y-117182381D01*
X188309524Y-117182381D01*
X188738095Y-117182381D02*
X188738095Y-116182381D01*
X188738095Y-116658571D02*
X189309524Y-116658571D01*
X189309524Y-117182381D02*
X189309524Y-116182381D01*
X189547619Y-117277619D02*
X190309524Y-117277619D01*
X190547619Y-117182381D02*
X190547619Y-116182381D01*
X190547619Y-116658571D02*
X191119048Y-116658571D01*
X191119048Y-117182381D02*
X191119048Y-116182381D01*
X191976191Y-117134762D02*
X191880953Y-117182381D01*
X191690476Y-117182381D01*
X191595238Y-117134762D01*
X191547619Y-117039524D01*
X191547619Y-116658571D01*
X191595238Y-116563333D01*
X191690476Y-116515714D01*
X191880953Y-116515714D01*
X191976191Y-116563333D01*
X192023810Y-116658571D01*
X192023810Y-116753810D01*
X191547619Y-116849048D01*
X192880953Y-117182381D02*
X192880953Y-116658571D01*
X192833334Y-116563333D01*
X192738096Y-116515714D01*
X192547619Y-116515714D01*
X192452381Y-116563333D01*
X192880953Y-117134762D02*
X192785715Y-117182381D01*
X192547619Y-117182381D01*
X192452381Y-117134762D01*
X192404762Y-117039524D01*
X192404762Y-116944286D01*
X192452381Y-116849048D01*
X192547619Y-116801429D01*
X192785715Y-116801429D01*
X192880953Y-116753810D01*
X193785715Y-117182381D02*
X193785715Y-116182381D01*
X193785715Y-117134762D02*
X193690477Y-117182381D01*
X193500000Y-117182381D01*
X193404762Y-117134762D01*
X193357143Y-117087143D01*
X193309524Y-116991905D01*
X193309524Y-116706190D01*
X193357143Y-116610952D01*
X193404762Y-116563333D01*
X193500000Y-116515714D01*
X193690477Y-116515714D01*
X193785715Y-116563333D01*
X194642858Y-117134762D02*
X194547620Y-117182381D01*
X194357143Y-117182381D01*
X194261905Y-117134762D01*
X194214286Y-117039524D01*
X194214286Y-116658571D01*
X194261905Y-116563333D01*
X194357143Y-116515714D01*
X194547620Y-116515714D01*
X194642858Y-116563333D01*
X194690477Y-116658571D01*
X194690477Y-116753810D01*
X194214286Y-116849048D01*
X195119048Y-117182381D02*
X195119048Y-116515714D01*
X195119048Y-116706190D02*
X195166667Y-116610952D01*
X195214286Y-116563333D01*
X195309524Y-116515714D01*
X195404763Y-116515714D01*
X53809524Y-118357143D02*
X53761905Y-118404762D01*
X53619048Y-118452381D01*
X53523810Y-118452381D01*
X53380952Y-118404762D01*
X53285714Y-118309524D01*
X53238095Y-118214286D01*
X53190476Y-118023810D01*
X53190476Y-117880952D01*
X53238095Y-117690476D01*
X53285714Y-117595238D01*
X53380952Y-117500000D01*
X53523810Y-117452381D01*
X53619048Y-117452381D01*
X53761905Y-117500000D01*
X53809524Y-117547619D01*
X81309524Y-118357143D02*
X81261905Y-118404762D01*
X81119048Y-118452381D01*
X81023810Y-118452381D01*
X80880952Y-118404762D01*
X80785714Y-118309524D01*
X80738095Y-118214286D01*
X80690476Y-118023810D01*
X80690476Y-117880952D01*
X80738095Y-117690476D01*
X80785714Y-117595238D01*
X80880952Y-117500000D01*
X81023810Y-117452381D01*
X81119048Y-117452381D01*
X81261905Y-117500000D01*
X81309524Y-117547619D01*
X109309524Y-118357143D02*
X109261905Y-118404762D01*
X109119048Y-118452381D01*
X109023810Y-118452381D01*
X108880952Y-118404762D01*
X108785714Y-118309524D01*
X108738095Y-118214286D01*
X108690476Y-118023810D01*
X108690476Y-117880952D01*
X108738095Y-117690476D01*
X108785714Y-117595238D01*
X108880952Y-117500000D01*
X109023810Y-117452381D01*
X109119048Y-117452381D01*
X109261905Y-117500000D01*
X109309524Y-117547619D01*
X73309524Y-58357143D02*
X73261905Y-58404762D01*
X73119048Y-58452381D01*
X73023810Y-58452381D01*
X72880952Y-58404762D01*
X72785714Y-58309524D01*
X72738095Y-58214286D01*
X72690476Y-58023810D01*
X72690476Y-57880952D01*
X72738095Y-57690476D01*
X72785714Y-57595238D01*
X72880952Y-57500000D01*
X73023810Y-57452381D01*
X73119048Y-57452381D01*
X73261905Y-57500000D01*
X73309524Y-57547619D01*
X89309524Y-58357143D02*
X89261905Y-58404762D01*
X89119048Y-58452381D01*
X89023810Y-58452381D01*
X88880952Y-58404762D01*
X88785714Y-58309524D01*
X88738095Y-58214286D01*
X88690476Y-58023810D01*
X88690476Y-57880952D01*
X88738095Y-57690476D01*
X88785714Y-57595238D01*
X88880952Y-57500000D01*
X89023810Y-57452381D01*
X89119048Y-57452381D01*
X89261905Y-57500000D01*
X89309524Y-57547619D01*
X46309524Y-48357143D02*
X46261905Y-48404762D01*
X46119048Y-48452381D01*
X46023810Y-48452381D01*
X45880952Y-48404762D01*
X45785714Y-48309524D01*
X45738095Y-48214286D01*
X45690476Y-48023810D01*
X45690476Y-47880952D01*
X45738095Y-47690476D01*
X45785714Y-47595238D01*
X45880952Y-47500000D01*
X46023810Y-47452381D01*
X46119048Y-47452381D01*
X46261905Y-47500000D01*
X46309524Y-47547619D01*
X244087095Y-110452381D02*
X244087095Y-109452381D01*
X244325190Y-109452381D01*
X244468048Y-109500000D01*
X244563286Y-109595238D01*
X244610905Y-109690476D01*
X244658524Y-109880952D01*
X244658524Y-110023810D01*
X244610905Y-110214286D01*
X244563286Y-110309524D01*
X244468048Y-110404762D01*
X244325190Y-110452381D01*
X244087095Y-110452381D01*
X194380952Y-48420000D02*
X194285714Y-48372381D01*
X194142857Y-48372381D01*
X193999999Y-48420000D01*
X193904761Y-48515238D01*
X193857142Y-48610476D01*
X193809523Y-48800952D01*
X193809523Y-48943810D01*
X193857142Y-49134286D01*
X193904761Y-49229524D01*
X193999999Y-49324762D01*
X194142857Y-49372381D01*
X194238095Y-49372381D01*
X194380952Y-49324762D01*
X194428571Y-49277143D01*
X194428571Y-48943810D01*
X194238095Y-48943810D01*
X194809523Y-48467619D02*
X194857142Y-48420000D01*
X194952380Y-48372381D01*
X195190476Y-48372381D01*
X195285714Y-48420000D01*
X195333333Y-48467619D01*
X195380952Y-48562857D01*
X195380952Y-48658095D01*
X195333333Y-48800952D01*
X194761904Y-49372381D01*
X195380952Y-49372381D01*
X195999999Y-48372381D02*
X196095238Y-48372381D01*
X196190476Y-48420000D01*
X196238095Y-48467619D01*
X196285714Y-48562857D01*
X196333333Y-48753333D01*
X196333333Y-48991429D01*
X196285714Y-49181905D01*
X196238095Y-49277143D01*
X196190476Y-49324762D01*
X196095238Y-49372381D01*
X195999999Y-49372381D01*
X195904761Y-49324762D01*
X195857142Y-49277143D01*
X195809523Y-49181905D01*
X195761904Y-48991429D01*
X195761904Y-48753333D01*
X195809523Y-48562857D01*
X195857142Y-48467619D01*
X195904761Y-48420000D01*
X195999999Y-48372381D01*
X197285714Y-49372381D02*
X196714285Y-49372381D01*
X196999999Y-49372381D02*
X196999999Y-48372381D01*
X196904761Y-48515238D01*
X196809523Y-48610476D01*
X196714285Y-48658095D01*
X197619047Y-48372381D02*
X198285714Y-49372381D01*
X198285714Y-48372381D02*
X197619047Y-49372381D01*
X198428571Y-49467619D02*
X199190476Y-49467619D01*
X199428571Y-49372381D02*
X199428571Y-48372381D01*
X199428571Y-48848571D02*
X200000000Y-48848571D01*
X200000000Y-49372381D02*
X200000000Y-48372381D01*
X200857143Y-49324762D02*
X200761905Y-49372381D01*
X200571428Y-49372381D01*
X200476190Y-49324762D01*
X200428571Y-49229524D01*
X200428571Y-48848571D01*
X200476190Y-48753333D01*
X200571428Y-48705714D01*
X200761905Y-48705714D01*
X200857143Y-48753333D01*
X200904762Y-48848571D01*
X200904762Y-48943810D01*
X200428571Y-49039048D01*
X201761905Y-49372381D02*
X201761905Y-48848571D01*
X201714286Y-48753333D01*
X201619048Y-48705714D01*
X201428571Y-48705714D01*
X201333333Y-48753333D01*
X201761905Y-49324762D02*
X201666667Y-49372381D01*
X201428571Y-49372381D01*
X201333333Y-49324762D01*
X201285714Y-49229524D01*
X201285714Y-49134286D01*
X201333333Y-49039048D01*
X201428571Y-48991429D01*
X201666667Y-48991429D01*
X201761905Y-48943810D01*
X202666667Y-49372381D02*
X202666667Y-48372381D01*
X202666667Y-49324762D02*
X202571429Y-49372381D01*
X202380952Y-49372381D01*
X202285714Y-49324762D01*
X202238095Y-49277143D01*
X202190476Y-49181905D01*
X202190476Y-48896190D01*
X202238095Y-48800952D01*
X202285714Y-48753333D01*
X202380952Y-48705714D01*
X202571429Y-48705714D01*
X202666667Y-48753333D01*
X203523810Y-49324762D02*
X203428572Y-49372381D01*
X203238095Y-49372381D01*
X203142857Y-49324762D01*
X203095238Y-49229524D01*
X203095238Y-48848571D01*
X203142857Y-48753333D01*
X203238095Y-48705714D01*
X203428572Y-48705714D01*
X203523810Y-48753333D01*
X203571429Y-48848571D01*
X203571429Y-48943810D01*
X203095238Y-49039048D01*
X204000000Y-49372381D02*
X204000000Y-48705714D01*
X204000000Y-48896190D02*
X204047619Y-48800952D01*
X204095238Y-48753333D01*
X204190476Y-48705714D01*
X204285715Y-48705714D01*
X194380952Y-86420000D02*
X194285714Y-86372381D01*
X194142857Y-86372381D01*
X193999999Y-86420000D01*
X193904761Y-86515238D01*
X193857142Y-86610476D01*
X193809523Y-86800952D01*
X193809523Y-86943810D01*
X193857142Y-87134286D01*
X193904761Y-87229524D01*
X193999999Y-87324762D01*
X194142857Y-87372381D01*
X194238095Y-87372381D01*
X194380952Y-87324762D01*
X194428571Y-87277143D01*
X194428571Y-86943810D01*
X194238095Y-86943810D01*
X194809523Y-86467619D02*
X194857142Y-86420000D01*
X194952380Y-86372381D01*
X195190476Y-86372381D01*
X195285714Y-86420000D01*
X195333333Y-86467619D01*
X195380952Y-86562857D01*
X195380952Y-86658095D01*
X195333333Y-86800952D01*
X194761904Y-87372381D01*
X195380952Y-87372381D01*
X195999999Y-86372381D02*
X196095238Y-86372381D01*
X196190476Y-86420000D01*
X196238095Y-86467619D01*
X196285714Y-86562857D01*
X196333333Y-86753333D01*
X196333333Y-86991429D01*
X196285714Y-87181905D01*
X196238095Y-87277143D01*
X196190476Y-87324762D01*
X196095238Y-87372381D01*
X195999999Y-87372381D01*
X195904761Y-87324762D01*
X195857142Y-87277143D01*
X195809523Y-87181905D01*
X195761904Y-86991429D01*
X195761904Y-86753333D01*
X195809523Y-86562857D01*
X195857142Y-86467619D01*
X195904761Y-86420000D01*
X195999999Y-86372381D01*
X197285714Y-87372381D02*
X196714285Y-87372381D01*
X196999999Y-87372381D02*
X196999999Y-86372381D01*
X196904761Y-86515238D01*
X196809523Y-86610476D01*
X196714285Y-86658095D01*
X197619047Y-86372381D02*
X198285714Y-87372381D01*
X198285714Y-86372381D02*
X197619047Y-87372381D01*
X198428571Y-87467619D02*
X199190476Y-87467619D01*
X199428571Y-87372381D02*
X199428571Y-86372381D01*
X199428571Y-86848571D02*
X200000000Y-86848571D01*
X200000000Y-87372381D02*
X200000000Y-86372381D01*
X200857143Y-87324762D02*
X200761905Y-87372381D01*
X200571428Y-87372381D01*
X200476190Y-87324762D01*
X200428571Y-87229524D01*
X200428571Y-86848571D01*
X200476190Y-86753333D01*
X200571428Y-86705714D01*
X200761905Y-86705714D01*
X200857143Y-86753333D01*
X200904762Y-86848571D01*
X200904762Y-86943810D01*
X200428571Y-87039048D01*
X201761905Y-87372381D02*
X201761905Y-86848571D01*
X201714286Y-86753333D01*
X201619048Y-86705714D01*
X201428571Y-86705714D01*
X201333333Y-86753333D01*
X201761905Y-87324762D02*
X201666667Y-87372381D01*
X201428571Y-87372381D01*
X201333333Y-87324762D01*
X201285714Y-87229524D01*
X201285714Y-87134286D01*
X201333333Y-87039048D01*
X201428571Y-86991429D01*
X201666667Y-86991429D01*
X201761905Y-86943810D01*
X202666667Y-87372381D02*
X202666667Y-86372381D01*
X202666667Y-87324762D02*
X202571429Y-87372381D01*
X202380952Y-87372381D01*
X202285714Y-87324762D01*
X202238095Y-87277143D01*
X202190476Y-87181905D01*
X202190476Y-86896190D01*
X202238095Y-86800952D01*
X202285714Y-86753333D01*
X202380952Y-86705714D01*
X202571429Y-86705714D01*
X202666667Y-86753333D01*
X203523810Y-87324762D02*
X203428572Y-87372381D01*
X203238095Y-87372381D01*
X203142857Y-87324762D01*
X203095238Y-87229524D01*
X203095238Y-86848571D01*
X203142857Y-86753333D01*
X203238095Y-86705714D01*
X203428572Y-86705714D01*
X203523810Y-86753333D01*
X203571429Y-86848571D01*
X203571429Y-86943810D01*
X203095238Y-87039048D01*
X204000000Y-87372381D02*
X204000000Y-86705714D01*
X204000000Y-86896190D02*
X204047619Y-86800952D01*
X204095238Y-86753333D01*
X204190476Y-86705714D01*
X204285715Y-86705714D01*
X194380952Y-124420000D02*
X194285714Y-124372381D01*
X194142857Y-124372381D01*
X193999999Y-124420000D01*
X193904761Y-124515238D01*
X193857142Y-124610476D01*
X193809523Y-124800952D01*
X193809523Y-124943810D01*
X193857142Y-125134286D01*
X193904761Y-125229524D01*
X193999999Y-125324762D01*
X194142857Y-125372381D01*
X194238095Y-125372381D01*
X194380952Y-125324762D01*
X194428571Y-125277143D01*
X194428571Y-124943810D01*
X194238095Y-124943810D01*
X194809523Y-124467619D02*
X194857142Y-124420000D01*
X194952380Y-124372381D01*
X195190476Y-124372381D01*
X195285714Y-124420000D01*
X195333333Y-124467619D01*
X195380952Y-124562857D01*
X195380952Y-124658095D01*
X195333333Y-124800952D01*
X194761904Y-125372381D01*
X195380952Y-125372381D01*
X195999999Y-124372381D02*
X196095238Y-124372381D01*
X196190476Y-124420000D01*
X196238095Y-124467619D01*
X196285714Y-124562857D01*
X196333333Y-124753333D01*
X196333333Y-124991429D01*
X196285714Y-125181905D01*
X196238095Y-125277143D01*
X196190476Y-125324762D01*
X196095238Y-125372381D01*
X195999999Y-125372381D01*
X195904761Y-125324762D01*
X195857142Y-125277143D01*
X195809523Y-125181905D01*
X195761904Y-124991429D01*
X195761904Y-124753333D01*
X195809523Y-124562857D01*
X195857142Y-124467619D01*
X195904761Y-124420000D01*
X195999999Y-124372381D01*
X197285714Y-125372381D02*
X196714285Y-125372381D01*
X196999999Y-125372381D02*
X196999999Y-124372381D01*
X196904761Y-124515238D01*
X196809523Y-124610476D01*
X196714285Y-124658095D01*
X197619047Y-124372381D02*
X198285714Y-125372381D01*
X198285714Y-124372381D02*
X197619047Y-125372381D01*
X198428571Y-125467619D02*
X199190476Y-125467619D01*
X199428571Y-125372381D02*
X199428571Y-124372381D01*
X199428571Y-124848571D02*
X200000000Y-124848571D01*
X200000000Y-125372381D02*
X200000000Y-124372381D01*
X200857143Y-125324762D02*
X200761905Y-125372381D01*
X200571428Y-125372381D01*
X200476190Y-125324762D01*
X200428571Y-125229524D01*
X200428571Y-124848571D01*
X200476190Y-124753333D01*
X200571428Y-124705714D01*
X200761905Y-124705714D01*
X200857143Y-124753333D01*
X200904762Y-124848571D01*
X200904762Y-124943810D01*
X200428571Y-125039048D01*
X201761905Y-125372381D02*
X201761905Y-124848571D01*
X201714286Y-124753333D01*
X201619048Y-124705714D01*
X201428571Y-124705714D01*
X201333333Y-124753333D01*
X201761905Y-125324762D02*
X201666667Y-125372381D01*
X201428571Y-125372381D01*
X201333333Y-125324762D01*
X201285714Y-125229524D01*
X201285714Y-125134286D01*
X201333333Y-125039048D01*
X201428571Y-124991429D01*
X201666667Y-124991429D01*
X201761905Y-124943810D01*
X202666667Y-125372381D02*
X202666667Y-124372381D01*
X202666667Y-125324762D02*
X202571429Y-125372381D01*
X202380952Y-125372381D01*
X202285714Y-125324762D01*
X202238095Y-125277143D01*
X202190476Y-125181905D01*
X202190476Y-124896190D01*
X202238095Y-124800952D01*
X202285714Y-124753333D01*
X202380952Y-124705714D01*
X202571429Y-124705714D01*
X202666667Y-124753333D01*
X203523810Y-125324762D02*
X203428572Y-125372381D01*
X203238095Y-125372381D01*
X203142857Y-125324762D01*
X203095238Y-125229524D01*
X203095238Y-124848571D01*
X203142857Y-124753333D01*
X203238095Y-124705714D01*
X203428572Y-124705714D01*
X203523810Y-124753333D01*
X203571429Y-124848571D01*
X203571429Y-124943810D01*
X203095238Y-125039048D01*
X204000000Y-125372381D02*
X204000000Y-124705714D01*
X204000000Y-124896190D02*
X204047619Y-124800952D01*
X204095238Y-124753333D01*
X204190476Y-124705714D01*
X204285715Y-124705714D01*
X87595238Y-50452381D02*
X87690477Y-50452381D01*
X87785715Y-50500000D01*
X87833334Y-50547619D01*
X87880953Y-50642857D01*
X87928572Y-50833333D01*
X87928572Y-51071429D01*
X87880953Y-51261905D01*
X87833334Y-51357143D01*
X87785715Y-51404762D01*
X87690477Y-51452381D01*
X87595238Y-51452381D01*
X87500000Y-51404762D01*
X87452381Y-51357143D01*
X87404762Y-51261905D01*
X87357143Y-51071429D01*
X87357143Y-50833333D01*
X87404762Y-50642857D01*
X87452381Y-50547619D01*
X87500000Y-50500000D01*
X87595238Y-50452381D01*
X88785715Y-50452381D02*
X88595238Y-50452381D01*
X88500000Y-50500000D01*
X88452381Y-50547619D01*
X88357143Y-50690476D01*
X88309524Y-50880952D01*
X88309524Y-51261905D01*
X88357143Y-51357143D01*
X88404762Y-51404762D01*
X88500000Y-51452381D01*
X88690477Y-51452381D01*
X88785715Y-51404762D01*
X88833334Y-51357143D01*
X88880953Y-51261905D01*
X88880953Y-51023810D01*
X88833334Y-50928571D01*
X88785715Y-50880952D01*
X88690477Y-50833333D01*
X88500000Y-50833333D01*
X88404762Y-50880952D01*
X88357143Y-50928571D01*
X88309524Y-51023810D01*
X89738096Y-50785714D02*
X89738096Y-51452381D01*
X89500000Y-50404762D02*
X89261905Y-51119048D01*
X89880953Y-51119048D01*
X90738096Y-51452381D02*
X90261905Y-51452381D01*
X90261905Y-50452381D01*
X71595238Y-50452381D02*
X71690477Y-50452381D01*
X71785715Y-50500000D01*
X71833334Y-50547619D01*
X71880953Y-50642857D01*
X71928572Y-50833333D01*
X71928572Y-51071429D01*
X71880953Y-51261905D01*
X71833334Y-51357143D01*
X71785715Y-51404762D01*
X71690477Y-51452381D01*
X71595238Y-51452381D01*
X71500000Y-51404762D01*
X71452381Y-51357143D01*
X71404762Y-51261905D01*
X71357143Y-51071429D01*
X71357143Y-50833333D01*
X71404762Y-50642857D01*
X71452381Y-50547619D01*
X71500000Y-50500000D01*
X71595238Y-50452381D01*
X72785715Y-50452381D02*
X72595238Y-50452381D01*
X72500000Y-50500000D01*
X72452381Y-50547619D01*
X72357143Y-50690476D01*
X72309524Y-50880952D01*
X72309524Y-51261905D01*
X72357143Y-51357143D01*
X72404762Y-51404762D01*
X72500000Y-51452381D01*
X72690477Y-51452381D01*
X72785715Y-51404762D01*
X72833334Y-51357143D01*
X72880953Y-51261905D01*
X72880953Y-51023810D01*
X72833334Y-50928571D01*
X72785715Y-50880952D01*
X72690477Y-50833333D01*
X72500000Y-50833333D01*
X72404762Y-50880952D01*
X72357143Y-50928571D01*
X72309524Y-51023810D01*
X73738096Y-50785714D02*
X73738096Y-51452381D01*
X73500000Y-50404762D02*
X73261905Y-51119048D01*
X73880953Y-51119048D01*
X74738096Y-51452381D02*
X74261905Y-51452381D01*
X74261905Y-50452381D01*
X51595238Y-50452381D02*
X51690477Y-50452381D01*
X51785715Y-50500000D01*
X51833334Y-50547619D01*
X51880953Y-50642857D01*
X51928572Y-50833333D01*
X51928572Y-51071429D01*
X51880953Y-51261905D01*
X51833334Y-51357143D01*
X51785715Y-51404762D01*
X51690477Y-51452381D01*
X51595238Y-51452381D01*
X51500000Y-51404762D01*
X51452381Y-51357143D01*
X51404762Y-51261905D01*
X51357143Y-51071429D01*
X51357143Y-50833333D01*
X51404762Y-50642857D01*
X51452381Y-50547619D01*
X51500000Y-50500000D01*
X51595238Y-50452381D01*
X52785715Y-50452381D02*
X52595238Y-50452381D01*
X52500000Y-50500000D01*
X52452381Y-50547619D01*
X52357143Y-50690476D01*
X52309524Y-50880952D01*
X52309524Y-51261905D01*
X52357143Y-51357143D01*
X52404762Y-51404762D01*
X52500000Y-51452381D01*
X52690477Y-51452381D01*
X52785715Y-51404762D01*
X52833334Y-51357143D01*
X52880953Y-51261905D01*
X52880953Y-51023810D01*
X52833334Y-50928571D01*
X52785715Y-50880952D01*
X52690477Y-50833333D01*
X52500000Y-50833333D01*
X52404762Y-50880952D01*
X52357143Y-50928571D01*
X52309524Y-51023810D01*
X53738096Y-50785714D02*
X53738096Y-51452381D01*
X53500000Y-50404762D02*
X53261905Y-51119048D01*
X53880953Y-51119048D01*
X54738096Y-51452381D02*
X54261905Y-51452381D01*
X54261905Y-50452381D01*
X44690238Y-120452381D02*
X44785477Y-120452381D01*
X44880715Y-120500000D01*
X44928334Y-120547619D01*
X44975953Y-120642857D01*
X45023572Y-120833333D01*
X45023572Y-121071429D01*
X44975953Y-121261905D01*
X44928334Y-121357143D01*
X44880715Y-121404762D01*
X44785477Y-121452381D01*
X44690238Y-121452381D01*
X44595000Y-121404762D01*
X44547381Y-121357143D01*
X44499762Y-121261905D01*
X44452143Y-121071429D01*
X44452143Y-120833333D01*
X44499762Y-120642857D01*
X44547381Y-120547619D01*
X44595000Y-120500000D01*
X44690238Y-120452381D01*
X45880715Y-120452381D02*
X45690238Y-120452381D01*
X45595000Y-120500000D01*
X45547381Y-120547619D01*
X45452143Y-120690476D01*
X45404524Y-120880952D01*
X45404524Y-121261905D01*
X45452143Y-121357143D01*
X45499762Y-121404762D01*
X45595000Y-121452381D01*
X45785477Y-121452381D01*
X45880715Y-121404762D01*
X45928334Y-121357143D01*
X45975953Y-121261905D01*
X45975953Y-121023810D01*
X45928334Y-120928571D01*
X45880715Y-120880952D01*
X45785477Y-120833333D01*
X45595000Y-120833333D01*
X45499762Y-120880952D01*
X45452143Y-120928571D01*
X45404524Y-121023810D01*
X46833096Y-120785714D02*
X46833096Y-121452381D01*
X46595000Y-120404762D02*
X46356905Y-121119048D01*
X46975953Y-121119048D01*
X47833096Y-121452381D02*
X47356905Y-121452381D01*
X47356905Y-120452381D01*
X72595238Y-120452381D02*
X72690477Y-120452381D01*
X72785715Y-120500000D01*
X72833334Y-120547619D01*
X72880953Y-120642857D01*
X72928572Y-120833333D01*
X72928572Y-121071429D01*
X72880953Y-121261905D01*
X72833334Y-121357143D01*
X72785715Y-121404762D01*
X72690477Y-121452381D01*
X72595238Y-121452381D01*
X72500000Y-121404762D01*
X72452381Y-121357143D01*
X72404762Y-121261905D01*
X72357143Y-121071429D01*
X72357143Y-120833333D01*
X72404762Y-120642857D01*
X72452381Y-120547619D01*
X72500000Y-120500000D01*
X72595238Y-120452381D01*
X73785715Y-120452381D02*
X73595238Y-120452381D01*
X73500000Y-120500000D01*
X73452381Y-120547619D01*
X73357143Y-120690476D01*
X73309524Y-120880952D01*
X73309524Y-121261905D01*
X73357143Y-121357143D01*
X73404762Y-121404762D01*
X73500000Y-121452381D01*
X73690477Y-121452381D01*
X73785715Y-121404762D01*
X73833334Y-121357143D01*
X73880953Y-121261905D01*
X73880953Y-121023810D01*
X73833334Y-120928571D01*
X73785715Y-120880952D01*
X73690477Y-120833333D01*
X73500000Y-120833333D01*
X73404762Y-120880952D01*
X73357143Y-120928571D01*
X73309524Y-121023810D01*
X74738096Y-120785714D02*
X74738096Y-121452381D01*
X74500000Y-120404762D02*
X74261905Y-121119048D01*
X74880953Y-121119048D01*
X75738096Y-121452381D02*
X75261905Y-121452381D01*
X75261905Y-120452381D01*
X100595238Y-120452381D02*
X100690477Y-120452381D01*
X100785715Y-120500000D01*
X100833334Y-120547619D01*
X100880953Y-120642857D01*
X100928572Y-120833333D01*
X100928572Y-121071429D01*
X100880953Y-121261905D01*
X100833334Y-121357143D01*
X100785715Y-121404762D01*
X100690477Y-121452381D01*
X100595238Y-121452381D01*
X100500000Y-121404762D01*
X100452381Y-121357143D01*
X100404762Y-121261905D01*
X100357143Y-121071429D01*
X100357143Y-120833333D01*
X100404762Y-120642857D01*
X100452381Y-120547619D01*
X100500000Y-120500000D01*
X100595238Y-120452381D01*
X101785715Y-120452381D02*
X101595238Y-120452381D01*
X101500000Y-120500000D01*
X101452381Y-120547619D01*
X101357143Y-120690476D01*
X101309524Y-120880952D01*
X101309524Y-121261905D01*
X101357143Y-121357143D01*
X101404762Y-121404762D01*
X101500000Y-121452381D01*
X101690477Y-121452381D01*
X101785715Y-121404762D01*
X101833334Y-121357143D01*
X101880953Y-121261905D01*
X101880953Y-121023810D01*
X101833334Y-120928571D01*
X101785715Y-120880952D01*
X101690477Y-120833333D01*
X101500000Y-120833333D01*
X101404762Y-120880952D01*
X101357143Y-120928571D01*
X101309524Y-121023810D01*
X102738096Y-120785714D02*
X102738096Y-121452381D01*
X102500000Y-120404762D02*
X102261905Y-121119048D01*
X102880953Y-121119048D01*
X103738096Y-121452381D02*
X103261905Y-121452381D01*
X103261905Y-120452381D01*
X35880952Y-126497619D02*
X35833333Y-126592857D01*
X35785714Y-126640476D01*
X35690476Y-126688095D01*
X35642857Y-126688095D01*
X35547619Y-126640476D01*
X35500000Y-126592857D01*
X35452381Y-126497619D01*
X35452381Y-126307142D01*
X35500000Y-126211904D01*
X35547619Y-126164285D01*
X35642857Y-126116666D01*
X35690476Y-126116666D01*
X35785714Y-126164285D01*
X35833333Y-126211904D01*
X35880952Y-126307142D01*
X35880952Y-126497619D01*
X35928571Y-126592857D01*
X35976190Y-126640476D01*
X36071429Y-126688095D01*
X36261905Y-126688095D01*
X36357143Y-126640476D01*
X36404762Y-126592857D01*
X36452381Y-126497619D01*
X36452381Y-126307142D01*
X36404762Y-126211904D01*
X36357143Y-126164285D01*
X36261905Y-126116666D01*
X36071429Y-126116666D01*
X35976190Y-126164285D01*
X35928571Y-126211904D01*
X35880952Y-126307142D01*
X35785714Y-125259523D02*
X36452381Y-125259523D01*
X35404762Y-125497619D02*
X36119048Y-125735714D01*
X36119048Y-125116666D01*
X35452381Y-124259523D02*
X35452381Y-124735714D01*
X35928571Y-124783333D01*
X35880952Y-124735714D01*
X35833333Y-124640476D01*
X35833333Y-124402380D01*
X35880952Y-124307142D01*
X35928571Y-124259523D01*
X36023810Y-124211904D01*
X36261905Y-124211904D01*
X36357143Y-124259523D01*
X36404762Y-124307142D01*
X36452381Y-124402380D01*
X36452381Y-124640476D01*
X36404762Y-124735714D01*
X36357143Y-124783333D01*
X39880952Y-126497619D02*
X39833333Y-126592857D01*
X39785714Y-126640476D01*
X39690476Y-126688095D01*
X39642857Y-126688095D01*
X39547619Y-126640476D01*
X39500000Y-126592857D01*
X39452381Y-126497619D01*
X39452381Y-126307142D01*
X39500000Y-126211904D01*
X39547619Y-126164285D01*
X39642857Y-126116666D01*
X39690476Y-126116666D01*
X39785714Y-126164285D01*
X39833333Y-126211904D01*
X39880952Y-126307142D01*
X39880952Y-126497619D01*
X39928571Y-126592857D01*
X39976190Y-126640476D01*
X40071429Y-126688095D01*
X40261905Y-126688095D01*
X40357143Y-126640476D01*
X40404762Y-126592857D01*
X40452381Y-126497619D01*
X40452381Y-126307142D01*
X40404762Y-126211904D01*
X40357143Y-126164285D01*
X40261905Y-126116666D01*
X40071429Y-126116666D01*
X39976190Y-126164285D01*
X39928571Y-126211904D01*
X39880952Y-126307142D01*
X39785714Y-125259523D02*
X40452381Y-125259523D01*
X39404762Y-125497619D02*
X40119048Y-125735714D01*
X40119048Y-125116666D01*
X39452381Y-124259523D02*
X39452381Y-124735714D01*
X39928571Y-124783333D01*
X39880952Y-124735714D01*
X39833333Y-124640476D01*
X39833333Y-124402380D01*
X39880952Y-124307142D01*
X39928571Y-124259523D01*
X40023810Y-124211904D01*
X40261905Y-124211904D01*
X40357143Y-124259523D01*
X40404762Y-124307142D01*
X40452381Y-124402380D01*
X40452381Y-124640476D01*
X40404762Y-124735714D01*
X40357143Y-124783333D01*
X51880952Y-126497619D02*
X51833333Y-126592857D01*
X51785714Y-126640476D01*
X51690476Y-126688095D01*
X51642857Y-126688095D01*
X51547619Y-126640476D01*
X51500000Y-126592857D01*
X51452381Y-126497619D01*
X51452381Y-126307142D01*
X51500000Y-126211904D01*
X51547619Y-126164285D01*
X51642857Y-126116666D01*
X51690476Y-126116666D01*
X51785714Y-126164285D01*
X51833333Y-126211904D01*
X51880952Y-126307142D01*
X51880952Y-126497619D01*
X51928571Y-126592857D01*
X51976190Y-126640476D01*
X52071429Y-126688095D01*
X52261905Y-126688095D01*
X52357143Y-126640476D01*
X52404762Y-126592857D01*
X52452381Y-126497619D01*
X52452381Y-126307142D01*
X52404762Y-126211904D01*
X52357143Y-126164285D01*
X52261905Y-126116666D01*
X52071429Y-126116666D01*
X51976190Y-126164285D01*
X51928571Y-126211904D01*
X51880952Y-126307142D01*
X51785714Y-125259523D02*
X52452381Y-125259523D01*
X51404762Y-125497619D02*
X52119048Y-125735714D01*
X52119048Y-125116666D01*
X51452381Y-124259523D02*
X51452381Y-124735714D01*
X51928571Y-124783333D01*
X51880952Y-124735714D01*
X51833333Y-124640476D01*
X51833333Y-124402380D01*
X51880952Y-124307142D01*
X51928571Y-124259523D01*
X52023810Y-124211904D01*
X52261905Y-124211904D01*
X52357143Y-124259523D01*
X52404762Y-124307142D01*
X52452381Y-124402380D01*
X52452381Y-124640476D01*
X52404762Y-124735714D01*
X52357143Y-124783333D01*
X55880952Y-126497619D02*
X55833333Y-126592857D01*
X55785714Y-126640476D01*
X55690476Y-126688095D01*
X55642857Y-126688095D01*
X55547619Y-126640476D01*
X55500000Y-126592857D01*
X55452381Y-126497619D01*
X55452381Y-126307142D01*
X55500000Y-126211904D01*
X55547619Y-126164285D01*
X55642857Y-126116666D01*
X55690476Y-126116666D01*
X55785714Y-126164285D01*
X55833333Y-126211904D01*
X55880952Y-126307142D01*
X55880952Y-126497619D01*
X55928571Y-126592857D01*
X55976190Y-126640476D01*
X56071429Y-126688095D01*
X56261905Y-126688095D01*
X56357143Y-126640476D01*
X56404762Y-126592857D01*
X56452381Y-126497619D01*
X56452381Y-126307142D01*
X56404762Y-126211904D01*
X56357143Y-126164285D01*
X56261905Y-126116666D01*
X56071429Y-126116666D01*
X55976190Y-126164285D01*
X55928571Y-126211904D01*
X55880952Y-126307142D01*
X55785714Y-125259523D02*
X56452381Y-125259523D01*
X55404762Y-125497619D02*
X56119048Y-125735714D01*
X56119048Y-125116666D01*
X55452381Y-124259523D02*
X55452381Y-124735714D01*
X55928571Y-124783333D01*
X55880952Y-124735714D01*
X55833333Y-124640476D01*
X55833333Y-124402380D01*
X55880952Y-124307142D01*
X55928571Y-124259523D01*
X56023810Y-124211904D01*
X56261905Y-124211904D01*
X56357143Y-124259523D01*
X56404762Y-124307142D01*
X56452381Y-124402380D01*
X56452381Y-124640476D01*
X56404762Y-124735714D01*
X56357143Y-124783333D01*
X63880952Y-126497619D02*
X63833333Y-126592857D01*
X63785714Y-126640476D01*
X63690476Y-126688095D01*
X63642857Y-126688095D01*
X63547619Y-126640476D01*
X63500000Y-126592857D01*
X63452381Y-126497619D01*
X63452381Y-126307142D01*
X63500000Y-126211904D01*
X63547619Y-126164285D01*
X63642857Y-126116666D01*
X63690476Y-126116666D01*
X63785714Y-126164285D01*
X63833333Y-126211904D01*
X63880952Y-126307142D01*
X63880952Y-126497619D01*
X63928571Y-126592857D01*
X63976190Y-126640476D01*
X64071429Y-126688095D01*
X64261905Y-126688095D01*
X64357143Y-126640476D01*
X64404762Y-126592857D01*
X64452381Y-126497619D01*
X64452381Y-126307142D01*
X64404762Y-126211904D01*
X64357143Y-126164285D01*
X64261905Y-126116666D01*
X64071429Y-126116666D01*
X63976190Y-126164285D01*
X63928571Y-126211904D01*
X63880952Y-126307142D01*
X63785714Y-125259523D02*
X64452381Y-125259523D01*
X63404762Y-125497619D02*
X64119048Y-125735714D01*
X64119048Y-125116666D01*
X63452381Y-124259523D02*
X63452381Y-124735714D01*
X63928571Y-124783333D01*
X63880952Y-124735714D01*
X63833333Y-124640476D01*
X63833333Y-124402380D01*
X63880952Y-124307142D01*
X63928571Y-124259523D01*
X64023810Y-124211904D01*
X64261905Y-124211904D01*
X64357143Y-124259523D01*
X64404762Y-124307142D01*
X64452381Y-124402380D01*
X64452381Y-124640476D01*
X64404762Y-124735714D01*
X64357143Y-124783333D01*
X67880952Y-126497619D02*
X67833333Y-126592857D01*
X67785714Y-126640476D01*
X67690476Y-126688095D01*
X67642857Y-126688095D01*
X67547619Y-126640476D01*
X67500000Y-126592857D01*
X67452381Y-126497619D01*
X67452381Y-126307142D01*
X67500000Y-126211904D01*
X67547619Y-126164285D01*
X67642857Y-126116666D01*
X67690476Y-126116666D01*
X67785714Y-126164285D01*
X67833333Y-126211904D01*
X67880952Y-126307142D01*
X67880952Y-126497619D01*
X67928571Y-126592857D01*
X67976190Y-126640476D01*
X68071429Y-126688095D01*
X68261905Y-126688095D01*
X68357143Y-126640476D01*
X68404762Y-126592857D01*
X68452381Y-126497619D01*
X68452381Y-126307142D01*
X68404762Y-126211904D01*
X68357143Y-126164285D01*
X68261905Y-126116666D01*
X68071429Y-126116666D01*
X67976190Y-126164285D01*
X67928571Y-126211904D01*
X67880952Y-126307142D01*
X67785714Y-125259523D02*
X68452381Y-125259523D01*
X67404762Y-125497619D02*
X68119048Y-125735714D01*
X68119048Y-125116666D01*
X67452381Y-124259523D02*
X67452381Y-124735714D01*
X67928571Y-124783333D01*
X67880952Y-124735714D01*
X67833333Y-124640476D01*
X67833333Y-124402380D01*
X67880952Y-124307142D01*
X67928571Y-124259523D01*
X68023810Y-124211904D01*
X68261905Y-124211904D01*
X68357143Y-124259523D01*
X68404762Y-124307142D01*
X68452381Y-124402380D01*
X68452381Y-124640476D01*
X68404762Y-124735714D01*
X68357143Y-124783333D01*
X79880952Y-126497619D02*
X79833333Y-126592857D01*
X79785714Y-126640476D01*
X79690476Y-126688095D01*
X79642857Y-126688095D01*
X79547619Y-126640476D01*
X79500000Y-126592857D01*
X79452381Y-126497619D01*
X79452381Y-126307142D01*
X79500000Y-126211904D01*
X79547619Y-126164285D01*
X79642857Y-126116666D01*
X79690476Y-126116666D01*
X79785714Y-126164285D01*
X79833333Y-126211904D01*
X79880952Y-126307142D01*
X79880952Y-126497619D01*
X79928571Y-126592857D01*
X79976190Y-126640476D01*
X80071429Y-126688095D01*
X80261905Y-126688095D01*
X80357143Y-126640476D01*
X80404762Y-126592857D01*
X80452381Y-126497619D01*
X80452381Y-126307142D01*
X80404762Y-126211904D01*
X80357143Y-126164285D01*
X80261905Y-126116666D01*
X80071429Y-126116666D01*
X79976190Y-126164285D01*
X79928571Y-126211904D01*
X79880952Y-126307142D01*
X79785714Y-125259523D02*
X80452381Y-125259523D01*
X79404762Y-125497619D02*
X80119048Y-125735714D01*
X80119048Y-125116666D01*
X79452381Y-124259523D02*
X79452381Y-124735714D01*
X79928571Y-124783333D01*
X79880952Y-124735714D01*
X79833333Y-124640476D01*
X79833333Y-124402380D01*
X79880952Y-124307142D01*
X79928571Y-124259523D01*
X80023810Y-124211904D01*
X80261905Y-124211904D01*
X80357143Y-124259523D01*
X80404762Y-124307142D01*
X80452381Y-124402380D01*
X80452381Y-124640476D01*
X80404762Y-124735714D01*
X80357143Y-124783333D01*
X83880952Y-126497619D02*
X83833333Y-126592857D01*
X83785714Y-126640476D01*
X83690476Y-126688095D01*
X83642857Y-126688095D01*
X83547619Y-126640476D01*
X83500000Y-126592857D01*
X83452381Y-126497619D01*
X83452381Y-126307142D01*
X83500000Y-126211904D01*
X83547619Y-126164285D01*
X83642857Y-126116666D01*
X83690476Y-126116666D01*
X83785714Y-126164285D01*
X83833333Y-126211904D01*
X83880952Y-126307142D01*
X83880952Y-126497619D01*
X83928571Y-126592857D01*
X83976190Y-126640476D01*
X84071429Y-126688095D01*
X84261905Y-126688095D01*
X84357143Y-126640476D01*
X84404762Y-126592857D01*
X84452381Y-126497619D01*
X84452381Y-126307142D01*
X84404762Y-126211904D01*
X84357143Y-126164285D01*
X84261905Y-126116666D01*
X84071429Y-126116666D01*
X83976190Y-126164285D01*
X83928571Y-126211904D01*
X83880952Y-126307142D01*
X83785714Y-125259523D02*
X84452381Y-125259523D01*
X83404762Y-125497619D02*
X84119048Y-125735714D01*
X84119048Y-125116666D01*
X83452381Y-124259523D02*
X83452381Y-124735714D01*
X83928571Y-124783333D01*
X83880952Y-124735714D01*
X83833333Y-124640476D01*
X83833333Y-124402380D01*
X83880952Y-124307142D01*
X83928571Y-124259523D01*
X84023810Y-124211904D01*
X84261905Y-124211904D01*
X84357143Y-124259523D01*
X84404762Y-124307142D01*
X84452381Y-124402380D01*
X84452381Y-124640476D01*
X84404762Y-124735714D01*
X84357143Y-124783333D01*
X91880952Y-126497619D02*
X91833333Y-126592857D01*
X91785714Y-126640476D01*
X91690476Y-126688095D01*
X91642857Y-126688095D01*
X91547619Y-126640476D01*
X91500000Y-126592857D01*
X91452381Y-126497619D01*
X91452381Y-126307142D01*
X91500000Y-126211904D01*
X91547619Y-126164285D01*
X91642857Y-126116666D01*
X91690476Y-126116666D01*
X91785714Y-126164285D01*
X91833333Y-126211904D01*
X91880952Y-126307142D01*
X91880952Y-126497619D01*
X91928571Y-126592857D01*
X91976190Y-126640476D01*
X92071429Y-126688095D01*
X92261905Y-126688095D01*
X92357143Y-126640476D01*
X92404762Y-126592857D01*
X92452381Y-126497619D01*
X92452381Y-126307142D01*
X92404762Y-126211904D01*
X92357143Y-126164285D01*
X92261905Y-126116666D01*
X92071429Y-126116666D01*
X91976190Y-126164285D01*
X91928571Y-126211904D01*
X91880952Y-126307142D01*
X91785714Y-125259523D02*
X92452381Y-125259523D01*
X91404762Y-125497619D02*
X92119048Y-125735714D01*
X92119048Y-125116666D01*
X91452381Y-124259523D02*
X91452381Y-124735714D01*
X91928571Y-124783333D01*
X91880952Y-124735714D01*
X91833333Y-124640476D01*
X91833333Y-124402380D01*
X91880952Y-124307142D01*
X91928571Y-124259523D01*
X92023810Y-124211904D01*
X92261905Y-124211904D01*
X92357143Y-124259523D01*
X92404762Y-124307142D01*
X92452381Y-124402380D01*
X92452381Y-124640476D01*
X92404762Y-124735714D01*
X92357143Y-124783333D01*
X95880952Y-126497619D02*
X95833333Y-126592857D01*
X95785714Y-126640476D01*
X95690476Y-126688095D01*
X95642857Y-126688095D01*
X95547619Y-126640476D01*
X95500000Y-126592857D01*
X95452381Y-126497619D01*
X95452381Y-126307142D01*
X95500000Y-126211904D01*
X95547619Y-126164285D01*
X95642857Y-126116666D01*
X95690476Y-126116666D01*
X95785714Y-126164285D01*
X95833333Y-126211904D01*
X95880952Y-126307142D01*
X95880952Y-126497619D01*
X95928571Y-126592857D01*
X95976190Y-126640476D01*
X96071429Y-126688095D01*
X96261905Y-126688095D01*
X96357143Y-126640476D01*
X96404762Y-126592857D01*
X96452381Y-126497619D01*
X96452381Y-126307142D01*
X96404762Y-126211904D01*
X96357143Y-126164285D01*
X96261905Y-126116666D01*
X96071429Y-126116666D01*
X95976190Y-126164285D01*
X95928571Y-126211904D01*
X95880952Y-126307142D01*
X95785714Y-125259523D02*
X96452381Y-125259523D01*
X95404762Y-125497619D02*
X96119048Y-125735714D01*
X96119048Y-125116666D01*
X95452381Y-124259523D02*
X95452381Y-124735714D01*
X95928571Y-124783333D01*
X95880952Y-124735714D01*
X95833333Y-124640476D01*
X95833333Y-124402380D01*
X95880952Y-124307142D01*
X95928571Y-124259523D01*
X96023810Y-124211904D01*
X96261905Y-124211904D01*
X96357143Y-124259523D01*
X96404762Y-124307142D01*
X96452381Y-124402380D01*
X96452381Y-124640476D01*
X96404762Y-124735714D01*
X96357143Y-124783333D01*
X107880952Y-126497619D02*
X107833333Y-126592857D01*
X107785714Y-126640476D01*
X107690476Y-126688095D01*
X107642857Y-126688095D01*
X107547619Y-126640476D01*
X107500000Y-126592857D01*
X107452381Y-126497619D01*
X107452381Y-126307142D01*
X107500000Y-126211904D01*
X107547619Y-126164285D01*
X107642857Y-126116666D01*
X107690476Y-126116666D01*
X107785714Y-126164285D01*
X107833333Y-126211904D01*
X107880952Y-126307142D01*
X107880952Y-126497619D01*
X107928571Y-126592857D01*
X107976190Y-126640476D01*
X108071429Y-126688095D01*
X108261905Y-126688095D01*
X108357143Y-126640476D01*
X108404762Y-126592857D01*
X108452381Y-126497619D01*
X108452381Y-126307142D01*
X108404762Y-126211904D01*
X108357143Y-126164285D01*
X108261905Y-126116666D01*
X108071429Y-126116666D01*
X107976190Y-126164285D01*
X107928571Y-126211904D01*
X107880952Y-126307142D01*
X107785714Y-125259523D02*
X108452381Y-125259523D01*
X107404762Y-125497619D02*
X108119048Y-125735714D01*
X108119048Y-125116666D01*
X107452381Y-124259523D02*
X107452381Y-124735714D01*
X107928571Y-124783333D01*
X107880952Y-124735714D01*
X107833333Y-124640476D01*
X107833333Y-124402380D01*
X107880952Y-124307142D01*
X107928571Y-124259523D01*
X108023810Y-124211904D01*
X108261905Y-124211904D01*
X108357143Y-124259523D01*
X108404762Y-124307142D01*
X108452381Y-124402380D01*
X108452381Y-124640476D01*
X108404762Y-124735714D01*
X108357143Y-124783333D01*
X111880952Y-126497619D02*
X111833333Y-126592857D01*
X111785714Y-126640476D01*
X111690476Y-126688095D01*
X111642857Y-126688095D01*
X111547619Y-126640476D01*
X111500000Y-126592857D01*
X111452381Y-126497619D01*
X111452381Y-126307142D01*
X111500000Y-126211904D01*
X111547619Y-126164285D01*
X111642857Y-126116666D01*
X111690476Y-126116666D01*
X111785714Y-126164285D01*
X111833333Y-126211904D01*
X111880952Y-126307142D01*
X111880952Y-126497619D01*
X111928571Y-126592857D01*
X111976190Y-126640476D01*
X112071429Y-126688095D01*
X112261905Y-126688095D01*
X112357143Y-126640476D01*
X112404762Y-126592857D01*
X112452381Y-126497619D01*
X112452381Y-126307142D01*
X112404762Y-126211904D01*
X112357143Y-126164285D01*
X112261905Y-126116666D01*
X112071429Y-126116666D01*
X111976190Y-126164285D01*
X111928571Y-126211904D01*
X111880952Y-126307142D01*
X111785714Y-125259523D02*
X112452381Y-125259523D01*
X111404762Y-125497619D02*
X112119048Y-125735714D01*
X112119048Y-125116666D01*
X111452381Y-124259523D02*
X111452381Y-124735714D01*
X111928571Y-124783333D01*
X111880952Y-124735714D01*
X111833333Y-124640476D01*
X111833333Y-124402380D01*
X111880952Y-124307142D01*
X111928571Y-124259523D01*
X112023810Y-124211904D01*
X112261905Y-124211904D01*
X112357143Y-124259523D01*
X112404762Y-124307142D01*
X112452381Y-124402380D01*
X112452381Y-124640476D01*
X112404762Y-124735714D01*
X112357143Y-124783333D01*
X115902381Y-96380952D02*
X115807143Y-96333333D01*
X115759524Y-96285714D01*
X115711905Y-96190476D01*
X115711905Y-96142857D01*
X115759524Y-96047619D01*
X115807143Y-96000000D01*
X115902381Y-95952381D01*
X116092858Y-95952381D01*
X116188096Y-96000000D01*
X116235715Y-96047619D01*
X116283334Y-96142857D01*
X116283334Y-96190476D01*
X116235715Y-96285714D01*
X116188096Y-96333333D01*
X116092858Y-96380952D01*
X115902381Y-96380952D01*
X115807143Y-96428571D01*
X115759524Y-96476190D01*
X115711905Y-96571429D01*
X115711905Y-96761905D01*
X115759524Y-96857143D01*
X115807143Y-96904762D01*
X115902381Y-96952381D01*
X116092858Y-96952381D01*
X116188096Y-96904762D01*
X116235715Y-96857143D01*
X116283334Y-96761905D01*
X116283334Y-96571429D01*
X116235715Y-96476190D01*
X116188096Y-96428571D01*
X116092858Y-96380952D01*
X117140477Y-96285714D02*
X117140477Y-96952381D01*
X116902381Y-95904762D02*
X116664286Y-96619048D01*
X117283334Y-96619048D01*
X118140477Y-95952381D02*
X117664286Y-95952381D01*
X117616667Y-96428571D01*
X117664286Y-96380952D01*
X117759524Y-96333333D01*
X117997620Y-96333333D01*
X118092858Y-96380952D01*
X118140477Y-96428571D01*
X118188096Y-96523810D01*
X118188096Y-96761905D01*
X118140477Y-96857143D01*
X118092858Y-96904762D01*
X117997620Y-96952381D01*
X117759524Y-96952381D01*
X117664286Y-96904762D01*
X117616667Y-96857143D01*
X58880952Y-48497619D02*
X58833333Y-48592857D01*
X58785714Y-48640476D01*
X58690476Y-48688095D01*
X58642857Y-48688095D01*
X58547619Y-48640476D01*
X58500000Y-48592857D01*
X58452381Y-48497619D01*
X58452381Y-48307142D01*
X58500000Y-48211904D01*
X58547619Y-48164285D01*
X58642857Y-48116666D01*
X58690476Y-48116666D01*
X58785714Y-48164285D01*
X58833333Y-48211904D01*
X58880952Y-48307142D01*
X58880952Y-48497619D01*
X58928571Y-48592857D01*
X58976190Y-48640476D01*
X59071429Y-48688095D01*
X59261905Y-48688095D01*
X59357143Y-48640476D01*
X59404762Y-48592857D01*
X59452381Y-48497619D01*
X59452381Y-48307142D01*
X59404762Y-48211904D01*
X59357143Y-48164285D01*
X59261905Y-48116666D01*
X59071429Y-48116666D01*
X58976190Y-48164285D01*
X58928571Y-48211904D01*
X58880952Y-48307142D01*
X58785714Y-47259523D02*
X59452381Y-47259523D01*
X58404762Y-47497619D02*
X59119048Y-47735714D01*
X59119048Y-47116666D01*
X58452381Y-46259523D02*
X58452381Y-46735714D01*
X58928571Y-46783333D01*
X58880952Y-46735714D01*
X58833333Y-46640476D01*
X58833333Y-46402380D01*
X58880952Y-46307142D01*
X58928571Y-46259523D01*
X59023810Y-46211904D01*
X59261905Y-46211904D01*
X59357143Y-46259523D01*
X59404762Y-46307142D01*
X59452381Y-46402380D01*
X59452381Y-46640476D01*
X59404762Y-46735714D01*
X59357143Y-46783333D01*
X66880952Y-48497619D02*
X66833333Y-48592857D01*
X66785714Y-48640476D01*
X66690476Y-48688095D01*
X66642857Y-48688095D01*
X66547619Y-48640476D01*
X66500000Y-48592857D01*
X66452381Y-48497619D01*
X66452381Y-48307142D01*
X66500000Y-48211904D01*
X66547619Y-48164285D01*
X66642857Y-48116666D01*
X66690476Y-48116666D01*
X66785714Y-48164285D01*
X66833333Y-48211904D01*
X66880952Y-48307142D01*
X66880952Y-48497619D01*
X66928571Y-48592857D01*
X66976190Y-48640476D01*
X67071429Y-48688095D01*
X67261905Y-48688095D01*
X67357143Y-48640476D01*
X67404762Y-48592857D01*
X67452381Y-48497619D01*
X67452381Y-48307142D01*
X67404762Y-48211904D01*
X67357143Y-48164285D01*
X67261905Y-48116666D01*
X67071429Y-48116666D01*
X66976190Y-48164285D01*
X66928571Y-48211904D01*
X66880952Y-48307142D01*
X66785714Y-47259523D02*
X67452381Y-47259523D01*
X66404762Y-47497619D02*
X67119048Y-47735714D01*
X67119048Y-47116666D01*
X66452381Y-46259523D02*
X66452381Y-46735714D01*
X66928571Y-46783333D01*
X66880952Y-46735714D01*
X66833333Y-46640476D01*
X66833333Y-46402380D01*
X66880952Y-46307142D01*
X66928571Y-46259523D01*
X67023810Y-46211904D01*
X67261905Y-46211904D01*
X67357143Y-46259523D01*
X67404762Y-46307142D01*
X67452381Y-46402380D01*
X67452381Y-46640476D01*
X67404762Y-46735714D01*
X67357143Y-46783333D01*
X62880952Y-48497619D02*
X62833333Y-48592857D01*
X62785714Y-48640476D01*
X62690476Y-48688095D01*
X62642857Y-48688095D01*
X62547619Y-48640476D01*
X62500000Y-48592857D01*
X62452381Y-48497619D01*
X62452381Y-48307142D01*
X62500000Y-48211904D01*
X62547619Y-48164285D01*
X62642857Y-48116666D01*
X62690476Y-48116666D01*
X62785714Y-48164285D01*
X62833333Y-48211904D01*
X62880952Y-48307142D01*
X62880952Y-48497619D01*
X62928571Y-48592857D01*
X62976190Y-48640476D01*
X63071429Y-48688095D01*
X63261905Y-48688095D01*
X63357143Y-48640476D01*
X63404762Y-48592857D01*
X63452381Y-48497619D01*
X63452381Y-48307142D01*
X63404762Y-48211904D01*
X63357143Y-48164285D01*
X63261905Y-48116666D01*
X63071429Y-48116666D01*
X62976190Y-48164285D01*
X62928571Y-48211904D01*
X62880952Y-48307142D01*
X62785714Y-47259523D02*
X63452381Y-47259523D01*
X62404762Y-47497619D02*
X63119048Y-47735714D01*
X63119048Y-47116666D01*
X62452381Y-46259523D02*
X62452381Y-46735714D01*
X62928571Y-46783333D01*
X62880952Y-46735714D01*
X62833333Y-46640476D01*
X62833333Y-46402380D01*
X62880952Y-46307142D01*
X62928571Y-46259523D01*
X63023810Y-46211904D01*
X63261905Y-46211904D01*
X63357143Y-46259523D01*
X63404762Y-46307142D01*
X63452381Y-46402380D01*
X63452381Y-46640476D01*
X63404762Y-46735714D01*
X63357143Y-46783333D01*
X78880952Y-48497619D02*
X78833333Y-48592857D01*
X78785714Y-48640476D01*
X78690476Y-48688095D01*
X78642857Y-48688095D01*
X78547619Y-48640476D01*
X78500000Y-48592857D01*
X78452381Y-48497619D01*
X78452381Y-48307142D01*
X78500000Y-48211904D01*
X78547619Y-48164285D01*
X78642857Y-48116666D01*
X78690476Y-48116666D01*
X78785714Y-48164285D01*
X78833333Y-48211904D01*
X78880952Y-48307142D01*
X78880952Y-48497619D01*
X78928571Y-48592857D01*
X78976190Y-48640476D01*
X79071429Y-48688095D01*
X79261905Y-48688095D01*
X79357143Y-48640476D01*
X79404762Y-48592857D01*
X79452381Y-48497619D01*
X79452381Y-48307142D01*
X79404762Y-48211904D01*
X79357143Y-48164285D01*
X79261905Y-48116666D01*
X79071429Y-48116666D01*
X78976190Y-48164285D01*
X78928571Y-48211904D01*
X78880952Y-48307142D01*
X78785714Y-47259523D02*
X79452381Y-47259523D01*
X78404762Y-47497619D02*
X79119048Y-47735714D01*
X79119048Y-47116666D01*
X78452381Y-46259523D02*
X78452381Y-46735714D01*
X78928571Y-46783333D01*
X78880952Y-46735714D01*
X78833333Y-46640476D01*
X78833333Y-46402380D01*
X78880952Y-46307142D01*
X78928571Y-46259523D01*
X79023810Y-46211904D01*
X79261905Y-46211904D01*
X79357143Y-46259523D01*
X79404762Y-46307142D01*
X79452381Y-46402380D01*
X79452381Y-46640476D01*
X79404762Y-46735714D01*
X79357143Y-46783333D01*
X94880952Y-48497619D02*
X94833333Y-48592857D01*
X94785714Y-48640476D01*
X94690476Y-48688095D01*
X94642857Y-48688095D01*
X94547619Y-48640476D01*
X94500000Y-48592857D01*
X94452381Y-48497619D01*
X94452381Y-48307142D01*
X94500000Y-48211904D01*
X94547619Y-48164285D01*
X94642857Y-48116666D01*
X94690476Y-48116666D01*
X94785714Y-48164285D01*
X94833333Y-48211904D01*
X94880952Y-48307142D01*
X94880952Y-48497619D01*
X94928571Y-48592857D01*
X94976190Y-48640476D01*
X95071429Y-48688095D01*
X95261905Y-48688095D01*
X95357143Y-48640476D01*
X95404762Y-48592857D01*
X95452381Y-48497619D01*
X95452381Y-48307142D01*
X95404762Y-48211904D01*
X95357143Y-48164285D01*
X95261905Y-48116666D01*
X95071429Y-48116666D01*
X94976190Y-48164285D01*
X94928571Y-48211904D01*
X94880952Y-48307142D01*
X94785714Y-47259523D02*
X95452381Y-47259523D01*
X94404762Y-47497619D02*
X95119048Y-47735714D01*
X95119048Y-47116666D01*
X94452381Y-46259523D02*
X94452381Y-46735714D01*
X94928571Y-46783333D01*
X94880952Y-46735714D01*
X94833333Y-46640476D01*
X94833333Y-46402380D01*
X94880952Y-46307142D01*
X94928571Y-46259523D01*
X95023810Y-46211904D01*
X95261905Y-46211904D01*
X95357143Y-46259523D01*
X95404762Y-46307142D01*
X95452381Y-46402380D01*
X95452381Y-46640476D01*
X95404762Y-46735714D01*
X95357143Y-46783333D01*
X48880952Y-60047619D02*
X48833333Y-60142857D01*
X48785714Y-60190476D01*
X48690476Y-60238095D01*
X48642857Y-60238095D01*
X48547619Y-60190476D01*
X48500000Y-60142857D01*
X48452381Y-60047619D01*
X48452381Y-59857142D01*
X48500000Y-59761904D01*
X48547619Y-59714285D01*
X48642857Y-59666666D01*
X48690476Y-59666666D01*
X48785714Y-59714285D01*
X48833333Y-59761904D01*
X48880952Y-59857142D01*
X48880952Y-60047619D01*
X48928571Y-60142857D01*
X48976190Y-60190476D01*
X49071429Y-60238095D01*
X49261905Y-60238095D01*
X49357143Y-60190476D01*
X49404762Y-60142857D01*
X49452381Y-60047619D01*
X49452381Y-59857142D01*
X49404762Y-59761904D01*
X49357143Y-59714285D01*
X49261905Y-59666666D01*
X49071429Y-59666666D01*
X48976190Y-59714285D01*
X48928571Y-59761904D01*
X48880952Y-59857142D01*
X48785714Y-58809523D02*
X49452381Y-58809523D01*
X48404762Y-59047619D02*
X49119048Y-59285714D01*
X49119048Y-58666666D01*
X48452381Y-57809523D02*
X48452381Y-58285714D01*
X48928571Y-58333333D01*
X48880952Y-58285714D01*
X48833333Y-58190476D01*
X48833333Y-57952380D01*
X48880952Y-57857142D01*
X48928571Y-57809523D01*
X49023810Y-57761904D01*
X49261905Y-57761904D01*
X49357143Y-57809523D01*
X49404762Y-57857142D01*
X49452381Y-57952380D01*
X49452381Y-58190476D01*
X49404762Y-58285714D01*
X49357143Y-58333333D01*
X52880952Y-60047619D02*
X52833333Y-60142857D01*
X52785714Y-60190476D01*
X52690476Y-60238095D01*
X52642857Y-60238095D01*
X52547619Y-60190476D01*
X52500000Y-60142857D01*
X52452381Y-60047619D01*
X52452381Y-59857142D01*
X52500000Y-59761904D01*
X52547619Y-59714285D01*
X52642857Y-59666666D01*
X52690476Y-59666666D01*
X52785714Y-59714285D01*
X52833333Y-59761904D01*
X52880952Y-59857142D01*
X52880952Y-60047619D01*
X52928571Y-60142857D01*
X52976190Y-60190476D01*
X53071429Y-60238095D01*
X53261905Y-60238095D01*
X53357143Y-60190476D01*
X53404762Y-60142857D01*
X53452381Y-60047619D01*
X53452381Y-59857142D01*
X53404762Y-59761904D01*
X53357143Y-59714285D01*
X53261905Y-59666666D01*
X53071429Y-59666666D01*
X52976190Y-59714285D01*
X52928571Y-59761904D01*
X52880952Y-59857142D01*
X52785714Y-58809523D02*
X53452381Y-58809523D01*
X52404762Y-59047619D02*
X53119048Y-59285714D01*
X53119048Y-58666666D01*
X52452381Y-57809523D02*
X52452381Y-58285714D01*
X52928571Y-58333333D01*
X52880952Y-58285714D01*
X52833333Y-58190476D01*
X52833333Y-57952380D01*
X52880952Y-57857142D01*
X52928571Y-57809523D01*
X53023810Y-57761904D01*
X53261905Y-57761904D01*
X53357143Y-57809523D01*
X53404762Y-57857142D01*
X53452381Y-57952380D01*
X53452381Y-58190476D01*
X53404762Y-58285714D01*
X53357143Y-58333333D01*
X56880952Y-60047619D02*
X56833333Y-60142857D01*
X56785714Y-60190476D01*
X56690476Y-60238095D01*
X56642857Y-60238095D01*
X56547619Y-60190476D01*
X56500000Y-60142857D01*
X56452381Y-60047619D01*
X56452381Y-59857142D01*
X56500000Y-59761904D01*
X56547619Y-59714285D01*
X56642857Y-59666666D01*
X56690476Y-59666666D01*
X56785714Y-59714285D01*
X56833333Y-59761904D01*
X56880952Y-59857142D01*
X56880952Y-60047619D01*
X56928571Y-60142857D01*
X56976190Y-60190476D01*
X57071429Y-60238095D01*
X57261905Y-60238095D01*
X57357143Y-60190476D01*
X57404762Y-60142857D01*
X57452381Y-60047619D01*
X57452381Y-59857142D01*
X57404762Y-59761904D01*
X57357143Y-59714285D01*
X57261905Y-59666666D01*
X57071429Y-59666666D01*
X56976190Y-59714285D01*
X56928571Y-59761904D01*
X56880952Y-59857142D01*
X56785714Y-58809523D02*
X57452381Y-58809523D01*
X56404762Y-59047619D02*
X57119048Y-59285714D01*
X57119048Y-58666666D01*
X56452381Y-57809523D02*
X56452381Y-58285714D01*
X56928571Y-58333333D01*
X56880952Y-58285714D01*
X56833333Y-58190476D01*
X56833333Y-57952380D01*
X56880952Y-57857142D01*
X56928571Y-57809523D01*
X57023810Y-57761904D01*
X57261905Y-57761904D01*
X57357143Y-57809523D01*
X57404762Y-57857142D01*
X57452381Y-57952380D01*
X57452381Y-58190476D01*
X57404762Y-58285714D01*
X57357143Y-58333333D01*
X60880952Y-60047619D02*
X60833333Y-60142857D01*
X60785714Y-60190476D01*
X60690476Y-60238095D01*
X60642857Y-60238095D01*
X60547619Y-60190476D01*
X60500000Y-60142857D01*
X60452381Y-60047619D01*
X60452381Y-59857142D01*
X60500000Y-59761904D01*
X60547619Y-59714285D01*
X60642857Y-59666666D01*
X60690476Y-59666666D01*
X60785714Y-59714285D01*
X60833333Y-59761904D01*
X60880952Y-59857142D01*
X60880952Y-60047619D01*
X60928571Y-60142857D01*
X60976190Y-60190476D01*
X61071429Y-60238095D01*
X61261905Y-60238095D01*
X61357143Y-60190476D01*
X61404762Y-60142857D01*
X61452381Y-60047619D01*
X61452381Y-59857142D01*
X61404762Y-59761904D01*
X61357143Y-59714285D01*
X61261905Y-59666666D01*
X61071429Y-59666666D01*
X60976190Y-59714285D01*
X60928571Y-59761904D01*
X60880952Y-59857142D01*
X60785714Y-58809523D02*
X61452381Y-58809523D01*
X60404762Y-59047619D02*
X61119048Y-59285714D01*
X61119048Y-58666666D01*
X60452381Y-57809523D02*
X60452381Y-58285714D01*
X60928571Y-58333333D01*
X60880952Y-58285714D01*
X60833333Y-58190476D01*
X60833333Y-57952380D01*
X60880952Y-57857142D01*
X60928571Y-57809523D01*
X61023810Y-57761904D01*
X61261905Y-57761904D01*
X61357143Y-57809523D01*
X61404762Y-57857142D01*
X61452381Y-57952380D01*
X61452381Y-58190476D01*
X61404762Y-58285714D01*
X61357143Y-58333333D01*
X115902381Y-92880952D02*
X115807143Y-92833333D01*
X115759524Y-92785714D01*
X115711905Y-92690476D01*
X115711905Y-92642857D01*
X115759524Y-92547619D01*
X115807143Y-92500000D01*
X115902381Y-92452381D01*
X116092858Y-92452381D01*
X116188096Y-92500000D01*
X116235715Y-92547619D01*
X116283334Y-92642857D01*
X116283334Y-92690476D01*
X116235715Y-92785714D01*
X116188096Y-92833333D01*
X116092858Y-92880952D01*
X115902381Y-92880952D01*
X115807143Y-92928571D01*
X115759524Y-92976190D01*
X115711905Y-93071429D01*
X115711905Y-93261905D01*
X115759524Y-93357143D01*
X115807143Y-93404762D01*
X115902381Y-93452381D01*
X116092858Y-93452381D01*
X116188096Y-93404762D01*
X116235715Y-93357143D01*
X116283334Y-93261905D01*
X116283334Y-93071429D01*
X116235715Y-92976190D01*
X116188096Y-92928571D01*
X116092858Y-92880952D01*
X117140477Y-92785714D02*
X117140477Y-93452381D01*
X116902381Y-92404762D02*
X116664286Y-93119048D01*
X117283334Y-93119048D01*
X118140477Y-92452381D02*
X117664286Y-92452381D01*
X117616667Y-92928571D01*
X117664286Y-92880952D01*
X117759524Y-92833333D01*
X117997620Y-92833333D01*
X118092858Y-92880952D01*
X118140477Y-92928571D01*
X118188096Y-93023810D01*
X118188096Y-93261905D01*
X118140477Y-93357143D01*
X118092858Y-93404762D01*
X117997620Y-93452381D01*
X117759524Y-93452381D01*
X117664286Y-93404762D01*
X117616667Y-93357143D01*
X194166667Y-110619048D02*
X194166667Y-110142857D01*
X194452381Y-110714286D02*
X193452381Y-110380953D01*
X194452381Y-110047619D01*
X194547619Y-109047619D02*
X194500000Y-109142857D01*
X194404762Y-109238095D01*
X194261905Y-109380952D01*
X194214286Y-109476191D01*
X194214286Y-109571429D01*
X194452381Y-109523810D02*
X194404762Y-109619048D01*
X194309524Y-109714286D01*
X194119048Y-109761905D01*
X193785714Y-109761905D01*
X193595238Y-109714286D01*
X193500000Y-109619048D01*
X193452381Y-109523810D01*
X193452381Y-109333333D01*
X193500000Y-109238095D01*
X193595238Y-109142857D01*
X193785714Y-109095238D01*
X194119048Y-109095238D01*
X194309524Y-109142857D01*
X194404762Y-109238095D01*
X194452381Y-109333333D01*
X194452381Y-109523810D01*
X193976190Y-108476191D02*
X194452381Y-108476191D01*
X193452381Y-108809524D02*
X193976190Y-108476191D01*
X193452381Y-108142857D01*
X193547619Y-107857143D02*
X193500000Y-107809524D01*
X193452381Y-107714286D01*
X193452381Y-107476190D01*
X193500000Y-107380952D01*
X193547619Y-107333333D01*
X193642857Y-107285714D01*
X193738095Y-107285714D01*
X193880952Y-107333333D01*
X194452381Y-107904762D01*
X194452381Y-107285714D01*
X194452381Y-106333333D02*
X194452381Y-106904762D01*
X194452381Y-106619048D02*
X193452381Y-106619048D01*
X193595238Y-106714286D01*
X193690476Y-106809524D01*
X193738095Y-106904762D01*
X193547619Y-105952381D02*
X193500000Y-105904762D01*
X193452381Y-105809524D01*
X193452381Y-105571428D01*
X193500000Y-105476190D01*
X193547619Y-105428571D01*
X193642857Y-105380952D01*
X193738095Y-105380952D01*
X193880952Y-105428571D01*
X194452381Y-106000000D01*
X194452381Y-105380952D01*
X184738095Y-42182381D02*
X184738095Y-41182381D01*
X185071429Y-41896667D01*
X185404762Y-41182381D01*
X185404762Y-42182381D01*
X186357143Y-41182381D02*
X185880952Y-41182381D01*
X185833333Y-41658571D01*
X185880952Y-41610952D01*
X185976190Y-41563333D01*
X186214286Y-41563333D01*
X186309524Y-41610952D01*
X186357143Y-41658571D01*
X186404762Y-41753810D01*
X186404762Y-41991905D01*
X186357143Y-42087143D01*
X186309524Y-42134762D01*
X186214286Y-42182381D01*
X185976190Y-42182381D01*
X185880952Y-42134762D01*
X185833333Y-42087143D01*
X187261905Y-41515714D02*
X187261905Y-42182381D01*
X187023809Y-41134762D02*
X186785714Y-41849048D01*
X187404762Y-41849048D01*
X187738095Y-41277619D02*
X187785714Y-41230000D01*
X187880952Y-41182381D01*
X188119048Y-41182381D01*
X188214286Y-41230000D01*
X188261905Y-41277619D01*
X188309524Y-41372857D01*
X188309524Y-41468095D01*
X188261905Y-41610952D01*
X187690476Y-42182381D01*
X188309524Y-42182381D01*
X188738095Y-42182381D02*
X188738095Y-41182381D01*
X188738095Y-41658571D02*
X189309524Y-41658571D01*
X189309524Y-42182381D02*
X189309524Y-41182381D01*
X189547619Y-42277619D02*
X190309524Y-42277619D01*
X190547619Y-42182381D02*
X190547619Y-41182381D01*
X190547619Y-41658571D02*
X191119048Y-41658571D01*
X191119048Y-42182381D02*
X191119048Y-41182381D01*
X191976191Y-42134762D02*
X191880953Y-42182381D01*
X191690476Y-42182381D01*
X191595238Y-42134762D01*
X191547619Y-42039524D01*
X191547619Y-41658571D01*
X191595238Y-41563333D01*
X191690476Y-41515714D01*
X191880953Y-41515714D01*
X191976191Y-41563333D01*
X192023810Y-41658571D01*
X192023810Y-41753810D01*
X191547619Y-41849048D01*
X192880953Y-42182381D02*
X192880953Y-41658571D01*
X192833334Y-41563333D01*
X192738096Y-41515714D01*
X192547619Y-41515714D01*
X192452381Y-41563333D01*
X192880953Y-42134762D02*
X192785715Y-42182381D01*
X192547619Y-42182381D01*
X192452381Y-42134762D01*
X192404762Y-42039524D01*
X192404762Y-41944286D01*
X192452381Y-41849048D01*
X192547619Y-41801429D01*
X192785715Y-41801429D01*
X192880953Y-41753810D01*
X193785715Y-42182381D02*
X193785715Y-41182381D01*
X193785715Y-42134762D02*
X193690477Y-42182381D01*
X193500000Y-42182381D01*
X193404762Y-42134762D01*
X193357143Y-42087143D01*
X193309524Y-41991905D01*
X193309524Y-41706190D01*
X193357143Y-41610952D01*
X193404762Y-41563333D01*
X193500000Y-41515714D01*
X193690477Y-41515714D01*
X193785715Y-41563333D01*
X194642858Y-42134762D02*
X194547620Y-42182381D01*
X194357143Y-42182381D01*
X194261905Y-42134762D01*
X194214286Y-42039524D01*
X194214286Y-41658571D01*
X194261905Y-41563333D01*
X194357143Y-41515714D01*
X194547620Y-41515714D01*
X194642858Y-41563333D01*
X194690477Y-41658571D01*
X194690477Y-41753810D01*
X194214286Y-41849048D01*
X195119048Y-42182381D02*
X195119048Y-41515714D01*
X195119048Y-41706190D02*
X195166667Y-41610952D01*
X195214286Y-41563333D01*
X195309524Y-41515714D01*
X195404763Y-41515714D01*
X184738095Y-79182381D02*
X184738095Y-78182381D01*
X185071429Y-78896667D01*
X185404762Y-78182381D01*
X185404762Y-79182381D01*
X186357143Y-78182381D02*
X185880952Y-78182381D01*
X185833333Y-78658571D01*
X185880952Y-78610952D01*
X185976190Y-78563333D01*
X186214286Y-78563333D01*
X186309524Y-78610952D01*
X186357143Y-78658571D01*
X186404762Y-78753810D01*
X186404762Y-78991905D01*
X186357143Y-79087143D01*
X186309524Y-79134762D01*
X186214286Y-79182381D01*
X185976190Y-79182381D01*
X185880952Y-79134762D01*
X185833333Y-79087143D01*
X187261905Y-78515714D02*
X187261905Y-79182381D01*
X187023809Y-78134762D02*
X186785714Y-78849048D01*
X187404762Y-78849048D01*
X187738095Y-78277619D02*
X187785714Y-78230000D01*
X187880952Y-78182381D01*
X188119048Y-78182381D01*
X188214286Y-78230000D01*
X188261905Y-78277619D01*
X188309524Y-78372857D01*
X188309524Y-78468095D01*
X188261905Y-78610952D01*
X187690476Y-79182381D01*
X188309524Y-79182381D01*
X188738095Y-79182381D02*
X188738095Y-78182381D01*
X188738095Y-78658571D02*
X189309524Y-78658571D01*
X189309524Y-79182381D02*
X189309524Y-78182381D01*
X189547619Y-79277619D02*
X190309524Y-79277619D01*
X190547619Y-79182381D02*
X190547619Y-78182381D01*
X190547619Y-78658571D02*
X191119048Y-78658571D01*
X191119048Y-79182381D02*
X191119048Y-78182381D01*
X191976191Y-79134762D02*
X191880953Y-79182381D01*
X191690476Y-79182381D01*
X191595238Y-79134762D01*
X191547619Y-79039524D01*
X191547619Y-78658571D01*
X191595238Y-78563333D01*
X191690476Y-78515714D01*
X191880953Y-78515714D01*
X191976191Y-78563333D01*
X192023810Y-78658571D01*
X192023810Y-78753810D01*
X191547619Y-78849048D01*
X192880953Y-79182381D02*
X192880953Y-78658571D01*
X192833334Y-78563333D01*
X192738096Y-78515714D01*
X192547619Y-78515714D01*
X192452381Y-78563333D01*
X192880953Y-79134762D02*
X192785715Y-79182381D01*
X192547619Y-79182381D01*
X192452381Y-79134762D01*
X192404762Y-79039524D01*
X192404762Y-78944286D01*
X192452381Y-78849048D01*
X192547619Y-78801429D01*
X192785715Y-78801429D01*
X192880953Y-78753810D01*
X193785715Y-79182381D02*
X193785715Y-78182381D01*
X193785715Y-79134762D02*
X193690477Y-79182381D01*
X193500000Y-79182381D01*
X193404762Y-79134762D01*
X193357143Y-79087143D01*
X193309524Y-78991905D01*
X193309524Y-78706190D01*
X193357143Y-78610952D01*
X193404762Y-78563333D01*
X193500000Y-78515714D01*
X193690477Y-78515714D01*
X193785715Y-78563333D01*
X194642858Y-79134762D02*
X194547620Y-79182381D01*
X194357143Y-79182381D01*
X194261905Y-79134762D01*
X194214286Y-79039524D01*
X194214286Y-78658571D01*
X194261905Y-78563333D01*
X194357143Y-78515714D01*
X194547620Y-78515714D01*
X194642858Y-78563333D01*
X194690477Y-78658571D01*
X194690477Y-78753810D01*
X194214286Y-78849048D01*
X195119048Y-79182381D02*
X195119048Y-78515714D01*
X195119048Y-78706190D02*
X195166667Y-78610952D01*
X195214286Y-78563333D01*
X195309524Y-78515714D01*
X195404763Y-78515714D01*
X244087095Y-118452381D02*
X244087095Y-117452381D01*
X244325190Y-117452381D01*
X244468048Y-117500000D01*
X244563286Y-117595238D01*
X244610905Y-117690476D01*
X244658524Y-117880952D01*
X244658524Y-118023810D01*
X244610905Y-118214286D01*
X244563286Y-118309524D01*
X244468048Y-118404762D01*
X244325190Y-118452381D01*
X244087095Y-118452381D01*
X38083334Y-46952381D02*
X38083334Y-47666667D01*
X38035714Y-47809524D01*
X37940476Y-47904762D01*
X37797619Y-47952381D01*
X37702381Y-47952381D01*
X38988096Y-47285714D02*
X38988096Y-47952381D01*
X38559524Y-47285714D02*
X38559524Y-47809524D01*
X38607143Y-47904762D01*
X38702381Y-47952381D01*
X38845239Y-47952381D01*
X38940477Y-47904762D01*
X38988096Y-47857143D01*
X39464286Y-47952381D02*
X39464286Y-47285714D01*
X39464286Y-47380952D02*
X39511905Y-47333333D01*
X39607143Y-47285714D01*
X39750001Y-47285714D01*
X39845239Y-47333333D01*
X39892858Y-47428571D01*
X39892858Y-47952381D01*
X39892858Y-47428571D02*
X39940477Y-47333333D01*
X40035715Y-47285714D01*
X40178572Y-47285714D01*
X40273810Y-47333333D01*
X40321429Y-47428571D01*
X40321429Y-47952381D01*
X40797619Y-47285714D02*
X40797619Y-48285714D01*
X40797619Y-47333333D02*
X40892857Y-47285714D01*
X41083334Y-47285714D01*
X41178572Y-47333333D01*
X41226191Y-47380952D01*
X41273810Y-47476190D01*
X41273810Y-47761905D01*
X41226191Y-47857143D01*
X41178572Y-47904762D01*
X41083334Y-47952381D01*
X40892857Y-47952381D01*
X40797619Y-47904762D01*
X42083334Y-47904762D02*
X41988096Y-47952381D01*
X41797619Y-47952381D01*
X41702381Y-47904762D01*
X41654762Y-47809524D01*
X41654762Y-47428571D01*
X41702381Y-47333333D01*
X41797619Y-47285714D01*
X41988096Y-47285714D01*
X42083334Y-47333333D01*
X42130953Y-47428571D01*
X42130953Y-47523810D01*
X41654762Y-47619048D01*
X42559524Y-47952381D02*
X42559524Y-47285714D01*
X42559524Y-47476190D02*
X42607143Y-47380952D01*
X42654762Y-47333333D01*
X42750000Y-47285714D01*
X42845239Y-47285714D01*
X32333334Y-46952381D02*
X32333334Y-47666667D01*
X32285714Y-47809524D01*
X32190476Y-47904762D01*
X32047619Y-47952381D01*
X31952381Y-47952381D01*
X33238096Y-47285714D02*
X33238096Y-47952381D01*
X32809524Y-47285714D02*
X32809524Y-47809524D01*
X32857143Y-47904762D01*
X32952381Y-47952381D01*
X33095239Y-47952381D01*
X33190477Y-47904762D01*
X33238096Y-47857143D01*
X33714286Y-47952381D02*
X33714286Y-47285714D01*
X33714286Y-47380952D02*
X33761905Y-47333333D01*
X33857143Y-47285714D01*
X34000001Y-47285714D01*
X34095239Y-47333333D01*
X34142858Y-47428571D01*
X34142858Y-47952381D01*
X34142858Y-47428571D02*
X34190477Y-47333333D01*
X34285715Y-47285714D01*
X34428572Y-47285714D01*
X34523810Y-47333333D01*
X34571429Y-47428571D01*
X34571429Y-47952381D01*
X35047619Y-47285714D02*
X35047619Y-48285714D01*
X35047619Y-47333333D02*
X35142857Y-47285714D01*
X35333334Y-47285714D01*
X35428572Y-47333333D01*
X35476191Y-47380952D01*
X35523810Y-47476190D01*
X35523810Y-47761905D01*
X35476191Y-47857143D01*
X35428572Y-47904762D01*
X35333334Y-47952381D01*
X35142857Y-47952381D01*
X35047619Y-47904762D01*
X36333334Y-47904762D02*
X36238096Y-47952381D01*
X36047619Y-47952381D01*
X35952381Y-47904762D01*
X35904762Y-47809524D01*
X35904762Y-47428571D01*
X35952381Y-47333333D01*
X36047619Y-47285714D01*
X36238096Y-47285714D01*
X36333334Y-47333333D01*
X36380953Y-47428571D01*
X36380953Y-47523810D01*
X35904762Y-47619048D01*
X36809524Y-47952381D02*
X36809524Y-47285714D01*
X36809524Y-47476190D02*
X36857143Y-47380952D01*
X36904762Y-47333333D01*
X37000000Y-47285714D01*
X37095239Y-47285714D01*
X247842381Y-107166666D02*
X248556667Y-107166666D01*
X248699524Y-107214286D01*
X248794762Y-107309524D01*
X248842381Y-107452381D01*
X248842381Y-107547619D01*
X248175714Y-106261904D02*
X248842381Y-106261904D01*
X248175714Y-106690476D02*
X248699524Y-106690476D01*
X248794762Y-106642857D01*
X248842381Y-106547619D01*
X248842381Y-106404761D01*
X248794762Y-106309523D01*
X248747143Y-106261904D01*
X248842381Y-105785714D02*
X248175714Y-105785714D01*
X248270952Y-105785714D02*
X248223333Y-105738095D01*
X248175714Y-105642857D01*
X248175714Y-105499999D01*
X248223333Y-105404761D01*
X248318571Y-105357142D01*
X248842381Y-105357142D01*
X248318571Y-105357142D02*
X248223333Y-105309523D01*
X248175714Y-105214285D01*
X248175714Y-105071428D01*
X248223333Y-104976190D01*
X248318571Y-104928571D01*
X248842381Y-104928571D01*
X248175714Y-104452381D02*
X249175714Y-104452381D01*
X248223333Y-104452381D02*
X248175714Y-104357143D01*
X248175714Y-104166666D01*
X248223333Y-104071428D01*
X248270952Y-104023809D01*
X248366190Y-103976190D01*
X248651905Y-103976190D01*
X248747143Y-104023809D01*
X248794762Y-104071428D01*
X248842381Y-104166666D01*
X248842381Y-104357143D01*
X248794762Y-104452381D01*
X248794762Y-103166666D02*
X248842381Y-103261904D01*
X248842381Y-103452381D01*
X248794762Y-103547619D01*
X248699524Y-103595238D01*
X248318571Y-103595238D01*
X248223333Y-103547619D01*
X248175714Y-103452381D01*
X248175714Y-103261904D01*
X248223333Y-103166666D01*
X248318571Y-103119047D01*
X248413810Y-103119047D01*
X248509048Y-103595238D01*
X248842381Y-102690476D02*
X248175714Y-102690476D01*
X248366190Y-102690476D02*
X248270952Y-102642857D01*
X248223333Y-102595238D01*
X248175714Y-102500000D01*
X248175714Y-102404761D01*
X201062381Y-107166666D02*
X201776667Y-107166666D01*
X201919524Y-107214286D01*
X202014762Y-107309524D01*
X202062381Y-107452381D01*
X202062381Y-107547619D01*
X201395714Y-106261904D02*
X202062381Y-106261904D01*
X201395714Y-106690476D02*
X201919524Y-106690476D01*
X202014762Y-106642857D01*
X202062381Y-106547619D01*
X202062381Y-106404761D01*
X202014762Y-106309523D01*
X201967143Y-106261904D01*
X202062381Y-105785714D02*
X201395714Y-105785714D01*
X201490952Y-105785714D02*
X201443333Y-105738095D01*
X201395714Y-105642857D01*
X201395714Y-105499999D01*
X201443333Y-105404761D01*
X201538571Y-105357142D01*
X202062381Y-105357142D01*
X201538571Y-105357142D02*
X201443333Y-105309523D01*
X201395714Y-105214285D01*
X201395714Y-105071428D01*
X201443333Y-104976190D01*
X201538571Y-104928571D01*
X202062381Y-104928571D01*
X201395714Y-104452381D02*
X202395714Y-104452381D01*
X201443333Y-104452381D02*
X201395714Y-104357143D01*
X201395714Y-104166666D01*
X201443333Y-104071428D01*
X201490952Y-104023809D01*
X201586190Y-103976190D01*
X201871905Y-103976190D01*
X201967143Y-104023809D01*
X202014762Y-104071428D01*
X202062381Y-104166666D01*
X202062381Y-104357143D01*
X202014762Y-104452381D01*
X202014762Y-103166666D02*
X202062381Y-103261904D01*
X202062381Y-103452381D01*
X202014762Y-103547619D01*
X201919524Y-103595238D01*
X201538571Y-103595238D01*
X201443333Y-103547619D01*
X201395714Y-103452381D01*
X201395714Y-103261904D01*
X201443333Y-103166666D01*
X201538571Y-103119047D01*
X201633810Y-103119047D01*
X201729048Y-103595238D01*
X202062381Y-102690476D02*
X201395714Y-102690476D01*
X201586190Y-102690476D02*
X201490952Y-102642857D01*
X201443333Y-102595238D01*
X201395714Y-102500000D01*
X201395714Y-102404761D01*
X104595238Y-29428571D02*
X104738095Y-29476190D01*
X104785714Y-29523810D01*
X104833333Y-29619048D01*
X104833333Y-29761905D01*
X104785714Y-29857143D01*
X104738095Y-29904762D01*
X104642857Y-29952381D01*
X104261904Y-29952381D01*
X104261904Y-28952381D01*
X104595238Y-28952381D01*
X104690476Y-29000000D01*
X104738095Y-29047619D01*
X104785714Y-29142857D01*
X104785714Y-29238095D01*
X104738095Y-29333333D01*
X104690476Y-29380952D01*
X104595238Y-29428571D01*
X104261904Y-29428571D01*
X105214285Y-29666667D02*
X105690476Y-29666667D01*
X105119047Y-29952381D02*
X105452380Y-28952381D01*
X105785714Y-29952381D01*
X106690476Y-29952381D02*
X106357142Y-29476190D01*
X106119047Y-29952381D02*
X106119047Y-28952381D01*
X106500000Y-28952381D01*
X106595238Y-29000000D01*
X106642857Y-29047619D01*
X106690476Y-29142857D01*
X106690476Y-29285714D01*
X106642857Y-29380952D01*
X106595238Y-29428571D01*
X106500000Y-29476190D01*
X106119047Y-29476190D01*
X107690476Y-29952381D02*
X107357142Y-29476190D01*
X107119047Y-29952381D02*
X107119047Y-28952381D01*
X107500000Y-28952381D01*
X107595238Y-29000000D01*
X107642857Y-29047619D01*
X107690476Y-29142857D01*
X107690476Y-29285714D01*
X107642857Y-29380952D01*
X107595238Y-29428571D01*
X107500000Y-29476190D01*
X107119047Y-29476190D01*
X108119047Y-29428571D02*
X108452381Y-29428571D01*
X108595238Y-29952381D02*
X108119047Y-29952381D01*
X108119047Y-28952381D01*
X108595238Y-28952381D01*
X109500000Y-29952381D02*
X109023809Y-29952381D01*
X109023809Y-28952381D01*
X109595238Y-30047619D02*
X110357143Y-30047619D01*
X110880953Y-28952381D02*
X110880953Y-29666667D01*
X110833333Y-29809524D01*
X110738095Y-29904762D01*
X110595238Y-29952381D01*
X110500000Y-29952381D01*
X111309524Y-29666667D02*
X111785715Y-29666667D01*
X111214286Y-29952381D02*
X111547619Y-28952381D01*
X111880953Y-29952381D01*
X112785715Y-29857143D02*
X112738096Y-29904762D01*
X112595239Y-29952381D01*
X112500001Y-29952381D01*
X112357143Y-29904762D01*
X112261905Y-29809524D01*
X112214286Y-29714286D01*
X112166667Y-29523810D01*
X112166667Y-29380952D01*
X112214286Y-29190476D01*
X112261905Y-29095238D01*
X112357143Y-29000000D01*
X112500001Y-28952381D01*
X112595239Y-28952381D01*
X112738096Y-29000000D01*
X112785715Y-29047619D01*
X113214286Y-29952381D02*
X113214286Y-28952381D01*
X113785715Y-29952381D02*
X113357143Y-29380952D01*
X113785715Y-28952381D02*
X113214286Y-29523810D01*
X262378571Y-143404762D02*
X262426190Y-143261905D01*
X262473810Y-143214286D01*
X262569048Y-143166667D01*
X262711905Y-143166667D01*
X262807143Y-143214286D01*
X262854762Y-143261905D01*
X262902381Y-143357143D01*
X262902381Y-143738096D01*
X261902381Y-143738096D01*
X261902381Y-143404762D01*
X261950000Y-143309524D01*
X261997619Y-143261905D01*
X262092857Y-143214286D01*
X262188095Y-143214286D01*
X262283333Y-143261905D01*
X262330952Y-143309524D01*
X262378571Y-143404762D01*
X262378571Y-143738096D01*
X262616667Y-142785715D02*
X262616667Y-142309524D01*
X262902381Y-142880953D02*
X261902381Y-142547620D01*
X262902381Y-142214286D01*
X262902381Y-141309524D02*
X262426190Y-141642858D01*
X262902381Y-141880953D02*
X261902381Y-141880953D01*
X261902381Y-141500000D01*
X261950000Y-141404762D01*
X261997619Y-141357143D01*
X262092857Y-141309524D01*
X262235714Y-141309524D01*
X262330952Y-141357143D01*
X262378571Y-141404762D01*
X262426190Y-141500000D01*
X262426190Y-141880953D01*
X262902381Y-140309524D02*
X262426190Y-140642858D01*
X262902381Y-140880953D02*
X261902381Y-140880953D01*
X261902381Y-140500000D01*
X261950000Y-140404762D01*
X261997619Y-140357143D01*
X262092857Y-140309524D01*
X262235714Y-140309524D01*
X262330952Y-140357143D01*
X262378571Y-140404762D01*
X262426190Y-140500000D01*
X262426190Y-140880953D01*
X262378571Y-139880953D02*
X262378571Y-139547619D01*
X262902381Y-139404762D02*
X262902381Y-139880953D01*
X261902381Y-139880953D01*
X261902381Y-139404762D01*
X262902381Y-138500000D02*
X262902381Y-138976191D01*
X261902381Y-138976191D01*
X262997619Y-138404762D02*
X262997619Y-137642857D01*
X261902381Y-137119047D02*
X262616667Y-137119047D01*
X262759524Y-137166667D01*
X262854762Y-137261905D01*
X262902381Y-137404762D01*
X262902381Y-137500000D01*
X262616667Y-136690476D02*
X262616667Y-136214285D01*
X262902381Y-136785714D02*
X261902381Y-136452381D01*
X262902381Y-136119047D01*
X262807143Y-135214285D02*
X262854762Y-135261904D01*
X262902381Y-135404761D01*
X262902381Y-135499999D01*
X262854762Y-135642857D01*
X262759524Y-135738095D01*
X262664286Y-135785714D01*
X262473810Y-135833333D01*
X262330952Y-135833333D01*
X262140476Y-135785714D01*
X262045238Y-135738095D01*
X261950000Y-135642857D01*
X261902381Y-135499999D01*
X261902381Y-135404761D01*
X261950000Y-135261904D01*
X261997619Y-135214285D01*
X262902381Y-134785714D02*
X261902381Y-134785714D01*
X262902381Y-134214285D02*
X262330952Y-134642857D01*
X261902381Y-134214285D02*
X262473810Y-134785714D01*
X262378571Y-39404762D02*
X262426190Y-39261905D01*
X262473810Y-39214286D01*
X262569048Y-39166667D01*
X262711905Y-39166667D01*
X262807143Y-39214286D01*
X262854762Y-39261905D01*
X262902381Y-39357143D01*
X262902381Y-39738096D01*
X261902381Y-39738096D01*
X261902381Y-39404762D01*
X261950000Y-39309524D01*
X261997619Y-39261905D01*
X262092857Y-39214286D01*
X262188095Y-39214286D01*
X262283333Y-39261905D01*
X262330952Y-39309524D01*
X262378571Y-39404762D01*
X262378571Y-39738096D01*
X262616667Y-38785715D02*
X262616667Y-38309524D01*
X262902381Y-38880953D02*
X261902381Y-38547620D01*
X262902381Y-38214286D01*
X262902381Y-37309524D02*
X262426190Y-37642858D01*
X262902381Y-37880953D02*
X261902381Y-37880953D01*
X261902381Y-37500000D01*
X261950000Y-37404762D01*
X261997619Y-37357143D01*
X262092857Y-37309524D01*
X262235714Y-37309524D01*
X262330952Y-37357143D01*
X262378571Y-37404762D01*
X262426190Y-37500000D01*
X262426190Y-37880953D01*
X262902381Y-36309524D02*
X262426190Y-36642858D01*
X262902381Y-36880953D02*
X261902381Y-36880953D01*
X261902381Y-36500000D01*
X261950000Y-36404762D01*
X261997619Y-36357143D01*
X262092857Y-36309524D01*
X262235714Y-36309524D01*
X262330952Y-36357143D01*
X262378571Y-36404762D01*
X262426190Y-36500000D01*
X262426190Y-36880953D01*
X262378571Y-35880953D02*
X262378571Y-35547619D01*
X262902381Y-35404762D02*
X262902381Y-35880953D01*
X261902381Y-35880953D01*
X261902381Y-35404762D01*
X262902381Y-34500000D02*
X262902381Y-34976191D01*
X261902381Y-34976191D01*
X262997619Y-34404762D02*
X262997619Y-33642857D01*
X261902381Y-33119047D02*
X262616667Y-33119047D01*
X262759524Y-33166667D01*
X262854762Y-33261905D01*
X262902381Y-33404762D01*
X262902381Y-33500000D01*
X262616667Y-32690476D02*
X262616667Y-32214285D01*
X262902381Y-32785714D02*
X261902381Y-32452381D01*
X262902381Y-32119047D01*
X262807143Y-31214285D02*
X262854762Y-31261904D01*
X262902381Y-31404761D01*
X262902381Y-31499999D01*
X262854762Y-31642857D01*
X262759524Y-31738095D01*
X262664286Y-31785714D01*
X262473810Y-31833333D01*
X262330952Y-31833333D01*
X262140476Y-31785714D01*
X262045238Y-31738095D01*
X261950000Y-31642857D01*
X261902381Y-31499999D01*
X261902381Y-31404761D01*
X261950000Y-31261904D01*
X261997619Y-31214285D01*
X262902381Y-30785714D02*
X261902381Y-30785714D01*
X262902381Y-30214285D02*
X262330952Y-30642857D01*
X261902381Y-30214285D02*
X262473810Y-30785714D01*
X194366667Y-103419048D02*
X194366667Y-102942857D01*
X194652381Y-103514286D02*
X193652381Y-103180953D01*
X194652381Y-102847619D01*
X194747619Y-101847619D02*
X194700000Y-101942857D01*
X194604762Y-102038095D01*
X194461905Y-102180952D01*
X194414286Y-102276191D01*
X194414286Y-102371429D01*
X194652381Y-102323810D02*
X194604762Y-102419048D01*
X194509524Y-102514286D01*
X194319048Y-102561905D01*
X193985714Y-102561905D01*
X193795238Y-102514286D01*
X193700000Y-102419048D01*
X193652381Y-102323810D01*
X193652381Y-102133333D01*
X193700000Y-102038095D01*
X193795238Y-101942857D01*
X193985714Y-101895238D01*
X194319048Y-101895238D01*
X194509524Y-101942857D01*
X194604762Y-102038095D01*
X194652381Y-102133333D01*
X194652381Y-102323810D01*
X194176190Y-101276191D02*
X194652381Y-101276191D01*
X193652381Y-101609524D02*
X194176190Y-101276191D01*
X193652381Y-100942857D01*
X193747619Y-100657143D02*
X193700000Y-100609524D01*
X193652381Y-100514286D01*
X193652381Y-100276190D01*
X193700000Y-100180952D01*
X193747619Y-100133333D01*
X193842857Y-100085714D01*
X193938095Y-100085714D01*
X194080952Y-100133333D01*
X194652381Y-100704762D01*
X194652381Y-100085714D01*
X194652381Y-99133333D02*
X194652381Y-99704762D01*
X194652381Y-99419048D02*
X193652381Y-99419048D01*
X193795238Y-99514286D01*
X193890476Y-99609524D01*
X193938095Y-99704762D01*
X193747619Y-98752381D02*
X193700000Y-98704762D01*
X193652381Y-98609524D01*
X193652381Y-98371428D01*
X193700000Y-98276190D01*
X193747619Y-98228571D01*
X193842857Y-98180952D01*
X193938095Y-98180952D01*
X194080952Y-98228571D01*
X194652381Y-98800000D01*
X194652381Y-98180952D01*
X258702381Y-123273809D02*
X258226190Y-123607143D01*
X258702381Y-123845238D02*
X257702381Y-123845238D01*
X257702381Y-123464285D01*
X257750000Y-123369047D01*
X257797619Y-123321428D01*
X257892857Y-123273809D01*
X258035714Y-123273809D01*
X258130952Y-123321428D01*
X258178571Y-123369047D01*
X258226190Y-123464285D01*
X258226190Y-123845238D01*
X257702381Y-122559523D02*
X258416667Y-122559523D01*
X258559524Y-122607143D01*
X258654762Y-122702381D01*
X258702381Y-122845238D01*
X258702381Y-122940476D01*
X258035714Y-121654761D02*
X258702381Y-121654761D01*
X257654762Y-121892857D02*
X258369048Y-122130952D01*
X258369048Y-121511904D01*
X257702381Y-120654761D02*
X257702381Y-121130952D01*
X258178571Y-121178571D01*
X258130952Y-121130952D01*
X258083333Y-121035714D01*
X258083333Y-120797618D01*
X258130952Y-120702380D01*
X258178571Y-120654761D01*
X258273810Y-120607142D01*
X258511905Y-120607142D01*
X258607143Y-120654761D01*
X258654762Y-120702380D01*
X258702381Y-120797618D01*
X258702381Y-121035714D01*
X258654762Y-121130952D01*
X258607143Y-121178571D01*
X66476191Y-39202381D02*
X66142857Y-38726190D01*
X65904762Y-39202381D02*
X65904762Y-38202381D01*
X66285715Y-38202381D01*
X66380953Y-38250000D01*
X66428572Y-38297619D01*
X66476191Y-38392857D01*
X66476191Y-38535714D01*
X66428572Y-38630952D01*
X66380953Y-38678571D01*
X66285715Y-38726190D01*
X65904762Y-38726190D01*
X67190477Y-38202381D02*
X67190477Y-38916667D01*
X67142857Y-39059524D01*
X67047619Y-39154762D01*
X66904762Y-39202381D01*
X66809524Y-39202381D01*
X68095239Y-38535714D02*
X68095239Y-39202381D01*
X67857143Y-38154762D02*
X67619048Y-38869048D01*
X68238096Y-38869048D01*
X69095239Y-38202381D02*
X68619048Y-38202381D01*
X68571429Y-38678571D01*
X68619048Y-38630952D01*
X68714286Y-38583333D01*
X68952382Y-38583333D01*
X69047620Y-38630952D01*
X69095239Y-38678571D01*
X69142858Y-38773810D01*
X69142858Y-39011905D01*
X69095239Y-39107143D01*
X69047620Y-39154762D01*
X68952382Y-39202381D01*
X68714286Y-39202381D01*
X68619048Y-39154762D01*
X68571429Y-39107143D01*
X49226191Y-39202381D02*
X48892857Y-38726190D01*
X48654762Y-39202381D02*
X48654762Y-38202381D01*
X49035715Y-38202381D01*
X49130953Y-38250000D01*
X49178572Y-38297619D01*
X49226191Y-38392857D01*
X49226191Y-38535714D01*
X49178572Y-38630952D01*
X49130953Y-38678571D01*
X49035715Y-38726190D01*
X48654762Y-38726190D01*
X49940477Y-38202381D02*
X49940477Y-38916667D01*
X49892857Y-39059524D01*
X49797619Y-39154762D01*
X49654762Y-39202381D01*
X49559524Y-39202381D01*
X50845239Y-38535714D02*
X50845239Y-39202381D01*
X50607143Y-38154762D02*
X50369048Y-38869048D01*
X50988096Y-38869048D01*
X51845239Y-38202381D02*
X51369048Y-38202381D01*
X51321429Y-38678571D01*
X51369048Y-38630952D01*
X51464286Y-38583333D01*
X51702382Y-38583333D01*
X51797620Y-38630952D01*
X51845239Y-38678571D01*
X51892858Y-38773810D01*
X51892858Y-39011905D01*
X51845239Y-39107143D01*
X51797620Y-39154762D01*
X51702382Y-39202381D01*
X51464286Y-39202381D01*
X51369048Y-39154762D01*
X51321429Y-39107143D01*
X32476191Y-39202381D02*
X32142857Y-38726190D01*
X31904762Y-39202381D02*
X31904762Y-38202381D01*
X32285715Y-38202381D01*
X32380953Y-38250000D01*
X32428572Y-38297619D01*
X32476191Y-38392857D01*
X32476191Y-38535714D01*
X32428572Y-38630952D01*
X32380953Y-38678571D01*
X32285715Y-38726190D01*
X31904762Y-38726190D01*
X33190477Y-38202381D02*
X33190477Y-38916667D01*
X33142857Y-39059524D01*
X33047619Y-39154762D01*
X32904762Y-39202381D01*
X32809524Y-39202381D01*
X34095239Y-38535714D02*
X34095239Y-39202381D01*
X33857143Y-38154762D02*
X33619048Y-38869048D01*
X34238096Y-38869048D01*
X35095239Y-38202381D02*
X34619048Y-38202381D01*
X34571429Y-38678571D01*
X34619048Y-38630952D01*
X34714286Y-38583333D01*
X34952382Y-38583333D01*
X35047620Y-38630952D01*
X35095239Y-38678571D01*
X35142858Y-38773810D01*
X35142858Y-39011905D01*
X35095239Y-39107143D01*
X35047620Y-39154762D01*
X34952382Y-39202381D01*
X34714286Y-39202381D01*
X34619048Y-39154762D01*
X34571429Y-39107143D01*
X258702381Y-52478809D02*
X258226190Y-52812143D01*
X258702381Y-53050238D02*
X257702381Y-53050238D01*
X257702381Y-52669285D01*
X257750000Y-52574047D01*
X257797619Y-52526428D01*
X257892857Y-52478809D01*
X258035714Y-52478809D01*
X258130952Y-52526428D01*
X258178571Y-52574047D01*
X258226190Y-52669285D01*
X258226190Y-53050238D01*
X257702381Y-51764523D02*
X258416667Y-51764523D01*
X258559524Y-51812143D01*
X258654762Y-51907381D01*
X258702381Y-52050238D01*
X258702381Y-52145476D01*
X258035714Y-50859761D02*
X258702381Y-50859761D01*
X257654762Y-51097857D02*
X258369048Y-51335952D01*
X258369048Y-50716904D01*
X257702381Y-49859761D02*
X257702381Y-50335952D01*
X258178571Y-50383571D01*
X258130952Y-50335952D01*
X258083333Y-50240714D01*
X258083333Y-50002618D01*
X258130952Y-49907380D01*
X258178571Y-49859761D01*
X258273810Y-49812142D01*
X258511905Y-49812142D01*
X258607143Y-49859761D01*
X258654762Y-49907380D01*
X258702381Y-50002618D01*
X258702381Y-50240714D01*
X258654762Y-50335952D01*
X258607143Y-50383571D01*
X258702381Y-86523809D02*
X258226190Y-86857143D01*
X258702381Y-87095238D02*
X257702381Y-87095238D01*
X257702381Y-86714285D01*
X257750000Y-86619047D01*
X257797619Y-86571428D01*
X257892857Y-86523809D01*
X258035714Y-86523809D01*
X258130952Y-86571428D01*
X258178571Y-86619047D01*
X258226190Y-86714285D01*
X258226190Y-87095238D01*
X257702381Y-85809523D02*
X258416667Y-85809523D01*
X258559524Y-85857143D01*
X258654762Y-85952381D01*
X258702381Y-86095238D01*
X258702381Y-86190476D01*
X258035714Y-84904761D02*
X258702381Y-84904761D01*
X257654762Y-85142857D02*
X258369048Y-85380952D01*
X258369048Y-84761904D01*
X257702381Y-83904761D02*
X257702381Y-84380952D01*
X258178571Y-84428571D01*
X258130952Y-84380952D01*
X258083333Y-84285714D01*
X258083333Y-84047618D01*
X258130952Y-83952380D01*
X258178571Y-83904761D01*
X258273810Y-83857142D01*
X258511905Y-83857142D01*
X258607143Y-83904761D01*
X258654762Y-83952380D01*
X258702381Y-84047618D01*
X258702381Y-84285714D01*
X258654762Y-84380952D01*
X258607143Y-84428571D01*
X66726191Y-135952381D02*
X66392857Y-135476190D01*
X66154762Y-135952381D02*
X66154762Y-134952381D01*
X66535715Y-134952381D01*
X66630953Y-135000000D01*
X66678572Y-135047619D01*
X66726191Y-135142857D01*
X66726191Y-135285714D01*
X66678572Y-135380952D01*
X66630953Y-135428571D01*
X66535715Y-135476190D01*
X66154762Y-135476190D01*
X67440477Y-134952381D02*
X67440477Y-135666667D01*
X67392857Y-135809524D01*
X67297619Y-135904762D01*
X67154762Y-135952381D01*
X67059524Y-135952381D01*
X68345239Y-135285714D02*
X68345239Y-135952381D01*
X68107143Y-134904762D02*
X67869048Y-135619048D01*
X68488096Y-135619048D01*
X69345239Y-134952381D02*
X68869048Y-134952381D01*
X68821429Y-135428571D01*
X68869048Y-135380952D01*
X68964286Y-135333333D01*
X69202382Y-135333333D01*
X69297620Y-135380952D01*
X69345239Y-135428571D01*
X69392858Y-135523810D01*
X69392858Y-135761905D01*
X69345239Y-135857143D01*
X69297620Y-135904762D01*
X69202382Y-135952381D01*
X68964286Y-135952381D01*
X68869048Y-135904762D01*
X68821429Y-135857143D01*
X100431191Y-135952381D02*
X100097857Y-135476190D01*
X99859762Y-135952381D02*
X99859762Y-134952381D01*
X100240715Y-134952381D01*
X100335953Y-135000000D01*
X100383572Y-135047619D01*
X100431191Y-135142857D01*
X100431191Y-135285714D01*
X100383572Y-135380952D01*
X100335953Y-135428571D01*
X100240715Y-135476190D01*
X99859762Y-135476190D01*
X101145477Y-134952381D02*
X101145477Y-135666667D01*
X101097857Y-135809524D01*
X101002619Y-135904762D01*
X100859762Y-135952381D01*
X100764524Y-135952381D01*
X102050239Y-135285714D02*
X102050239Y-135952381D01*
X101812143Y-134904762D02*
X101574048Y-135619048D01*
X102193096Y-135619048D01*
X103050239Y-134952381D02*
X102574048Y-134952381D01*
X102526429Y-135428571D01*
X102574048Y-135380952D01*
X102669286Y-135333333D01*
X102907382Y-135333333D01*
X103002620Y-135380952D01*
X103050239Y-135428571D01*
X103097858Y-135523810D01*
X103097858Y-135761905D01*
X103050239Y-135857143D01*
X103002620Y-135904762D01*
X102907382Y-135952381D01*
X102669286Y-135952381D01*
X102574048Y-135904762D01*
X102526429Y-135857143D01*
X117476191Y-135952381D02*
X117142857Y-135476190D01*
X116904762Y-135952381D02*
X116904762Y-134952381D01*
X117285715Y-134952381D01*
X117380953Y-135000000D01*
X117428572Y-135047619D01*
X117476191Y-135142857D01*
X117476191Y-135285714D01*
X117428572Y-135380952D01*
X117380953Y-135428571D01*
X117285715Y-135476190D01*
X116904762Y-135476190D01*
X118190477Y-134952381D02*
X118190477Y-135666667D01*
X118142857Y-135809524D01*
X118047619Y-135904762D01*
X117904762Y-135952381D01*
X117809524Y-135952381D01*
X119095239Y-135285714D02*
X119095239Y-135952381D01*
X118857143Y-134904762D02*
X118619048Y-135619048D01*
X119238096Y-135619048D01*
X120095239Y-134952381D02*
X119619048Y-134952381D01*
X119571429Y-135428571D01*
X119619048Y-135380952D01*
X119714286Y-135333333D01*
X119952382Y-135333333D01*
X120047620Y-135380952D01*
X120095239Y-135428571D01*
X120142858Y-135523810D01*
X120142858Y-135761905D01*
X120095239Y-135857143D01*
X120047620Y-135904762D01*
X119952382Y-135952381D01*
X119714286Y-135952381D01*
X119619048Y-135904762D01*
X119571429Y-135857143D01*
X26714286Y-120452381D02*
X26714286Y-119452381D01*
X27047620Y-120166667D01*
X27380953Y-119452381D01*
X27380953Y-120452381D01*
X28047619Y-119452381D02*
X28238096Y-119452381D01*
X28333334Y-119500000D01*
X28428572Y-119595238D01*
X28476191Y-119785714D01*
X28476191Y-120119048D01*
X28428572Y-120309524D01*
X28333334Y-120404762D01*
X28238096Y-120452381D01*
X28047619Y-120452381D01*
X27952381Y-120404762D01*
X27857143Y-120309524D01*
X27809524Y-120119048D01*
X27809524Y-119785714D01*
X27857143Y-119595238D01*
X27952381Y-119500000D01*
X28047619Y-119452381D01*
X28904762Y-119452381D02*
X28904762Y-120261905D01*
X28952381Y-120357143D01*
X29000000Y-120404762D01*
X29095238Y-120452381D01*
X29285715Y-120452381D01*
X29380953Y-120404762D01*
X29428572Y-120357143D01*
X29476191Y-120261905D01*
X29476191Y-119452381D01*
X29952381Y-120452381D02*
X29952381Y-119452381D01*
X30523810Y-120452381D01*
X30523810Y-119452381D01*
X30857143Y-119452381D02*
X31428572Y-119452381D01*
X31142857Y-120452381D02*
X31142857Y-119452381D01*
X121714286Y-120452381D02*
X121714286Y-119452381D01*
X122047620Y-120166667D01*
X122380953Y-119452381D01*
X122380953Y-120452381D01*
X123047619Y-119452381D02*
X123238096Y-119452381D01*
X123333334Y-119500000D01*
X123428572Y-119595238D01*
X123476191Y-119785714D01*
X123476191Y-120119048D01*
X123428572Y-120309524D01*
X123333334Y-120404762D01*
X123238096Y-120452381D01*
X123047619Y-120452381D01*
X122952381Y-120404762D01*
X122857143Y-120309524D01*
X122809524Y-120119048D01*
X122809524Y-119785714D01*
X122857143Y-119595238D01*
X122952381Y-119500000D01*
X123047619Y-119452381D01*
X123904762Y-119452381D02*
X123904762Y-120261905D01*
X123952381Y-120357143D01*
X124000000Y-120404762D01*
X124095238Y-120452381D01*
X124285715Y-120452381D01*
X124380953Y-120404762D01*
X124428572Y-120357143D01*
X124476191Y-120261905D01*
X124476191Y-119452381D01*
X124952381Y-120452381D02*
X124952381Y-119452381D01*
X125523810Y-120452381D01*
X125523810Y-119452381D01*
X125857143Y-119452381D02*
X126428572Y-119452381D01*
X126142857Y-120452381D02*
X126142857Y-119452381D01*
X241714286Y-130452381D02*
X241714286Y-129452381D01*
X242047620Y-130166667D01*
X242380953Y-129452381D01*
X242380953Y-130452381D01*
X243047619Y-129452381D02*
X243238096Y-129452381D01*
X243333334Y-129500000D01*
X243428572Y-129595238D01*
X243476191Y-129785714D01*
X243476191Y-130119048D01*
X243428572Y-130309524D01*
X243333334Y-130404762D01*
X243238096Y-130452381D01*
X243047619Y-130452381D01*
X242952381Y-130404762D01*
X242857143Y-130309524D01*
X242809524Y-130119048D01*
X242809524Y-129785714D01*
X242857143Y-129595238D01*
X242952381Y-129500000D01*
X243047619Y-129452381D01*
X243904762Y-129452381D02*
X243904762Y-130261905D01*
X243952381Y-130357143D01*
X244000000Y-130404762D01*
X244095238Y-130452381D01*
X244285715Y-130452381D01*
X244380953Y-130404762D01*
X244428572Y-130357143D01*
X244476191Y-130261905D01*
X244476191Y-129452381D01*
X244952381Y-130452381D02*
X244952381Y-129452381D01*
X245523810Y-130452381D01*
X245523810Y-129452381D01*
X245857143Y-129452381D02*
X246428572Y-129452381D01*
X246142857Y-130452381D02*
X246142857Y-129452381D01*
X241714286Y-52452381D02*
X241714286Y-51452381D01*
X242047620Y-52166667D01*
X242380953Y-51452381D01*
X242380953Y-52452381D01*
X243047619Y-51452381D02*
X243238096Y-51452381D01*
X243333334Y-51500000D01*
X243428572Y-51595238D01*
X243476191Y-51785714D01*
X243476191Y-52119048D01*
X243428572Y-52309524D01*
X243333334Y-52404762D01*
X243238096Y-52452381D01*
X243047619Y-52452381D01*
X242952381Y-52404762D01*
X242857143Y-52309524D01*
X242809524Y-52119048D01*
X242809524Y-51785714D01*
X242857143Y-51595238D01*
X242952381Y-51500000D01*
X243047619Y-51452381D01*
X243904762Y-51452381D02*
X243904762Y-52261905D01*
X243952381Y-52357143D01*
X244000000Y-52404762D01*
X244095238Y-52452381D01*
X244285715Y-52452381D01*
X244380953Y-52404762D01*
X244428572Y-52357143D01*
X244476191Y-52261905D01*
X244476191Y-51452381D01*
X244952381Y-52452381D02*
X244952381Y-51452381D01*
X245523810Y-52452381D01*
X245523810Y-51452381D01*
X245857143Y-51452381D02*
X246428572Y-51452381D01*
X246142857Y-52452381D02*
X246142857Y-51452381D01*
X121714286Y-52452381D02*
X121714286Y-51452381D01*
X122047620Y-52166667D01*
X122380953Y-51452381D01*
X122380953Y-52452381D01*
X123047619Y-51452381D02*
X123238096Y-51452381D01*
X123333334Y-51500000D01*
X123428572Y-51595238D01*
X123476191Y-51785714D01*
X123476191Y-52119048D01*
X123428572Y-52309524D01*
X123333334Y-52404762D01*
X123238096Y-52452381D01*
X123047619Y-52452381D01*
X122952381Y-52404762D01*
X122857143Y-52309524D01*
X122809524Y-52119048D01*
X122809524Y-51785714D01*
X122857143Y-51595238D01*
X122952381Y-51500000D01*
X123047619Y-51452381D01*
X123904762Y-51452381D02*
X123904762Y-52261905D01*
X123952381Y-52357143D01*
X124000000Y-52404762D01*
X124095238Y-52452381D01*
X124285715Y-52452381D01*
X124380953Y-52404762D01*
X124428572Y-52357143D01*
X124476191Y-52261905D01*
X124476191Y-51452381D01*
X124952381Y-52452381D02*
X124952381Y-51452381D01*
X125523810Y-52452381D01*
X125523810Y-51452381D01*
X125857143Y-51452381D02*
X126428572Y-51452381D01*
X126142857Y-52452381D02*
X126142857Y-51452381D01*
X26714286Y-52452381D02*
X26714286Y-51452381D01*
X27047620Y-52166667D01*
X27380953Y-51452381D01*
X27380953Y-52452381D01*
X28047619Y-51452381D02*
X28238096Y-51452381D01*
X28333334Y-51500000D01*
X28428572Y-51595238D01*
X28476191Y-51785714D01*
X28476191Y-52119048D01*
X28428572Y-52309524D01*
X28333334Y-52404762D01*
X28238096Y-52452381D01*
X28047619Y-52452381D01*
X27952381Y-52404762D01*
X27857143Y-52309524D01*
X27809524Y-52119048D01*
X27809524Y-51785714D01*
X27857143Y-51595238D01*
X27952381Y-51500000D01*
X28047619Y-51452381D01*
X28904762Y-51452381D02*
X28904762Y-52261905D01*
X28952381Y-52357143D01*
X29000000Y-52404762D01*
X29095238Y-52452381D01*
X29285715Y-52452381D01*
X29380953Y-52404762D01*
X29428572Y-52357143D01*
X29476191Y-52261905D01*
X29476191Y-51452381D01*
X29952381Y-52452381D02*
X29952381Y-51452381D01*
X30523810Y-52452381D01*
X30523810Y-51452381D01*
X30857143Y-51452381D02*
X31428572Y-51452381D01*
X31142857Y-52452381D02*
X31142857Y-51452381D01*
M02*
