G04 #@! TF.FileFunction,Paste,Top*
%FSLAX46Y46*%
G04 Gerber Fmt 4.6, Leading zero omitted, Abs format (unit mm)*
G04 Created by KiCad (PCBNEW 4.0.5-e0-6337~49~ubuntu16.04.1) date Mon Feb 20 15:27:01 2017*
%MOMM*%
%LPD*%
G01*
G04 APERTURE LIST*
%ADD10C,0.100000*%
%ADD11R,1.700000X0.900000*%
%ADD12R,1.000000X1.600000*%
%ADD13R,1.524000X2.032000*%
%ADD14R,0.640000X1.910000*%
%ADD15R,0.900000X1.700000*%
%ADD16R,2.032000X1.524000*%
G04 APERTURE END LIST*
D10*
D11*
X83000000Y-48900000D03*
X83000000Y-46000000D03*
D12*
X52000000Y-118000000D03*
X55000000Y-118000000D03*
X79500000Y-118000000D03*
X82500000Y-118000000D03*
X107500000Y-118000000D03*
X110500000Y-118000000D03*
X74500000Y-58000000D03*
X71500000Y-58000000D03*
X90500000Y-58000000D03*
X87500000Y-58000000D03*
X44500000Y-48000000D03*
X47500000Y-48000000D03*
D13*
X242698000Y-110000000D03*
X246000000Y-110000000D03*
D14*
X90905000Y-48210000D03*
X89635000Y-48210000D03*
X88365000Y-48210000D03*
X87095000Y-48210000D03*
X87095000Y-53790000D03*
X88365000Y-53790000D03*
X89635000Y-53790000D03*
X90905000Y-53790000D03*
X74905000Y-48210000D03*
X73635000Y-48210000D03*
X72365000Y-48210000D03*
X71095000Y-48210000D03*
X71095000Y-53790000D03*
X72365000Y-53790000D03*
X73635000Y-53790000D03*
X74905000Y-53790000D03*
X51095000Y-53790000D03*
X52365000Y-53790000D03*
X53635000Y-53790000D03*
X54905000Y-53790000D03*
X54905000Y-48210000D03*
X53635000Y-48210000D03*
X52365000Y-48210000D03*
X51095000Y-48210000D03*
X44190000Y-123790000D03*
X45460000Y-123790000D03*
X46730000Y-123790000D03*
X48000000Y-123790000D03*
X48000000Y-118210000D03*
X46730000Y-118210000D03*
X45460000Y-118210000D03*
X44190000Y-118210000D03*
X72095000Y-123790000D03*
X73365000Y-123790000D03*
X74635000Y-123790000D03*
X75905000Y-123790000D03*
X75905000Y-118210000D03*
X74635000Y-118210000D03*
X73365000Y-118210000D03*
X72095000Y-118210000D03*
X100095000Y-123790000D03*
X101365000Y-123790000D03*
X102635000Y-123790000D03*
X103905000Y-123790000D03*
X103905000Y-118210000D03*
X102635000Y-118210000D03*
X101365000Y-118210000D03*
X100095000Y-118210000D03*
D11*
X36000000Y-124000000D03*
X36000000Y-126900000D03*
X40000000Y-124000000D03*
X40000000Y-126900000D03*
X52000000Y-124000000D03*
X52000000Y-126900000D03*
X56000000Y-124000000D03*
X56000000Y-126900000D03*
X64000000Y-124000000D03*
X64000000Y-126900000D03*
X68000000Y-124000000D03*
X68000000Y-126900000D03*
X80000000Y-124000000D03*
X80000000Y-126900000D03*
X84000000Y-124000000D03*
X84000000Y-126900000D03*
X92000000Y-124000000D03*
X92000000Y-126900000D03*
X96000000Y-124000000D03*
X96000000Y-126900000D03*
X108000000Y-124000000D03*
X108000000Y-126900000D03*
X112000000Y-124000000D03*
X112000000Y-126900000D03*
D15*
X118400000Y-96500000D03*
X115500000Y-96500000D03*
D11*
X59000000Y-48900000D03*
X59000000Y-46000000D03*
X67000000Y-48900000D03*
X67000000Y-46000000D03*
X63000000Y-48900000D03*
X63000000Y-46000000D03*
X79000000Y-48900000D03*
X79000000Y-46000000D03*
X95000000Y-48900000D03*
X95000000Y-46000000D03*
X49000000Y-57550000D03*
X49000000Y-60450000D03*
X53000000Y-57550000D03*
X53000000Y-60450000D03*
X57000000Y-57550000D03*
X57000000Y-60450000D03*
X61000000Y-57550000D03*
X61000000Y-60450000D03*
D15*
X118400000Y-93000000D03*
X115500000Y-93000000D03*
D16*
X190190000Y-107190000D03*
X190190000Y-109730000D03*
X197810000Y-109730000D03*
X197810000Y-107190000D03*
D13*
X242698000Y-118000000D03*
X246000000Y-118000000D03*
D16*
X190190000Y-100390000D03*
X190190000Y-102930000D03*
X197810000Y-102930000D03*
X197810000Y-100390000D03*
M02*
