G04 #@! TF.FileFunction,Legend,Top*
%FSLAX46Y46*%
G04 Gerber Fmt 4.6, Leading zero omitted, Abs format (unit mm)*
G04 Created by KiCad (PCBNEW 4.0.5-e0-6337~49~ubuntu16.04.1) date Mon Feb 20 15:27:01 2017*
%MOMM*%
%LPD*%
G01*
G04 APERTURE LIST*
%ADD10C,0.100000*%
%ADD11C,0.300000*%
%ADD12C,0.125000*%
%ADD13C,0.150000*%
%ADD14C,0.120000*%
G04 APERTURE END LIST*
D10*
D11*
X217321428Y-138357143D02*
X218321428Y-141357143D01*
X219321428Y-138357143D01*
X220178572Y-140500000D02*
X221607143Y-140500000D01*
X219892857Y-141357143D02*
X220892857Y-138357143D01*
X221892857Y-141357143D01*
X224321429Y-141357143D02*
X222892858Y-141357143D01*
X222892858Y-138357143D01*
X224892857Y-138357143D02*
X225892857Y-141357143D01*
X226892857Y-138357143D01*
X227892858Y-139785714D02*
X228892858Y-139785714D01*
X229321429Y-141357143D02*
X227892858Y-141357143D01*
X227892858Y-138357143D01*
X229321429Y-138357143D01*
X232892858Y-141357143D02*
X232892858Y-138357143D01*
X234035715Y-138357143D01*
X234321429Y-138500000D01*
X234464286Y-138642857D01*
X234607143Y-138928571D01*
X234607143Y-139357143D01*
X234464286Y-139642857D01*
X234321429Y-139785714D01*
X234035715Y-139928571D01*
X232892858Y-139928571D01*
X236464286Y-138357143D02*
X237035715Y-138357143D01*
X237321429Y-138500000D01*
X237607143Y-138785714D01*
X237750001Y-139357143D01*
X237750001Y-140357143D01*
X237607143Y-140928571D01*
X237321429Y-141214286D01*
X237035715Y-141357143D01*
X236464286Y-141357143D01*
X236178572Y-141214286D01*
X235892858Y-140928571D01*
X235750001Y-140357143D01*
X235750001Y-139357143D01*
X235892858Y-138785714D01*
X236178572Y-138500000D01*
X236464286Y-138357143D01*
X238750000Y-138357143D02*
X239464286Y-141357143D01*
X240035715Y-139214286D01*
X240607143Y-141357143D01*
X241321429Y-138357143D01*
X242464286Y-139785714D02*
X243464286Y-139785714D01*
X243892857Y-141357143D02*
X242464286Y-141357143D01*
X242464286Y-138357143D01*
X243892857Y-138357143D01*
X246892857Y-141357143D02*
X245892857Y-139928571D01*
X245178572Y-141357143D02*
X245178572Y-138357143D01*
X246321429Y-138357143D01*
X246607143Y-138500000D01*
X246750000Y-138642857D01*
X246892857Y-138928571D01*
X246892857Y-139357143D01*
X246750000Y-139642857D01*
X246607143Y-139785714D01*
X246321429Y-139928571D01*
X245178572Y-139928571D01*
X211750001Y-36464286D02*
X212178572Y-36607143D01*
X212892858Y-36607143D01*
X213178572Y-36464286D01*
X213321429Y-36321429D01*
X213464286Y-36035714D01*
X213464286Y-35750000D01*
X213321429Y-35464286D01*
X213178572Y-35321429D01*
X212892858Y-35178571D01*
X212321429Y-35035714D01*
X212035715Y-34892857D01*
X211892858Y-34750000D01*
X211750001Y-34464286D01*
X211750001Y-34178571D01*
X211892858Y-33892857D01*
X212035715Y-33750000D01*
X212321429Y-33607143D01*
X213035715Y-33607143D01*
X213464286Y-33750000D01*
X214321429Y-33607143D02*
X216035715Y-33607143D01*
X215178572Y-36607143D02*
X215178572Y-33607143D01*
X217035715Y-35035714D02*
X218035715Y-35035714D01*
X218464286Y-36607143D02*
X217035715Y-36607143D01*
X217035715Y-33607143D01*
X218464286Y-33607143D01*
X219750001Y-36607143D02*
X219750001Y-33607143D01*
X220892858Y-33607143D01*
X221178572Y-33750000D01*
X221321429Y-33892857D01*
X221464286Y-34178571D01*
X221464286Y-34607143D01*
X221321429Y-34892857D01*
X221178572Y-35035714D01*
X220892858Y-35178571D01*
X219750001Y-35178571D01*
X222750001Y-36607143D02*
X222750001Y-33607143D01*
X223892858Y-33607143D01*
X224178572Y-33750000D01*
X224321429Y-33892857D01*
X224464286Y-34178571D01*
X224464286Y-34607143D01*
X224321429Y-34892857D01*
X224178572Y-35035714D01*
X223892858Y-35178571D01*
X222750001Y-35178571D01*
X225750001Y-35035714D02*
X226750001Y-35035714D01*
X227178572Y-36607143D02*
X225750001Y-36607143D01*
X225750001Y-33607143D01*
X227178572Y-33607143D01*
X230178572Y-36607143D02*
X229178572Y-35178571D01*
X228464287Y-36607143D02*
X228464287Y-33607143D01*
X229607144Y-33607143D01*
X229892858Y-33750000D01*
X230035715Y-33892857D01*
X230178572Y-34178571D01*
X230178572Y-34607143D01*
X230035715Y-34892857D01*
X229892858Y-35035714D01*
X229607144Y-35178571D01*
X228464287Y-35178571D01*
X233750001Y-36607143D02*
X233750001Y-33607143D01*
X234892858Y-33607143D01*
X235178572Y-33750000D01*
X235321429Y-33892857D01*
X235464286Y-34178571D01*
X235464286Y-34607143D01*
X235321429Y-34892857D01*
X235178572Y-35035714D01*
X234892858Y-35178571D01*
X233750001Y-35178571D01*
X237321429Y-33607143D02*
X237892858Y-33607143D01*
X238178572Y-33750000D01*
X238464286Y-34035714D01*
X238607144Y-34607143D01*
X238607144Y-35607143D01*
X238464286Y-36178571D01*
X238178572Y-36464286D01*
X237892858Y-36607143D01*
X237321429Y-36607143D01*
X237035715Y-36464286D01*
X236750001Y-36178571D01*
X236607144Y-35607143D01*
X236607144Y-34607143D01*
X236750001Y-34035714D01*
X237035715Y-33750000D01*
X237321429Y-33607143D01*
X239607143Y-33607143D02*
X240321429Y-36607143D01*
X240892858Y-34464286D01*
X241464286Y-36607143D01*
X242178572Y-33607143D01*
X243321429Y-35035714D02*
X244321429Y-35035714D01*
X244750000Y-36607143D02*
X243321429Y-36607143D01*
X243321429Y-33607143D01*
X244750000Y-33607143D01*
X247750000Y-36607143D02*
X246750000Y-35178571D01*
X246035715Y-36607143D02*
X246035715Y-33607143D01*
X247178572Y-33607143D01*
X247464286Y-33750000D01*
X247607143Y-33892857D01*
X247750000Y-34178571D01*
X247750000Y-34607143D01*
X247607143Y-34892857D01*
X247464286Y-35035714D01*
X247178572Y-35178571D01*
X246035715Y-35178571D01*
D12*
X233697619Y-106916667D02*
X233659523Y-106878571D01*
X233583333Y-106764286D01*
X233545238Y-106688095D01*
X233507142Y-106573810D01*
X233469047Y-106383333D01*
X233469047Y-106230952D01*
X233507142Y-106040476D01*
X233545238Y-105926190D01*
X233583333Y-105850000D01*
X233659523Y-105735714D01*
X233697619Y-105697619D01*
X234116666Y-106611905D02*
X234040475Y-106573810D01*
X234002380Y-106535714D01*
X233964285Y-106459524D01*
X233964285Y-106230952D01*
X234002380Y-106154762D01*
X234040475Y-106116667D01*
X234116666Y-106078571D01*
X234230952Y-106078571D01*
X234307142Y-106116667D01*
X234345237Y-106154762D01*
X234383333Y-106230952D01*
X234383333Y-106459524D01*
X234345237Y-106535714D01*
X234307142Y-106573810D01*
X234230952Y-106611905D01*
X234116666Y-106611905D01*
X234726190Y-106078571D02*
X234726190Y-106878571D01*
X234726190Y-106116667D02*
X234802381Y-106078571D01*
X234954762Y-106078571D01*
X235030952Y-106116667D01*
X235069047Y-106154762D01*
X235107143Y-106230952D01*
X235107143Y-106459524D01*
X235069047Y-106535714D01*
X235030952Y-106573810D01*
X234954762Y-106611905D01*
X234802381Y-106611905D01*
X234726190Y-106573810D01*
X235335714Y-106078571D02*
X235640476Y-106078571D01*
X235450000Y-105811905D02*
X235450000Y-106497619D01*
X235488095Y-106573810D01*
X235564286Y-106611905D01*
X235640476Y-106611905D01*
X235907143Y-106611905D02*
X235907143Y-106078571D01*
X235907143Y-105811905D02*
X235869048Y-105850000D01*
X235907143Y-105888095D01*
X235945238Y-105850000D01*
X235907143Y-105811905D01*
X235907143Y-105888095D01*
X236402381Y-106611905D02*
X236326190Y-106573810D01*
X236288095Y-106535714D01*
X236250000Y-106459524D01*
X236250000Y-106230952D01*
X236288095Y-106154762D01*
X236326190Y-106116667D01*
X236402381Y-106078571D01*
X236516667Y-106078571D01*
X236592857Y-106116667D01*
X236630952Y-106154762D01*
X236669048Y-106230952D01*
X236669048Y-106459524D01*
X236630952Y-106535714D01*
X236592857Y-106573810D01*
X236516667Y-106611905D01*
X236402381Y-106611905D01*
X237011905Y-106078571D02*
X237011905Y-106611905D01*
X237011905Y-106154762D02*
X237050000Y-106116667D01*
X237126191Y-106078571D01*
X237240477Y-106078571D01*
X237316667Y-106116667D01*
X237354762Y-106192857D01*
X237354762Y-106611905D01*
X238078572Y-106611905D02*
X238078572Y-106192857D01*
X238040477Y-106116667D01*
X237964287Y-106078571D01*
X237811906Y-106078571D01*
X237735715Y-106116667D01*
X238078572Y-106573810D02*
X238002382Y-106611905D01*
X237811906Y-106611905D01*
X237735715Y-106573810D01*
X237697620Y-106497619D01*
X237697620Y-106421429D01*
X237735715Y-106345238D01*
X237811906Y-106307143D01*
X238002382Y-106307143D01*
X238078572Y-106269048D01*
X238573811Y-106611905D02*
X238497620Y-106573810D01*
X238459525Y-106497619D01*
X238459525Y-105811905D01*
X238802383Y-106916667D02*
X238840478Y-106878571D01*
X238916668Y-106764286D01*
X238954764Y-106688095D01*
X238992859Y-106573810D01*
X239030954Y-106383333D01*
X239030954Y-106230952D01*
X238992859Y-106040476D01*
X238954764Y-105926190D01*
X238916668Y-105850000D01*
X238840478Y-105735714D01*
X238802383Y-105697619D01*
X210447619Y-106666667D02*
X210409523Y-106628571D01*
X210333333Y-106514286D01*
X210295238Y-106438095D01*
X210257142Y-106323810D01*
X210219047Y-106133333D01*
X210219047Y-105980952D01*
X210257142Y-105790476D01*
X210295238Y-105676190D01*
X210333333Y-105600000D01*
X210409523Y-105485714D01*
X210447619Y-105447619D01*
X210866666Y-106361905D02*
X210790475Y-106323810D01*
X210752380Y-106285714D01*
X210714285Y-106209524D01*
X210714285Y-105980952D01*
X210752380Y-105904762D01*
X210790475Y-105866667D01*
X210866666Y-105828571D01*
X210980952Y-105828571D01*
X211057142Y-105866667D01*
X211095237Y-105904762D01*
X211133333Y-105980952D01*
X211133333Y-106209524D01*
X211095237Y-106285714D01*
X211057142Y-106323810D01*
X210980952Y-106361905D01*
X210866666Y-106361905D01*
X211476190Y-105828571D02*
X211476190Y-106628571D01*
X211476190Y-105866667D02*
X211552381Y-105828571D01*
X211704762Y-105828571D01*
X211780952Y-105866667D01*
X211819047Y-105904762D01*
X211857143Y-105980952D01*
X211857143Y-106209524D01*
X211819047Y-106285714D01*
X211780952Y-106323810D01*
X211704762Y-106361905D01*
X211552381Y-106361905D01*
X211476190Y-106323810D01*
X212085714Y-105828571D02*
X212390476Y-105828571D01*
X212200000Y-105561905D02*
X212200000Y-106247619D01*
X212238095Y-106323810D01*
X212314286Y-106361905D01*
X212390476Y-106361905D01*
X212657143Y-106361905D02*
X212657143Y-105828571D01*
X212657143Y-105561905D02*
X212619048Y-105600000D01*
X212657143Y-105638095D01*
X212695238Y-105600000D01*
X212657143Y-105561905D01*
X212657143Y-105638095D01*
X213152381Y-106361905D02*
X213076190Y-106323810D01*
X213038095Y-106285714D01*
X213000000Y-106209524D01*
X213000000Y-105980952D01*
X213038095Y-105904762D01*
X213076190Y-105866667D01*
X213152381Y-105828571D01*
X213266667Y-105828571D01*
X213342857Y-105866667D01*
X213380952Y-105904762D01*
X213419048Y-105980952D01*
X213419048Y-106209524D01*
X213380952Y-106285714D01*
X213342857Y-106323810D01*
X213266667Y-106361905D01*
X213152381Y-106361905D01*
X213761905Y-105828571D02*
X213761905Y-106361905D01*
X213761905Y-105904762D02*
X213800000Y-105866667D01*
X213876191Y-105828571D01*
X213990477Y-105828571D01*
X214066667Y-105866667D01*
X214104762Y-105942857D01*
X214104762Y-106361905D01*
X214828572Y-106361905D02*
X214828572Y-105942857D01*
X214790477Y-105866667D01*
X214714287Y-105828571D01*
X214561906Y-105828571D01*
X214485715Y-105866667D01*
X214828572Y-106323810D02*
X214752382Y-106361905D01*
X214561906Y-106361905D01*
X214485715Y-106323810D01*
X214447620Y-106247619D01*
X214447620Y-106171429D01*
X214485715Y-106095238D01*
X214561906Y-106057143D01*
X214752382Y-106057143D01*
X214828572Y-106019048D01*
X215323811Y-106361905D02*
X215247620Y-106323810D01*
X215209525Y-106247619D01*
X215209525Y-105561905D01*
X215552383Y-106666667D02*
X215590478Y-106628571D01*
X215666668Y-106514286D01*
X215704764Y-106438095D01*
X215742859Y-106323810D01*
X215780954Y-106133333D01*
X215780954Y-105980952D01*
X215742859Y-105790476D01*
X215704764Y-105676190D01*
X215666668Y-105600000D01*
X215590478Y-105485714D01*
X215552383Y-105447619D01*
X38166667Y-53802381D02*
X38128571Y-53840477D01*
X38014286Y-53916667D01*
X37938095Y-53954762D01*
X37823810Y-53992858D01*
X37633333Y-54030953D01*
X37480952Y-54030953D01*
X37290476Y-53992858D01*
X37176190Y-53954762D01*
X37100000Y-53916667D01*
X36985714Y-53840477D01*
X36947619Y-53802381D01*
X37861905Y-53383334D02*
X37823810Y-53459525D01*
X37785714Y-53497620D01*
X37709524Y-53535715D01*
X37480952Y-53535715D01*
X37404762Y-53497620D01*
X37366667Y-53459525D01*
X37328571Y-53383334D01*
X37328571Y-53269048D01*
X37366667Y-53192858D01*
X37404762Y-53154763D01*
X37480952Y-53116667D01*
X37709524Y-53116667D01*
X37785714Y-53154763D01*
X37823810Y-53192858D01*
X37861905Y-53269048D01*
X37861905Y-53383334D01*
X37328571Y-52773810D02*
X38128571Y-52773810D01*
X37366667Y-52773810D02*
X37328571Y-52697619D01*
X37328571Y-52545238D01*
X37366667Y-52469048D01*
X37404762Y-52430953D01*
X37480952Y-52392857D01*
X37709524Y-52392857D01*
X37785714Y-52430953D01*
X37823810Y-52469048D01*
X37861905Y-52545238D01*
X37861905Y-52697619D01*
X37823810Y-52773810D01*
X37328571Y-52164286D02*
X37328571Y-51859524D01*
X37061905Y-52050000D02*
X37747619Y-52050000D01*
X37823810Y-52011905D01*
X37861905Y-51935714D01*
X37861905Y-51859524D01*
X37861905Y-51592857D02*
X37328571Y-51592857D01*
X37061905Y-51592857D02*
X37100000Y-51630952D01*
X37138095Y-51592857D01*
X37100000Y-51554762D01*
X37061905Y-51592857D01*
X37138095Y-51592857D01*
X37861905Y-51097619D02*
X37823810Y-51173810D01*
X37785714Y-51211905D01*
X37709524Y-51250000D01*
X37480952Y-51250000D01*
X37404762Y-51211905D01*
X37366667Y-51173810D01*
X37328571Y-51097619D01*
X37328571Y-50983333D01*
X37366667Y-50907143D01*
X37404762Y-50869048D01*
X37480952Y-50830952D01*
X37709524Y-50830952D01*
X37785714Y-50869048D01*
X37823810Y-50907143D01*
X37861905Y-50983333D01*
X37861905Y-51097619D01*
X37328571Y-50488095D02*
X37861905Y-50488095D01*
X37404762Y-50488095D02*
X37366667Y-50450000D01*
X37328571Y-50373809D01*
X37328571Y-50259523D01*
X37366667Y-50183333D01*
X37442857Y-50145238D01*
X37861905Y-50145238D01*
X37861905Y-49421428D02*
X37442857Y-49421428D01*
X37366667Y-49459523D01*
X37328571Y-49535713D01*
X37328571Y-49688094D01*
X37366667Y-49764285D01*
X37823810Y-49421428D02*
X37861905Y-49497618D01*
X37861905Y-49688094D01*
X37823810Y-49764285D01*
X37747619Y-49802380D01*
X37671429Y-49802380D01*
X37595238Y-49764285D01*
X37557143Y-49688094D01*
X37557143Y-49497618D01*
X37519048Y-49421428D01*
X37861905Y-48926189D02*
X37823810Y-49002380D01*
X37747619Y-49040475D01*
X37061905Y-49040475D01*
X38166667Y-48697617D02*
X38128571Y-48659522D01*
X38014286Y-48583332D01*
X37938095Y-48545236D01*
X37823810Y-48507141D01*
X37633333Y-48469046D01*
X37480952Y-48469046D01*
X37290476Y-48507141D01*
X37176190Y-48545236D01*
X37100000Y-48583332D01*
X36985714Y-48659522D01*
X36947619Y-48697617D01*
X228947619Y-143166667D02*
X228909523Y-143128571D01*
X228833333Y-143014286D01*
X228795238Y-142938095D01*
X228757142Y-142823810D01*
X228719047Y-142633333D01*
X228719047Y-142480952D01*
X228757142Y-142290476D01*
X228795238Y-142176190D01*
X228833333Y-142100000D01*
X228909523Y-141985714D01*
X228947619Y-141947619D01*
X229366666Y-142861905D02*
X229290475Y-142823810D01*
X229252380Y-142785714D01*
X229214285Y-142709524D01*
X229214285Y-142480952D01*
X229252380Y-142404762D01*
X229290475Y-142366667D01*
X229366666Y-142328571D01*
X229480952Y-142328571D01*
X229557142Y-142366667D01*
X229595237Y-142404762D01*
X229633333Y-142480952D01*
X229633333Y-142709524D01*
X229595237Y-142785714D01*
X229557142Y-142823810D01*
X229480952Y-142861905D01*
X229366666Y-142861905D01*
X229976190Y-142328571D02*
X229976190Y-143128571D01*
X229976190Y-142366667D02*
X230052381Y-142328571D01*
X230204762Y-142328571D01*
X230280952Y-142366667D01*
X230319047Y-142404762D01*
X230357143Y-142480952D01*
X230357143Y-142709524D01*
X230319047Y-142785714D01*
X230280952Y-142823810D01*
X230204762Y-142861905D01*
X230052381Y-142861905D01*
X229976190Y-142823810D01*
X230585714Y-142328571D02*
X230890476Y-142328571D01*
X230700000Y-142061905D02*
X230700000Y-142747619D01*
X230738095Y-142823810D01*
X230814286Y-142861905D01*
X230890476Y-142861905D01*
X231157143Y-142861905D02*
X231157143Y-142328571D01*
X231157143Y-142061905D02*
X231119048Y-142100000D01*
X231157143Y-142138095D01*
X231195238Y-142100000D01*
X231157143Y-142061905D01*
X231157143Y-142138095D01*
X231652381Y-142861905D02*
X231576190Y-142823810D01*
X231538095Y-142785714D01*
X231500000Y-142709524D01*
X231500000Y-142480952D01*
X231538095Y-142404762D01*
X231576190Y-142366667D01*
X231652381Y-142328571D01*
X231766667Y-142328571D01*
X231842857Y-142366667D01*
X231880952Y-142404762D01*
X231919048Y-142480952D01*
X231919048Y-142709524D01*
X231880952Y-142785714D01*
X231842857Y-142823810D01*
X231766667Y-142861905D01*
X231652381Y-142861905D01*
X232261905Y-142328571D02*
X232261905Y-142861905D01*
X232261905Y-142404762D02*
X232300000Y-142366667D01*
X232376191Y-142328571D01*
X232490477Y-142328571D01*
X232566667Y-142366667D01*
X232604762Y-142442857D01*
X232604762Y-142861905D01*
X233328572Y-142861905D02*
X233328572Y-142442857D01*
X233290477Y-142366667D01*
X233214287Y-142328571D01*
X233061906Y-142328571D01*
X232985715Y-142366667D01*
X233328572Y-142823810D02*
X233252382Y-142861905D01*
X233061906Y-142861905D01*
X232985715Y-142823810D01*
X232947620Y-142747619D01*
X232947620Y-142671429D01*
X232985715Y-142595238D01*
X233061906Y-142557143D01*
X233252382Y-142557143D01*
X233328572Y-142519048D01*
X233823811Y-142861905D02*
X233747620Y-142823810D01*
X233709525Y-142747619D01*
X233709525Y-142061905D01*
X234052383Y-143166667D02*
X234090478Y-143128571D01*
X234166668Y-143014286D01*
X234204764Y-142938095D01*
X234242859Y-142823810D01*
X234280954Y-142633333D01*
X234280954Y-142480952D01*
X234242859Y-142290476D01*
X234204764Y-142176190D01*
X234166668Y-142100000D01*
X234090478Y-141985714D01*
X234052383Y-141947619D01*
X106697619Y-44916667D02*
X106659523Y-44878571D01*
X106583333Y-44764286D01*
X106545238Y-44688095D01*
X106507142Y-44573810D01*
X106469047Y-44383333D01*
X106469047Y-44230952D01*
X106507142Y-44040476D01*
X106545238Y-43926190D01*
X106583333Y-43850000D01*
X106659523Y-43735714D01*
X106697619Y-43697619D01*
X107116666Y-44611905D02*
X107040475Y-44573810D01*
X107002380Y-44535714D01*
X106964285Y-44459524D01*
X106964285Y-44230952D01*
X107002380Y-44154762D01*
X107040475Y-44116667D01*
X107116666Y-44078571D01*
X107230952Y-44078571D01*
X107307142Y-44116667D01*
X107345237Y-44154762D01*
X107383333Y-44230952D01*
X107383333Y-44459524D01*
X107345237Y-44535714D01*
X107307142Y-44573810D01*
X107230952Y-44611905D01*
X107116666Y-44611905D01*
X107726190Y-44078571D02*
X107726190Y-44878571D01*
X107726190Y-44116667D02*
X107802381Y-44078571D01*
X107954762Y-44078571D01*
X108030952Y-44116667D01*
X108069047Y-44154762D01*
X108107143Y-44230952D01*
X108107143Y-44459524D01*
X108069047Y-44535714D01*
X108030952Y-44573810D01*
X107954762Y-44611905D01*
X107802381Y-44611905D01*
X107726190Y-44573810D01*
X108335714Y-44078571D02*
X108640476Y-44078571D01*
X108450000Y-43811905D02*
X108450000Y-44497619D01*
X108488095Y-44573810D01*
X108564286Y-44611905D01*
X108640476Y-44611905D01*
X108907143Y-44611905D02*
X108907143Y-44078571D01*
X108907143Y-43811905D02*
X108869048Y-43850000D01*
X108907143Y-43888095D01*
X108945238Y-43850000D01*
X108907143Y-43811905D01*
X108907143Y-43888095D01*
X109402381Y-44611905D02*
X109326190Y-44573810D01*
X109288095Y-44535714D01*
X109250000Y-44459524D01*
X109250000Y-44230952D01*
X109288095Y-44154762D01*
X109326190Y-44116667D01*
X109402381Y-44078571D01*
X109516667Y-44078571D01*
X109592857Y-44116667D01*
X109630952Y-44154762D01*
X109669048Y-44230952D01*
X109669048Y-44459524D01*
X109630952Y-44535714D01*
X109592857Y-44573810D01*
X109516667Y-44611905D01*
X109402381Y-44611905D01*
X110011905Y-44078571D02*
X110011905Y-44611905D01*
X110011905Y-44154762D02*
X110050000Y-44116667D01*
X110126191Y-44078571D01*
X110240477Y-44078571D01*
X110316667Y-44116667D01*
X110354762Y-44192857D01*
X110354762Y-44611905D01*
X111078572Y-44611905D02*
X111078572Y-44192857D01*
X111040477Y-44116667D01*
X110964287Y-44078571D01*
X110811906Y-44078571D01*
X110735715Y-44116667D01*
X111078572Y-44573810D02*
X111002382Y-44611905D01*
X110811906Y-44611905D01*
X110735715Y-44573810D01*
X110697620Y-44497619D01*
X110697620Y-44421429D01*
X110735715Y-44345238D01*
X110811906Y-44307143D01*
X111002382Y-44307143D01*
X111078572Y-44269048D01*
X111573811Y-44611905D02*
X111497620Y-44573810D01*
X111459525Y-44497619D01*
X111459525Y-43811905D01*
X111802383Y-44916667D02*
X111840478Y-44878571D01*
X111916668Y-44764286D01*
X111954764Y-44688095D01*
X111992859Y-44573810D01*
X112030954Y-44383333D01*
X112030954Y-44230952D01*
X111992859Y-44040476D01*
X111954764Y-43926190D01*
X111916668Y-43850000D01*
X111840478Y-43735714D01*
X111802383Y-43697619D01*
D11*
X98250001Y-86178571D02*
X98250001Y-84678571D01*
X99107144Y-86178571D01*
X99107144Y-84678571D01*
X100035716Y-86178571D02*
X99892858Y-86107143D01*
X99821430Y-86035714D01*
X99750001Y-85892857D01*
X99750001Y-85464286D01*
X99821430Y-85321429D01*
X99892858Y-85250000D01*
X100035716Y-85178571D01*
X100250001Y-85178571D01*
X100392858Y-85250000D01*
X100464287Y-85321429D01*
X100535716Y-85464286D01*
X100535716Y-85892857D01*
X100464287Y-86035714D01*
X100392858Y-86107143D01*
X100250001Y-86178571D01*
X100035716Y-86178571D01*
X101178573Y-86178571D02*
X101178573Y-85178571D01*
X101178573Y-85464286D02*
X101250001Y-85321429D01*
X101321430Y-85250000D01*
X101464287Y-85178571D01*
X101607144Y-85178571D01*
X101892858Y-85178571D02*
X102464287Y-85178571D01*
X102107144Y-84678571D02*
X102107144Y-85964286D01*
X102178572Y-86107143D01*
X102321430Y-86178571D01*
X102464287Y-86178571D01*
X103607144Y-86178571D02*
X103607144Y-84678571D01*
X103607144Y-86107143D02*
X103464287Y-86178571D01*
X103178573Y-86178571D01*
X103035715Y-86107143D01*
X102964287Y-86035714D01*
X102892858Y-85892857D01*
X102892858Y-85464286D01*
X102964287Y-85321429D01*
X103035715Y-85250000D01*
X103178573Y-85178571D01*
X103464287Y-85178571D01*
X103607144Y-85250000D01*
X106178573Y-86178571D02*
X105464287Y-86178571D01*
X105464287Y-84678571D01*
X107321430Y-86178571D02*
X107321430Y-85392857D01*
X107250001Y-85250000D01*
X107107144Y-85178571D01*
X106821430Y-85178571D01*
X106678573Y-85250000D01*
X107321430Y-86107143D02*
X107178573Y-86178571D01*
X106821430Y-86178571D01*
X106678573Y-86107143D01*
X106607144Y-85964286D01*
X106607144Y-85821429D01*
X106678573Y-85678571D01*
X106821430Y-85607143D01*
X107178573Y-85607143D01*
X107321430Y-85535714D01*
X108035716Y-86178571D02*
X108035716Y-84678571D01*
X108035716Y-85250000D02*
X108178573Y-85178571D01*
X108464287Y-85178571D01*
X108607144Y-85250000D01*
X108678573Y-85321429D01*
X108750002Y-85464286D01*
X108750002Y-85892857D01*
X108678573Y-86035714D01*
X108607144Y-86107143D01*
X108464287Y-86178571D01*
X108178573Y-86178571D01*
X108035716Y-86107143D01*
X109321430Y-86107143D02*
X109464287Y-86178571D01*
X109750002Y-86178571D01*
X109892859Y-86107143D01*
X109964287Y-85964286D01*
X109964287Y-85892857D01*
X109892859Y-85750000D01*
X109750002Y-85678571D01*
X109535716Y-85678571D01*
X109392859Y-85607143D01*
X109321430Y-85464286D01*
X109321430Y-85392857D01*
X109392859Y-85250000D01*
X109535716Y-85178571D01*
X109750002Y-85178571D01*
X109892859Y-85250000D01*
X111678573Y-84821429D02*
X111750002Y-84750000D01*
X111892859Y-84678571D01*
X112250002Y-84678571D01*
X112392859Y-84750000D01*
X112464288Y-84821429D01*
X112535716Y-84964286D01*
X112535716Y-85107143D01*
X112464288Y-85321429D01*
X111607145Y-86178571D01*
X112535716Y-86178571D01*
X113464287Y-84678571D02*
X113607144Y-84678571D01*
X113750001Y-84750000D01*
X113821430Y-84821429D01*
X113892859Y-84964286D01*
X113964287Y-85250000D01*
X113964287Y-85607143D01*
X113892859Y-85892857D01*
X113821430Y-86035714D01*
X113750001Y-86107143D01*
X113607144Y-86178571D01*
X113464287Y-86178571D01*
X113321430Y-86107143D01*
X113250001Y-86035714D01*
X113178573Y-85892857D01*
X113107144Y-85607143D01*
X113107144Y-85250000D01*
X113178573Y-84964286D01*
X113250001Y-84821429D01*
X113321430Y-84750000D01*
X113464287Y-84678571D01*
X115392858Y-86178571D02*
X114535715Y-86178571D01*
X114964287Y-86178571D02*
X114964287Y-84678571D01*
X114821430Y-84892857D01*
X114678572Y-85035714D01*
X114535715Y-85107143D01*
X115892858Y-84678571D02*
X116892858Y-84678571D01*
X116250001Y-86178571D01*
X117428571Y-34607143D02*
X116000000Y-34607143D01*
X115857143Y-36035714D01*
X116000000Y-35892857D01*
X116285714Y-35750000D01*
X117000000Y-35750000D01*
X117285714Y-35892857D01*
X117428571Y-36035714D01*
X117571428Y-36321429D01*
X117571428Y-37035714D01*
X117428571Y-37321429D01*
X117285714Y-37464286D01*
X117000000Y-37607143D01*
X116285714Y-37607143D01*
X116000000Y-37464286D01*
X115857143Y-37321429D01*
X118428571Y-34607143D02*
X119428571Y-37607143D01*
X120428571Y-34607143D01*
X98285716Y-82928571D02*
X98285716Y-81428571D01*
X98642859Y-81428571D01*
X98857144Y-81500000D01*
X99000002Y-81642857D01*
X99071430Y-81785714D01*
X99142859Y-82071429D01*
X99142859Y-82285714D01*
X99071430Y-82571429D01*
X99000002Y-82714286D01*
X98857144Y-82857143D01*
X98642859Y-82928571D01*
X98285716Y-82928571D01*
X99785716Y-82928571D02*
X99785716Y-81928571D01*
X99785716Y-82214286D02*
X99857144Y-82071429D01*
X99928573Y-82000000D01*
X100071430Y-81928571D01*
X100214287Y-81928571D01*
X100714287Y-82928571D02*
X100714287Y-81928571D01*
X100714287Y-81428571D02*
X100642858Y-81500000D01*
X100714287Y-81571429D01*
X100785715Y-81500000D01*
X100714287Y-81428571D01*
X100714287Y-81571429D01*
X101285716Y-81928571D02*
X101642859Y-82928571D01*
X102000001Y-81928571D01*
X103142858Y-82857143D02*
X103000001Y-82928571D01*
X102714287Y-82928571D01*
X102571430Y-82857143D01*
X102500001Y-82714286D01*
X102500001Y-82142857D01*
X102571430Y-82000000D01*
X102714287Y-81928571D01*
X103000001Y-81928571D01*
X103142858Y-82000000D01*
X103214287Y-82142857D01*
X103214287Y-82285714D01*
X102500001Y-82428571D01*
X103857144Y-82928571D02*
X103857144Y-81428571D01*
X103857144Y-82000000D02*
X104000001Y-81928571D01*
X104285715Y-81928571D01*
X104428572Y-82000000D01*
X104500001Y-82071429D01*
X104571430Y-82214286D01*
X104571430Y-82642857D01*
X104500001Y-82785714D01*
X104428572Y-82857143D01*
X104285715Y-82928571D01*
X104000001Y-82928571D01*
X103857144Y-82857143D01*
X105428573Y-82928571D02*
X105285715Y-82857143D01*
X105214287Y-82785714D01*
X105142858Y-82642857D01*
X105142858Y-82214286D01*
X105214287Y-82071429D01*
X105285715Y-82000000D01*
X105428573Y-81928571D01*
X105642858Y-81928571D01*
X105785715Y-82000000D01*
X105857144Y-82071429D01*
X105928573Y-82214286D01*
X105928573Y-82642857D01*
X105857144Y-82785714D01*
X105785715Y-82857143D01*
X105642858Y-82928571D01*
X105428573Y-82928571D01*
X107214287Y-82928571D02*
X107214287Y-82142857D01*
X107142858Y-82000000D01*
X107000001Y-81928571D01*
X106714287Y-81928571D01*
X106571430Y-82000000D01*
X107214287Y-82857143D02*
X107071430Y-82928571D01*
X106714287Y-82928571D01*
X106571430Y-82857143D01*
X106500001Y-82714286D01*
X106500001Y-82571429D01*
X106571430Y-82428571D01*
X106714287Y-82357143D01*
X107071430Y-82357143D01*
X107214287Y-82285714D01*
X107928573Y-82928571D02*
X107928573Y-81928571D01*
X107928573Y-82214286D02*
X108000001Y-82071429D01*
X108071430Y-82000000D01*
X108214287Y-81928571D01*
X108357144Y-81928571D01*
X109500001Y-82928571D02*
X109500001Y-81428571D01*
X109500001Y-82857143D02*
X109357144Y-82928571D01*
X109071430Y-82928571D01*
X108928572Y-82857143D01*
X108857144Y-82785714D01*
X108785715Y-82642857D01*
X108785715Y-82214286D01*
X108857144Y-82071429D01*
X108928572Y-82000000D01*
X109071430Y-81928571D01*
X109357144Y-81928571D01*
X109500001Y-82000000D01*
X110214287Y-81428571D02*
X110214287Y-82642857D01*
X110285715Y-82785714D01*
X110357144Y-82857143D01*
X110500001Y-82928571D01*
X110785715Y-82928571D01*
X110928573Y-82857143D01*
X111000001Y-82785714D01*
X111071430Y-82642857D01*
X111071430Y-81428571D01*
X111714287Y-82857143D02*
X111928573Y-82928571D01*
X112285716Y-82928571D01*
X112428573Y-82857143D01*
X112500002Y-82785714D01*
X112571430Y-82642857D01*
X112571430Y-82500000D01*
X112500002Y-82357143D01*
X112428573Y-82285714D01*
X112285716Y-82214286D01*
X112000002Y-82142857D01*
X111857144Y-82071429D01*
X111785716Y-82000000D01*
X111714287Y-81857143D01*
X111714287Y-81714286D01*
X111785716Y-81571429D01*
X111857144Y-81500000D01*
X112000002Y-81428571D01*
X112357144Y-81428571D01*
X112571430Y-81500000D01*
X113714287Y-82142857D02*
X113928573Y-82214286D01*
X114000001Y-82285714D01*
X114071430Y-82428571D01*
X114071430Y-82642857D01*
X114000001Y-82785714D01*
X113928573Y-82857143D01*
X113785715Y-82928571D01*
X113214287Y-82928571D01*
X113214287Y-81428571D01*
X113714287Y-81428571D01*
X113857144Y-81500000D01*
X113928573Y-81571429D01*
X114000001Y-81714286D01*
X114000001Y-81857143D01*
X113928573Y-82000000D01*
X113857144Y-82071429D01*
X113714287Y-82142857D01*
X113214287Y-82142857D01*
X115714287Y-81928571D02*
X116071430Y-82928571D01*
X116428572Y-81928571D01*
X117785715Y-82928571D02*
X116928572Y-82928571D01*
X117357144Y-82928571D02*
X117357144Y-81428571D01*
X117214287Y-81642857D01*
X117071429Y-81785714D01*
X116928572Y-81857143D01*
X118285715Y-81428571D02*
X119285715Y-81428571D01*
X118642858Y-82928571D01*
X119857143Y-82785714D02*
X119928571Y-82857143D01*
X119857143Y-82928571D01*
X119785714Y-82857143D01*
X119857143Y-82785714D01*
X119857143Y-82928571D01*
X120857143Y-81428571D02*
X121000000Y-81428571D01*
X121142857Y-81500000D01*
X121214286Y-81571429D01*
X121285715Y-81714286D01*
X121357143Y-82000000D01*
X121357143Y-82357143D01*
X121285715Y-82642857D01*
X121214286Y-82785714D01*
X121142857Y-82857143D01*
X121000000Y-82928571D01*
X120857143Y-82928571D01*
X120714286Y-82857143D01*
X120642857Y-82785714D01*
X120571429Y-82642857D01*
X120500000Y-82357143D01*
X120500000Y-82000000D01*
X120571429Y-81714286D01*
X120642857Y-81571429D01*
X120714286Y-81500000D01*
X120857143Y-81428571D01*
X121857143Y-81428571D02*
X122785714Y-81428571D01*
X122285714Y-82000000D01*
X122500000Y-82000000D01*
X122642857Y-82071429D01*
X122714286Y-82142857D01*
X122785714Y-82285714D01*
X122785714Y-82642857D01*
X122714286Y-82785714D01*
X122642857Y-82857143D01*
X122500000Y-82928571D01*
X122071428Y-82928571D01*
X121928571Y-82857143D01*
X121857143Y-82785714D01*
D13*
X84075000Y-46450000D02*
X84075000Y-48450000D01*
X81925000Y-48450000D02*
X81925000Y-46450000D01*
X255588000Y-60327000D02*
X250127000Y-60327000D01*
X263589000Y-60327000D02*
X258255000Y-60327000D01*
X258128000Y-76583000D02*
X263589000Y-76583000D01*
X250127000Y-76583000D02*
X255588000Y-76583000D01*
X250127000Y-60327000D02*
X250127000Y-76583000D01*
X263589000Y-76583000D02*
X263589000Y-60327000D01*
X255588000Y-97327000D02*
X250127000Y-97327000D01*
X263589000Y-97327000D02*
X258255000Y-97327000D01*
X258128000Y-113583000D02*
X263589000Y-113583000D01*
X250127000Y-113583000D02*
X255588000Y-113583000D01*
X250127000Y-97327000D02*
X250127000Y-113583000D01*
X263589000Y-113583000D02*
X263589000Y-97327000D01*
X92673000Y-35588000D02*
X92673000Y-30127000D01*
X92673000Y-43589000D02*
X92673000Y-38255000D01*
X76417000Y-38128000D02*
X76417000Y-43589000D01*
X76417000Y-30127000D02*
X76417000Y-35588000D01*
X92673000Y-30127000D02*
X76417000Y-30127000D01*
X76417000Y-43589000D02*
X92673000Y-43589000D01*
X76327000Y-138412000D02*
X76327000Y-143873000D01*
X76327000Y-130411000D02*
X76327000Y-135745000D01*
X92583000Y-135872000D02*
X92583000Y-130411000D01*
X92583000Y-143873000D02*
X92583000Y-138412000D01*
X76327000Y-143873000D02*
X92583000Y-143873000D01*
X92583000Y-130411000D02*
X76327000Y-130411000D01*
X25327000Y-138412000D02*
X25327000Y-143873000D01*
X25327000Y-130411000D02*
X25327000Y-135745000D01*
X41583000Y-135872000D02*
X41583000Y-130411000D01*
X41583000Y-143873000D02*
X41583000Y-138412000D01*
X25327000Y-143873000D02*
X41583000Y-143873000D01*
X41583000Y-130411000D02*
X25327000Y-130411000D01*
X42327000Y-138412000D02*
X42327000Y-143873000D01*
X42327000Y-130411000D02*
X42327000Y-135745000D01*
X58583000Y-135872000D02*
X58583000Y-130411000D01*
X58583000Y-143873000D02*
X58583000Y-138412000D01*
X42327000Y-143873000D02*
X58583000Y-143873000D01*
X58583000Y-130411000D02*
X42327000Y-130411000D01*
X16650000Y-94045000D02*
X32525000Y-94045000D01*
X32525000Y-94045000D02*
X32525000Y-105475000D01*
X32525000Y-105475000D02*
X16650000Y-105475000D01*
X16650000Y-105475000D02*
X16650000Y-94045000D01*
X21095000Y-64835000D02*
X34430000Y-64835000D01*
X34430000Y-64835000D02*
X34430000Y-73725000D01*
X34430000Y-73725000D02*
X21095000Y-73725000D01*
X21095000Y-73725000D02*
X21095000Y-64835000D01*
X90310000Y-69280000D02*
G75*
G03X90310000Y-69280000I-1270000J0D01*
G01*
X90310000Y-97220000D02*
G75*
G03X90310000Y-97220000I-1270000J0D01*
G01*
X89040000Y-61660000D02*
X89040000Y-64200000D01*
X89040000Y-115000000D02*
X89040000Y-103570000D01*
X89040000Y-64200000D02*
X91580000Y-66105000D01*
X91580000Y-66105000D02*
X91580000Y-101030000D01*
X91580000Y-101030000D02*
X89040000Y-103570000D01*
X38240000Y-64200000D02*
G75*
G03X38240000Y-64200000I-1270000J0D01*
G01*
X39510000Y-112460000D02*
G75*
G03X39510000Y-112460000I-1270000J0D01*
G01*
X89040000Y-115000000D02*
X23000000Y-115000000D01*
X23000000Y-61660000D02*
X89040000Y-61660000D01*
X23000000Y-61660000D02*
X23000000Y-115000000D01*
X178570000Y-121810000D02*
X148090000Y-121810000D01*
X148090000Y-121810000D02*
X148090000Y-107840000D01*
X148090000Y-107840000D02*
X178570000Y-107840000D01*
X178570000Y-107840000D02*
X178570000Y-121810000D01*
X231910000Y-121810000D02*
X201430000Y-121810000D01*
X201430000Y-121810000D02*
X201430000Y-107840000D01*
X201430000Y-107840000D02*
X231910000Y-107840000D01*
X231910000Y-107840000D02*
X231910000Y-121810000D01*
X231910000Y-115460000D02*
X148090000Y-115460000D01*
X148090000Y-115460000D02*
X148090000Y-120540000D01*
X148090000Y-120540000D02*
X229370000Y-120540000D01*
X229370000Y-120540000D02*
X231910000Y-118000000D01*
X231910000Y-118000000D02*
X231910000Y-115460000D01*
X54500000Y-116975000D02*
X52500000Y-116975000D01*
X52500000Y-119025000D02*
X54500000Y-119025000D01*
X82000000Y-116975000D02*
X80000000Y-116975000D01*
X80000000Y-119025000D02*
X82000000Y-119025000D01*
X110000000Y-116975000D02*
X108000000Y-116975000D01*
X108000000Y-119025000D02*
X110000000Y-119025000D01*
X72000000Y-59025000D02*
X74000000Y-59025000D01*
X74000000Y-56975000D02*
X72000000Y-56975000D01*
X88000000Y-59025000D02*
X90000000Y-59025000D01*
X90000000Y-56975000D02*
X88000000Y-56975000D01*
X47000000Y-46975000D02*
X45000000Y-46975000D01*
X45000000Y-49025000D02*
X47000000Y-49025000D01*
X241809000Y-108857000D02*
X241555000Y-108857000D01*
X241555000Y-108857000D02*
X241555000Y-111143000D01*
X241555000Y-111143000D02*
X241809000Y-111143000D01*
X241809000Y-108857000D02*
X241809000Y-111143000D01*
X241809000Y-111143000D02*
X243460000Y-111143000D01*
X245238000Y-108857000D02*
X246889000Y-108857000D01*
X246889000Y-108857000D02*
X246889000Y-111143000D01*
X246889000Y-111143000D02*
X245238000Y-111143000D01*
X243460000Y-108857000D02*
X241809000Y-108857000D01*
X229480000Y-51460000D02*
X229480000Y-54000000D01*
X229480000Y-54000000D02*
X226940000Y-56540000D01*
X226940000Y-56540000D02*
X168520000Y-56540000D01*
X168520000Y-56540000D02*
X168520000Y-51460000D01*
X168520000Y-51460000D02*
X229480000Y-51460000D01*
X229480000Y-89460000D02*
X229480000Y-92000000D01*
X229480000Y-92000000D02*
X226940000Y-94540000D01*
X226940000Y-94540000D02*
X168520000Y-94540000D01*
X168520000Y-94540000D02*
X168520000Y-89460000D01*
X168520000Y-89460000D02*
X229480000Y-89460000D01*
X229480000Y-127460000D02*
X229480000Y-130000000D01*
X229480000Y-130000000D02*
X226940000Y-132540000D01*
X226940000Y-132540000D02*
X168520000Y-132540000D01*
X168520000Y-132540000D02*
X168520000Y-127460000D01*
X168520000Y-127460000D02*
X229480000Y-127460000D01*
X91315981Y-50238000D02*
G75*
G03X91315981Y-50238000I-283981J0D01*
G01*
X91540000Y-49730000D02*
X86460000Y-49730000D01*
X86460000Y-49730000D02*
X86460000Y-52270000D01*
X86460000Y-52270000D02*
X91540000Y-52270000D01*
X91540000Y-52270000D02*
X91540000Y-49730000D01*
X75315981Y-50238000D02*
G75*
G03X75315981Y-50238000I-283981J0D01*
G01*
X75540000Y-49730000D02*
X70460000Y-49730000D01*
X70460000Y-49730000D02*
X70460000Y-52270000D01*
X70460000Y-52270000D02*
X75540000Y-52270000D01*
X75540000Y-52270000D02*
X75540000Y-49730000D01*
X51251981Y-51762000D02*
G75*
G03X51251981Y-51762000I-283981J0D01*
G01*
X50460000Y-52270000D02*
X55540000Y-52270000D01*
X55540000Y-52270000D02*
X55540000Y-49730000D01*
X55540000Y-49730000D02*
X50460000Y-49730000D01*
X50460000Y-49730000D02*
X50460000Y-52270000D01*
X44346981Y-121762000D02*
G75*
G03X44346981Y-121762000I-283981J0D01*
G01*
X43555000Y-122270000D02*
X48635000Y-122270000D01*
X48635000Y-122270000D02*
X48635000Y-119730000D01*
X48635000Y-119730000D02*
X43555000Y-119730000D01*
X43555000Y-119730000D02*
X43555000Y-122270000D01*
X72251981Y-121762000D02*
G75*
G03X72251981Y-121762000I-283981J0D01*
G01*
X71460000Y-122270000D02*
X76540000Y-122270000D01*
X76540000Y-122270000D02*
X76540000Y-119730000D01*
X76540000Y-119730000D02*
X71460000Y-119730000D01*
X71460000Y-119730000D02*
X71460000Y-122270000D01*
X100251981Y-121762000D02*
G75*
G03X100251981Y-121762000I-283981J0D01*
G01*
X99460000Y-122270000D02*
X104540000Y-122270000D01*
X104540000Y-122270000D02*
X104540000Y-119730000D01*
X104540000Y-119730000D02*
X99460000Y-119730000D01*
X99460000Y-119730000D02*
X99460000Y-122270000D01*
X34925000Y-126450000D02*
X34925000Y-124450000D01*
X37075000Y-124450000D02*
X37075000Y-126450000D01*
X38925000Y-126450000D02*
X38925000Y-124450000D01*
X41075000Y-124450000D02*
X41075000Y-126450000D01*
X50925000Y-126450000D02*
X50925000Y-124450000D01*
X53075000Y-124450000D02*
X53075000Y-126450000D01*
X54925000Y-126450000D02*
X54925000Y-124450000D01*
X57075000Y-124450000D02*
X57075000Y-126450000D01*
X62925000Y-126450000D02*
X62925000Y-124450000D01*
X65075000Y-124450000D02*
X65075000Y-126450000D01*
X66925000Y-126450000D02*
X66925000Y-124450000D01*
X69075000Y-124450000D02*
X69075000Y-126450000D01*
X78925000Y-126450000D02*
X78925000Y-124450000D01*
X81075000Y-124450000D02*
X81075000Y-126450000D01*
X82925000Y-126450000D02*
X82925000Y-124450000D01*
X85075000Y-124450000D02*
X85075000Y-126450000D01*
X90925000Y-126450000D02*
X90925000Y-124450000D01*
X93075000Y-124450000D02*
X93075000Y-126450000D01*
X94925000Y-126450000D02*
X94925000Y-124450000D01*
X97075000Y-124450000D02*
X97075000Y-126450000D01*
X106925000Y-126450000D02*
X106925000Y-124450000D01*
X109075000Y-124450000D02*
X109075000Y-126450000D01*
X110925000Y-126450000D02*
X110925000Y-124450000D01*
X113075000Y-124450000D02*
X113075000Y-126450000D01*
X115950000Y-95425000D02*
X117950000Y-95425000D01*
X117950000Y-97575000D02*
X115950000Y-97575000D01*
X60075000Y-46450000D02*
X60075000Y-48450000D01*
X57925000Y-48450000D02*
X57925000Y-46450000D01*
X68075000Y-46450000D02*
X68075000Y-48450000D01*
X65925000Y-48450000D02*
X65925000Y-46450000D01*
X64075000Y-46450000D02*
X64075000Y-48450000D01*
X61925000Y-48450000D02*
X61925000Y-46450000D01*
X80075000Y-46450000D02*
X80075000Y-48450000D01*
X77925000Y-48450000D02*
X77925000Y-46450000D01*
X96075000Y-46450000D02*
X96075000Y-48450000D01*
X93925000Y-48450000D02*
X93925000Y-46450000D01*
X47925000Y-60000000D02*
X47925000Y-58000000D01*
X50075000Y-58000000D02*
X50075000Y-60000000D01*
X51925000Y-60000000D02*
X51925000Y-58000000D01*
X54075000Y-58000000D02*
X54075000Y-60000000D01*
X55925000Y-60000000D02*
X55925000Y-58000000D01*
X58075000Y-58000000D02*
X58075000Y-60000000D01*
X59925000Y-60000000D02*
X59925000Y-58000000D01*
X62075000Y-58000000D02*
X62075000Y-60000000D01*
X115950000Y-91925000D02*
X117950000Y-91925000D01*
X117950000Y-94075000D02*
X115950000Y-94075000D01*
X193321420Y-107190000D02*
G75*
G03X193321420Y-107190000I-718420J0D01*
G01*
X196540000Y-105920000D02*
X196540000Y-111000000D01*
X196540000Y-111000000D02*
X191460000Y-111000000D01*
X191460000Y-111000000D02*
X191460000Y-105920000D01*
X196540000Y-105920000D02*
X191460000Y-105920000D01*
X178570000Y-46810000D02*
X148090000Y-46810000D01*
X148090000Y-46810000D02*
X148090000Y-32840000D01*
X148090000Y-32840000D02*
X178570000Y-32840000D01*
X178570000Y-32840000D02*
X178570000Y-46810000D01*
X231910000Y-46810000D02*
X201430000Y-46810000D01*
X201430000Y-46810000D02*
X201430000Y-32840000D01*
X201430000Y-32840000D02*
X231910000Y-32840000D01*
X231910000Y-32840000D02*
X231910000Y-46810000D01*
X231910000Y-40460000D02*
X148090000Y-40460000D01*
X148090000Y-40460000D02*
X148090000Y-45540000D01*
X148090000Y-45540000D02*
X229370000Y-45540000D01*
X229370000Y-45540000D02*
X231910000Y-43000000D01*
X231910000Y-43000000D02*
X231910000Y-40460000D01*
X178570000Y-83810000D02*
X148090000Y-83810000D01*
X148090000Y-83810000D02*
X148090000Y-69840000D01*
X148090000Y-69840000D02*
X178570000Y-69840000D01*
X178570000Y-69840000D02*
X178570000Y-83810000D01*
X231910000Y-83810000D02*
X201430000Y-83810000D01*
X201430000Y-83810000D02*
X201430000Y-69840000D01*
X201430000Y-69840000D02*
X231910000Y-69840000D01*
X231910000Y-69840000D02*
X231910000Y-83810000D01*
X231910000Y-77460000D02*
X148090000Y-77460000D01*
X148090000Y-77460000D02*
X148090000Y-82540000D01*
X148090000Y-82540000D02*
X229370000Y-82540000D01*
X229370000Y-82540000D02*
X231910000Y-80000000D01*
X231910000Y-80000000D02*
X231910000Y-77460000D01*
X241809000Y-116857000D02*
X241555000Y-116857000D01*
X241555000Y-116857000D02*
X241555000Y-119143000D01*
X241555000Y-119143000D02*
X241809000Y-119143000D01*
X241809000Y-116857000D02*
X241809000Y-119143000D01*
X241809000Y-119143000D02*
X243460000Y-119143000D01*
X245238000Y-116857000D02*
X246889000Y-116857000D01*
X246889000Y-116857000D02*
X246889000Y-119143000D01*
X246889000Y-119143000D02*
X245238000Y-119143000D01*
X243460000Y-116857000D02*
X241809000Y-116857000D01*
D14*
X38610000Y-47730000D02*
X38610000Y-50390000D01*
X38610000Y-50390000D02*
X41390000Y-50390000D01*
X41390000Y-50390000D02*
X41390000Y-47730000D01*
X41390000Y-47730000D02*
X38610000Y-47730000D01*
X38610000Y-46460000D02*
X38610000Y-45070000D01*
X38610000Y-45070000D02*
X40000000Y-45070000D01*
X33610000Y-47730000D02*
X33610000Y-50390000D01*
X33610000Y-50390000D02*
X36390000Y-50390000D01*
X36390000Y-50390000D02*
X36390000Y-47730000D01*
X36390000Y-47730000D02*
X33610000Y-47730000D01*
X33610000Y-46460000D02*
X33610000Y-45070000D01*
X33610000Y-45070000D02*
X35000000Y-45070000D01*
X244730000Y-106390000D02*
X247390000Y-106390000D01*
X247390000Y-106390000D02*
X247390000Y-103610000D01*
X247390000Y-103610000D02*
X244730000Y-103610000D01*
X244730000Y-103610000D02*
X244730000Y-106390000D01*
X243460000Y-106390000D02*
X242070000Y-106390000D01*
X242070000Y-106390000D02*
X242070000Y-105000000D01*
X205270000Y-103610000D02*
X202610000Y-103610000D01*
X202610000Y-103610000D02*
X202610000Y-106390000D01*
X202610000Y-106390000D02*
X205270000Y-106390000D01*
X205270000Y-106390000D02*
X205270000Y-103610000D01*
X206540000Y-103610000D02*
X207930000Y-103610000D01*
X207930000Y-103610000D02*
X207930000Y-105000000D01*
D13*
X113500000Y-41500000D02*
X104500000Y-41500000D01*
X104500000Y-41500000D02*
X104500000Y-30500000D01*
X104500000Y-30500000D02*
X113500000Y-30500000D01*
X113500000Y-30500000D02*
X113500000Y-41500000D01*
X109500000Y-35000000D02*
G75*
G03X109500000Y-35000000I-500000J0D01*
G01*
X250450000Y-143500000D02*
X250450000Y-134500000D01*
X250450000Y-134500000D02*
X261450000Y-134500000D01*
X261450000Y-134500000D02*
X261450000Y-143500000D01*
X261450000Y-143500000D02*
X250450000Y-143500000D01*
X257450000Y-139000000D02*
G75*
G03X257450000Y-139000000I-500000J0D01*
G01*
X250450000Y-39500000D02*
X250450000Y-30500000D01*
X250450000Y-30500000D02*
X261450000Y-30500000D01*
X261450000Y-30500000D02*
X261450000Y-39500000D01*
X261450000Y-39500000D02*
X250450000Y-39500000D01*
X257450000Y-35000000D02*
G75*
G03X257450000Y-35000000I-500000J0D01*
G01*
X193321420Y-100390000D02*
G75*
G03X193321420Y-100390000I-718420J0D01*
G01*
X196540000Y-99120000D02*
X196540000Y-104200000D01*
X196540000Y-104200000D02*
X191460000Y-104200000D01*
X191460000Y-104200000D02*
X191460000Y-99120000D01*
X196540000Y-99120000D02*
X191460000Y-99120000D01*
X255588000Y-114327000D02*
X250127000Y-114327000D01*
X263589000Y-114327000D02*
X258255000Y-114327000D01*
X258128000Y-130583000D02*
X263589000Y-130583000D01*
X250127000Y-130583000D02*
X255588000Y-130583000D01*
X250127000Y-114327000D02*
X250127000Y-130583000D01*
X263589000Y-130583000D02*
X263589000Y-114327000D01*
X75673000Y-35588000D02*
X75673000Y-30127000D01*
X75673000Y-43589000D02*
X75673000Y-38255000D01*
X59417000Y-38128000D02*
X59417000Y-43589000D01*
X59417000Y-30127000D02*
X59417000Y-35588000D01*
X75673000Y-30127000D02*
X59417000Y-30127000D01*
X59417000Y-43589000D02*
X75673000Y-43589000D01*
X58673000Y-35588000D02*
X58673000Y-30127000D01*
X58673000Y-43589000D02*
X58673000Y-38255000D01*
X42417000Y-38128000D02*
X42417000Y-43589000D01*
X42417000Y-30127000D02*
X42417000Y-35588000D01*
X58673000Y-30127000D02*
X42417000Y-30127000D01*
X42417000Y-43589000D02*
X58673000Y-43589000D01*
X41673000Y-35588000D02*
X41673000Y-30127000D01*
X41673000Y-43589000D02*
X41673000Y-38255000D01*
X25417000Y-38128000D02*
X25417000Y-43589000D01*
X25417000Y-30127000D02*
X25417000Y-35588000D01*
X41673000Y-30127000D02*
X25417000Y-30127000D01*
X25417000Y-43589000D02*
X41673000Y-43589000D01*
X255588000Y-43327000D02*
X250127000Y-43327000D01*
X263589000Y-43327000D02*
X258255000Y-43327000D01*
X258128000Y-59583000D02*
X263589000Y-59583000D01*
X250127000Y-59583000D02*
X255588000Y-59583000D01*
X250127000Y-43327000D02*
X250127000Y-59583000D01*
X263589000Y-59583000D02*
X263589000Y-43327000D01*
X255588000Y-77327000D02*
X250127000Y-77327000D01*
X263589000Y-77327000D02*
X258255000Y-77327000D01*
X258128000Y-93583000D02*
X263589000Y-93583000D01*
X250127000Y-93583000D02*
X255588000Y-93583000D01*
X250127000Y-77327000D02*
X250127000Y-93583000D01*
X263589000Y-93583000D02*
X263589000Y-77327000D01*
X59327000Y-138412000D02*
X59327000Y-143873000D01*
X59327000Y-130411000D02*
X59327000Y-135745000D01*
X75583000Y-135872000D02*
X75583000Y-130411000D01*
X75583000Y-143873000D02*
X75583000Y-138412000D01*
X59327000Y-143873000D02*
X75583000Y-143873000D01*
X75583000Y-130411000D02*
X59327000Y-130411000D01*
X93327000Y-138412000D02*
X93327000Y-143873000D01*
X93327000Y-130411000D02*
X93327000Y-135745000D01*
X109583000Y-135872000D02*
X109583000Y-130411000D01*
X109583000Y-143873000D02*
X109583000Y-138412000D01*
X93327000Y-143873000D02*
X109583000Y-143873000D01*
X109583000Y-130411000D02*
X93327000Y-130411000D01*
X110327000Y-138412000D02*
X110327000Y-143873000D01*
X110327000Y-130411000D02*
X110327000Y-135745000D01*
X126583000Y-135872000D02*
X126583000Y-130411000D01*
X126583000Y-143873000D02*
X126583000Y-138412000D01*
X110327000Y-143873000D02*
X126583000Y-143873000D01*
X126583000Y-130411000D02*
X110327000Y-130411000D01*
D14*
X31286000Y-125000000D02*
G75*
G03X31286000Y-125000000I-2286000J0D01*
G01*
X126286000Y-125000000D02*
G75*
G03X126286000Y-125000000I-2286000J0D01*
G01*
X246286000Y-125000000D02*
G75*
G03X246286000Y-125000000I-2286000J0D01*
G01*
X246286000Y-49000000D02*
G75*
G03X246286000Y-49000000I-2286000J0D01*
G01*
X126286000Y-49000000D02*
G75*
G03X126286000Y-49000000I-2286000J0D01*
G01*
X31286000Y-49000000D02*
G75*
G03X31286000Y-49000000I-2286000J0D01*
G01*
D13*
X81452381Y-48092857D02*
X80976190Y-48426191D01*
X81452381Y-48664286D02*
X80452381Y-48664286D01*
X80452381Y-48283333D01*
X80500000Y-48188095D01*
X80547619Y-48140476D01*
X80642857Y-48092857D01*
X80785714Y-48092857D01*
X80880952Y-48140476D01*
X80928571Y-48188095D01*
X80976190Y-48283333D01*
X80976190Y-48664286D01*
X81452381Y-47140476D02*
X81452381Y-47711905D01*
X81452381Y-47426191D02*
X80452381Y-47426191D01*
X80595238Y-47521429D01*
X80690476Y-47616667D01*
X80738095Y-47711905D01*
X81452381Y-46664286D02*
X81452381Y-46473810D01*
X81404762Y-46378571D01*
X81357143Y-46330952D01*
X81214286Y-46235714D01*
X81023810Y-46188095D01*
X80642857Y-46188095D01*
X80547619Y-46235714D01*
X80500000Y-46283333D01*
X80452381Y-46378571D01*
X80452381Y-46569048D01*
X80500000Y-46664286D01*
X80547619Y-46711905D01*
X80642857Y-46759524D01*
X80880952Y-46759524D01*
X80976190Y-46711905D01*
X81023810Y-46664286D01*
X81071429Y-46569048D01*
X81071429Y-46378571D01*
X81023810Y-46283333D01*
X80976190Y-46235714D01*
X80880952Y-46188095D01*
X264311381Y-75050238D02*
X265025667Y-75050238D01*
X265168524Y-75097858D01*
X265263762Y-75193096D01*
X265311381Y-75335953D01*
X265311381Y-75431191D01*
X265025667Y-74621667D02*
X265025667Y-74145476D01*
X265311381Y-74716905D02*
X264311381Y-74383572D01*
X265311381Y-74050238D01*
X265216143Y-73145476D02*
X265263762Y-73193095D01*
X265311381Y-73335952D01*
X265311381Y-73431190D01*
X265263762Y-73574048D01*
X265168524Y-73669286D01*
X265073286Y-73716905D01*
X264882810Y-73764524D01*
X264739952Y-73764524D01*
X264549476Y-73716905D01*
X264454238Y-73669286D01*
X264359000Y-73574048D01*
X264311381Y-73431190D01*
X264311381Y-73335952D01*
X264359000Y-73193095D01*
X264406619Y-73145476D01*
X265311381Y-72716905D02*
X264311381Y-72716905D01*
X265311381Y-72145476D02*
X264739952Y-72574048D01*
X264311381Y-72145476D02*
X264882810Y-72716905D01*
X265406619Y-71955000D02*
X265406619Y-71193095D01*
X265263762Y-71002619D02*
X265311381Y-70859762D01*
X265311381Y-70621666D01*
X265263762Y-70526428D01*
X265216143Y-70478809D01*
X265120905Y-70431190D01*
X265025667Y-70431190D01*
X264930429Y-70478809D01*
X264882810Y-70526428D01*
X264835190Y-70621666D01*
X264787571Y-70812143D01*
X264739952Y-70907381D01*
X264692333Y-70955000D01*
X264597095Y-71002619D01*
X264501857Y-71002619D01*
X264406619Y-70955000D01*
X264359000Y-70907381D01*
X264311381Y-70812143D01*
X264311381Y-70574047D01*
X264359000Y-70431190D01*
X264311381Y-70145476D02*
X264311381Y-69574047D01*
X265311381Y-69859762D02*
X264311381Y-69859762D01*
X264787571Y-69240714D02*
X264787571Y-68907380D01*
X265311381Y-68764523D02*
X265311381Y-69240714D01*
X264311381Y-69240714D01*
X264311381Y-68764523D01*
X265311381Y-68335952D02*
X264311381Y-68335952D01*
X264311381Y-67954999D01*
X264359000Y-67859761D01*
X264406619Y-67812142D01*
X264501857Y-67764523D01*
X264644714Y-67764523D01*
X264739952Y-67812142D01*
X264787571Y-67859761D01*
X264835190Y-67954999D01*
X264835190Y-68335952D01*
X265311381Y-67335952D02*
X264311381Y-67335952D01*
X264311381Y-66954999D01*
X264359000Y-66859761D01*
X264406619Y-66812142D01*
X264501857Y-66764523D01*
X264644714Y-66764523D01*
X264739952Y-66812142D01*
X264787571Y-66859761D01*
X264835190Y-66954999D01*
X264835190Y-67335952D01*
X264787571Y-66335952D02*
X264787571Y-66002618D01*
X265311381Y-65859761D02*
X265311381Y-66335952D01*
X264311381Y-66335952D01*
X264311381Y-65859761D01*
X265311381Y-64859761D02*
X264835190Y-65193095D01*
X265311381Y-65431190D02*
X264311381Y-65431190D01*
X264311381Y-65050237D01*
X264359000Y-64954999D01*
X264406619Y-64907380D01*
X264501857Y-64859761D01*
X264644714Y-64859761D01*
X264739952Y-64907380D01*
X264787571Y-64954999D01*
X264835190Y-65050237D01*
X264835190Y-65431190D01*
X265406619Y-64669285D02*
X265406619Y-63907380D01*
X264835190Y-63478809D02*
X265311381Y-63478809D01*
X264311381Y-63812142D02*
X264835190Y-63478809D01*
X264311381Y-63145475D01*
X265406619Y-63050237D02*
X265406619Y-62288332D01*
X265311381Y-61526427D02*
X265311381Y-62097856D01*
X265311381Y-61812142D02*
X264311381Y-61812142D01*
X264454238Y-61907380D01*
X264549476Y-62002618D01*
X264597095Y-62097856D01*
X264311381Y-109145476D02*
X265025667Y-109145476D01*
X265168524Y-109193096D01*
X265263762Y-109288334D01*
X265311381Y-109431191D01*
X265311381Y-109526429D01*
X265025667Y-108716905D02*
X265025667Y-108240714D01*
X265311381Y-108812143D02*
X264311381Y-108478810D01*
X265311381Y-108145476D01*
X265216143Y-107240714D02*
X265263762Y-107288333D01*
X265311381Y-107431190D01*
X265311381Y-107526428D01*
X265263762Y-107669286D01*
X265168524Y-107764524D01*
X265073286Y-107812143D01*
X264882810Y-107859762D01*
X264739952Y-107859762D01*
X264549476Y-107812143D01*
X264454238Y-107764524D01*
X264359000Y-107669286D01*
X264311381Y-107526428D01*
X264311381Y-107431190D01*
X264359000Y-107288333D01*
X264406619Y-107240714D01*
X265311381Y-106812143D02*
X264311381Y-106812143D01*
X265311381Y-106240714D02*
X264739952Y-106669286D01*
X264311381Y-106240714D02*
X264882810Y-106812143D01*
X265406619Y-106050238D02*
X265406619Y-105288333D01*
X265025667Y-105097857D02*
X265025667Y-104621666D01*
X265311381Y-105193095D02*
X264311381Y-104859762D01*
X265311381Y-104526428D01*
X265311381Y-104193095D02*
X264311381Y-104193095D01*
X265311381Y-103145476D02*
X264835190Y-103478810D01*
X265311381Y-103716905D02*
X264311381Y-103716905D01*
X264311381Y-103335952D01*
X264359000Y-103240714D01*
X264406619Y-103193095D01*
X264501857Y-103145476D01*
X264644714Y-103145476D01*
X264739952Y-103193095D01*
X264787571Y-103240714D01*
X264835190Y-103335952D01*
X264835190Y-103716905D01*
X265406619Y-102955000D02*
X265406619Y-102193095D01*
X265311381Y-101431190D02*
X265311381Y-102002619D01*
X265311381Y-101716905D02*
X264311381Y-101716905D01*
X264454238Y-101812143D01*
X264549476Y-101907381D01*
X264597095Y-102002619D01*
X79452381Y-43952381D02*
X79452381Y-44666667D01*
X79404761Y-44809524D01*
X79309523Y-44904762D01*
X79166666Y-44952381D01*
X79071428Y-44952381D01*
X79880952Y-44666667D02*
X80357143Y-44666667D01*
X79785714Y-44952381D02*
X80119047Y-43952381D01*
X80452381Y-44952381D01*
X81357143Y-44857143D02*
X81309524Y-44904762D01*
X81166667Y-44952381D01*
X81071429Y-44952381D01*
X80928571Y-44904762D01*
X80833333Y-44809524D01*
X80785714Y-44714286D01*
X80738095Y-44523810D01*
X80738095Y-44380952D01*
X80785714Y-44190476D01*
X80833333Y-44095238D01*
X80928571Y-44000000D01*
X81071429Y-43952381D01*
X81166667Y-43952381D01*
X81309524Y-44000000D01*
X81357143Y-44047619D01*
X81785714Y-44952381D02*
X81785714Y-43952381D01*
X82357143Y-44952381D02*
X81928571Y-44380952D01*
X82357143Y-43952381D02*
X81785714Y-44523810D01*
X82547619Y-45047619D02*
X83309524Y-45047619D01*
X84119048Y-44857143D02*
X84071429Y-44904762D01*
X83928572Y-44952381D01*
X83833334Y-44952381D01*
X83690476Y-44904762D01*
X83595238Y-44809524D01*
X83547619Y-44714286D01*
X83500000Y-44523810D01*
X83500000Y-44380952D01*
X83547619Y-44190476D01*
X83595238Y-44095238D01*
X83690476Y-44000000D01*
X83833334Y-43952381D01*
X83928572Y-43952381D01*
X84071429Y-44000000D01*
X84119048Y-44047619D01*
X84547619Y-44952381D02*
X84547619Y-43952381D01*
X84547619Y-44428571D02*
X85119048Y-44428571D01*
X85119048Y-44952381D02*
X85119048Y-43952381D01*
X85595238Y-44952381D02*
X85595238Y-43952381D01*
X86547619Y-44952381D02*
X86071428Y-44952381D01*
X86071428Y-43952381D01*
X87357143Y-44952381D02*
X86880952Y-44952381D01*
X86880952Y-43952381D01*
X87690476Y-44428571D02*
X88023810Y-44428571D01*
X88166667Y-44952381D02*
X87690476Y-44952381D01*
X87690476Y-43952381D01*
X88166667Y-43952381D01*
X89166667Y-44952381D02*
X88833333Y-44476190D01*
X88595238Y-44952381D02*
X88595238Y-43952381D01*
X88976191Y-43952381D01*
X89071429Y-44000000D01*
X89119048Y-44047619D01*
X89166667Y-44142857D01*
X89166667Y-44285714D01*
X89119048Y-44380952D01*
X89071429Y-44428571D01*
X88976191Y-44476190D01*
X88595238Y-44476190D01*
X89357143Y-45047619D02*
X90119048Y-45047619D01*
X90880953Y-44952381D02*
X90309524Y-44952381D01*
X90595238Y-44952381D02*
X90595238Y-43952381D01*
X90500000Y-44095238D01*
X90404762Y-44190476D01*
X90309524Y-44238095D01*
X81883572Y-128593381D02*
X81883572Y-129307667D01*
X81835952Y-129450524D01*
X81740714Y-129545762D01*
X81597857Y-129593381D01*
X81502619Y-129593381D01*
X82312143Y-129307667D02*
X82788334Y-129307667D01*
X82216905Y-129593381D02*
X82550238Y-128593381D01*
X82883572Y-129593381D01*
X83788334Y-129498143D02*
X83740715Y-129545762D01*
X83597858Y-129593381D01*
X83502620Y-129593381D01*
X83359762Y-129545762D01*
X83264524Y-129450524D01*
X83216905Y-129355286D01*
X83169286Y-129164810D01*
X83169286Y-129021952D01*
X83216905Y-128831476D01*
X83264524Y-128736238D01*
X83359762Y-128641000D01*
X83502620Y-128593381D01*
X83597858Y-128593381D01*
X83740715Y-128641000D01*
X83788334Y-128688619D01*
X84216905Y-129593381D02*
X84216905Y-128593381D01*
X84788334Y-129593381D02*
X84359762Y-129021952D01*
X84788334Y-128593381D02*
X84216905Y-129164810D01*
X84978810Y-129688619D02*
X85740715Y-129688619D01*
X86169286Y-129117190D02*
X86169286Y-129593381D01*
X85835953Y-128593381D02*
X86169286Y-129117190D01*
X86502620Y-128593381D01*
X86788334Y-128688619D02*
X86835953Y-128641000D01*
X86931191Y-128593381D01*
X87169287Y-128593381D01*
X87264525Y-128641000D01*
X87312144Y-128688619D01*
X87359763Y-128783857D01*
X87359763Y-128879095D01*
X87312144Y-129021952D01*
X86740715Y-129593381D01*
X87359763Y-129593381D01*
X30835953Y-128593381D02*
X30835953Y-129307667D01*
X30788333Y-129450524D01*
X30693095Y-129545762D01*
X30550238Y-129593381D01*
X30455000Y-129593381D01*
X31264524Y-129307667D02*
X31740715Y-129307667D01*
X31169286Y-129593381D02*
X31502619Y-128593381D01*
X31835953Y-129593381D01*
X32740715Y-129498143D02*
X32693096Y-129545762D01*
X32550239Y-129593381D01*
X32455001Y-129593381D01*
X32312143Y-129545762D01*
X32216905Y-129450524D01*
X32169286Y-129355286D01*
X32121667Y-129164810D01*
X32121667Y-129021952D01*
X32169286Y-128831476D01*
X32216905Y-128736238D01*
X32312143Y-128641000D01*
X32455001Y-128593381D01*
X32550239Y-128593381D01*
X32693096Y-128641000D01*
X32740715Y-128688619D01*
X33169286Y-129593381D02*
X33169286Y-128593381D01*
X33740715Y-129593381D02*
X33312143Y-129021952D01*
X33740715Y-128593381D02*
X33169286Y-129164810D01*
X33931191Y-129688619D02*
X34693096Y-129688619D01*
X34835953Y-128593381D02*
X35502620Y-129593381D01*
X35502620Y-128593381D02*
X34835953Y-129593381D01*
X36407382Y-129593381D02*
X35835953Y-129593381D01*
X36121667Y-129593381D02*
X36121667Y-128593381D01*
X36026429Y-128736238D01*
X35931191Y-128831476D01*
X35835953Y-128879095D01*
X47835953Y-128593381D02*
X47835953Y-129307667D01*
X47788333Y-129450524D01*
X47693095Y-129545762D01*
X47550238Y-129593381D01*
X47455000Y-129593381D01*
X48264524Y-129307667D02*
X48740715Y-129307667D01*
X48169286Y-129593381D02*
X48502619Y-128593381D01*
X48835953Y-129593381D01*
X49740715Y-129498143D02*
X49693096Y-129545762D01*
X49550239Y-129593381D01*
X49455001Y-129593381D01*
X49312143Y-129545762D01*
X49216905Y-129450524D01*
X49169286Y-129355286D01*
X49121667Y-129164810D01*
X49121667Y-129021952D01*
X49169286Y-128831476D01*
X49216905Y-128736238D01*
X49312143Y-128641000D01*
X49455001Y-128593381D01*
X49550239Y-128593381D01*
X49693096Y-128641000D01*
X49740715Y-128688619D01*
X50169286Y-129593381D02*
X50169286Y-128593381D01*
X50740715Y-129593381D02*
X50312143Y-129021952D01*
X50740715Y-128593381D02*
X50169286Y-129164810D01*
X50931191Y-129688619D02*
X51693096Y-129688619D01*
X51835953Y-128593381D02*
X52502620Y-129593381D01*
X52502620Y-128593381D02*
X51835953Y-129593381D01*
X52835953Y-128688619D02*
X52883572Y-128641000D01*
X52978810Y-128593381D01*
X53216906Y-128593381D01*
X53312144Y-128641000D01*
X53359763Y-128688619D01*
X53407382Y-128783857D01*
X53407382Y-128879095D01*
X53359763Y-129021952D01*
X52788334Y-129593381D01*
X53407382Y-129593381D01*
X21134667Y-86575429D02*
X21134667Y-86099238D01*
X21420381Y-86670667D02*
X20420381Y-86337334D01*
X21420381Y-86004000D01*
X21420381Y-85670667D02*
X20753714Y-85670667D01*
X20944190Y-85670667D02*
X20848952Y-85623048D01*
X20801333Y-85575429D01*
X20753714Y-85480191D01*
X20753714Y-85384952D01*
X21420381Y-84623047D02*
X20420381Y-84623047D01*
X21372762Y-84623047D02*
X21420381Y-84718285D01*
X21420381Y-84908762D01*
X21372762Y-85004000D01*
X21325143Y-85051619D01*
X21229905Y-85099238D01*
X20944190Y-85099238D01*
X20848952Y-85051619D01*
X20801333Y-85004000D01*
X20753714Y-84908762D01*
X20753714Y-84718285D01*
X20801333Y-84623047D01*
X20753714Y-83718285D02*
X21420381Y-83718285D01*
X20753714Y-84146857D02*
X21277524Y-84146857D01*
X21372762Y-84099238D01*
X21420381Y-84004000D01*
X21420381Y-83861142D01*
X21372762Y-83765904D01*
X21325143Y-83718285D01*
X21420381Y-83242095D02*
X20753714Y-83242095D01*
X20420381Y-83242095D02*
X20468000Y-83289714D01*
X20515619Y-83242095D01*
X20468000Y-83194476D01*
X20420381Y-83242095D01*
X20515619Y-83242095D01*
X20753714Y-82765905D02*
X21420381Y-82765905D01*
X20848952Y-82765905D02*
X20801333Y-82718286D01*
X20753714Y-82623048D01*
X20753714Y-82480190D01*
X20801333Y-82384952D01*
X20896571Y-82337333D01*
X21420381Y-82337333D01*
X21420381Y-81718286D02*
X21372762Y-81813524D01*
X21325143Y-81861143D01*
X21229905Y-81908762D01*
X20944190Y-81908762D01*
X20848952Y-81861143D01*
X20801333Y-81813524D01*
X20753714Y-81718286D01*
X20753714Y-81575428D01*
X20801333Y-81480190D01*
X20848952Y-81432571D01*
X20944190Y-81384952D01*
X21229905Y-81384952D01*
X21325143Y-81432571D01*
X21372762Y-81480190D01*
X21420381Y-81575428D01*
X21420381Y-81718286D01*
X21420381Y-80432571D02*
X21420381Y-81004000D01*
X21420381Y-80718286D02*
X20420381Y-80718286D01*
X20563238Y-80813524D01*
X20658476Y-80908762D01*
X20706095Y-81004000D01*
X186000000Y-119722381D02*
X186000000Y-118722381D01*
X186333334Y-119436667D01*
X186666667Y-118722381D01*
X186666667Y-119722381D01*
X187619048Y-118722381D02*
X187142857Y-118722381D01*
X187095238Y-119198571D01*
X187142857Y-119150952D01*
X187238095Y-119103333D01*
X187476191Y-119103333D01*
X187571429Y-119150952D01*
X187619048Y-119198571D01*
X187666667Y-119293810D01*
X187666667Y-119531905D01*
X187619048Y-119627143D01*
X187571429Y-119674762D01*
X187476191Y-119722381D01*
X187238095Y-119722381D01*
X187142857Y-119674762D01*
X187095238Y-119627143D01*
X188523810Y-119055714D02*
X188523810Y-119722381D01*
X188285714Y-118674762D02*
X188047619Y-119389048D01*
X188666667Y-119389048D01*
X189000000Y-118817619D02*
X189047619Y-118770000D01*
X189142857Y-118722381D01*
X189380953Y-118722381D01*
X189476191Y-118770000D01*
X189523810Y-118817619D01*
X189571429Y-118912857D01*
X189571429Y-119008095D01*
X189523810Y-119150952D01*
X188952381Y-119722381D01*
X189571429Y-119722381D01*
X190000000Y-119722381D02*
X190000000Y-118722381D01*
X190000000Y-119198571D02*
X190571429Y-119198571D01*
X190571429Y-119722381D02*
X190571429Y-118722381D01*
X190809524Y-119817619D02*
X191571429Y-119817619D01*
X191714286Y-118722381D02*
X192380953Y-118722381D01*
X191714286Y-119722381D01*
X192380953Y-119722381D01*
X192523810Y-119817619D02*
X193285715Y-119817619D01*
X194047620Y-119722381D02*
X193476191Y-119722381D01*
X193761905Y-119722381D02*
X193761905Y-118722381D01*
X193666667Y-118865238D01*
X193571429Y-118960476D01*
X193476191Y-119008095D01*
X53333334Y-116357143D02*
X53285715Y-116404762D01*
X53142858Y-116452381D01*
X53047620Y-116452381D01*
X52904762Y-116404762D01*
X52809524Y-116309524D01*
X52761905Y-116214286D01*
X52714286Y-116023810D01*
X52714286Y-115880952D01*
X52761905Y-115690476D01*
X52809524Y-115595238D01*
X52904762Y-115500000D01*
X53047620Y-115452381D01*
X53142858Y-115452381D01*
X53285715Y-115500000D01*
X53333334Y-115547619D01*
X54285715Y-116452381D02*
X53714286Y-116452381D01*
X54000000Y-116452381D02*
X54000000Y-115452381D01*
X53904762Y-115595238D01*
X53809524Y-115690476D01*
X53714286Y-115738095D01*
X80833334Y-116357143D02*
X80785715Y-116404762D01*
X80642858Y-116452381D01*
X80547620Y-116452381D01*
X80404762Y-116404762D01*
X80309524Y-116309524D01*
X80261905Y-116214286D01*
X80214286Y-116023810D01*
X80214286Y-115880952D01*
X80261905Y-115690476D01*
X80309524Y-115595238D01*
X80404762Y-115500000D01*
X80547620Y-115452381D01*
X80642858Y-115452381D01*
X80785715Y-115500000D01*
X80833334Y-115547619D01*
X81214286Y-115547619D02*
X81261905Y-115500000D01*
X81357143Y-115452381D01*
X81595239Y-115452381D01*
X81690477Y-115500000D01*
X81738096Y-115547619D01*
X81785715Y-115642857D01*
X81785715Y-115738095D01*
X81738096Y-115880952D01*
X81166667Y-116452381D01*
X81785715Y-116452381D01*
X108833334Y-116357143D02*
X108785715Y-116404762D01*
X108642858Y-116452381D01*
X108547620Y-116452381D01*
X108404762Y-116404762D01*
X108309524Y-116309524D01*
X108261905Y-116214286D01*
X108214286Y-116023810D01*
X108214286Y-115880952D01*
X108261905Y-115690476D01*
X108309524Y-115595238D01*
X108404762Y-115500000D01*
X108547620Y-115452381D01*
X108642858Y-115452381D01*
X108785715Y-115500000D01*
X108833334Y-115547619D01*
X109166667Y-115452381D02*
X109785715Y-115452381D01*
X109452381Y-115833333D01*
X109595239Y-115833333D01*
X109690477Y-115880952D01*
X109738096Y-115928571D01*
X109785715Y-116023810D01*
X109785715Y-116261905D01*
X109738096Y-116357143D01*
X109690477Y-116404762D01*
X109595239Y-116452381D01*
X109309524Y-116452381D01*
X109214286Y-116404762D01*
X109166667Y-116357143D01*
X72833334Y-60657143D02*
X72785715Y-60704762D01*
X72642858Y-60752381D01*
X72547620Y-60752381D01*
X72404762Y-60704762D01*
X72309524Y-60609524D01*
X72261905Y-60514286D01*
X72214286Y-60323810D01*
X72214286Y-60180952D01*
X72261905Y-59990476D01*
X72309524Y-59895238D01*
X72404762Y-59800000D01*
X72547620Y-59752381D01*
X72642858Y-59752381D01*
X72785715Y-59800000D01*
X72833334Y-59847619D01*
X73690477Y-60085714D02*
X73690477Y-60752381D01*
X73452381Y-59704762D02*
X73214286Y-60419048D01*
X73833334Y-60419048D01*
X88833334Y-60657143D02*
X88785715Y-60704762D01*
X88642858Y-60752381D01*
X88547620Y-60752381D01*
X88404762Y-60704762D01*
X88309524Y-60609524D01*
X88261905Y-60514286D01*
X88214286Y-60323810D01*
X88214286Y-60180952D01*
X88261905Y-59990476D01*
X88309524Y-59895238D01*
X88404762Y-59800000D01*
X88547620Y-59752381D01*
X88642858Y-59752381D01*
X88785715Y-59800000D01*
X88833334Y-59847619D01*
X89738096Y-59752381D02*
X89261905Y-59752381D01*
X89214286Y-60228571D01*
X89261905Y-60180952D01*
X89357143Y-60133333D01*
X89595239Y-60133333D01*
X89690477Y-60180952D01*
X89738096Y-60228571D01*
X89785715Y-60323810D01*
X89785715Y-60561905D01*
X89738096Y-60657143D01*
X89690477Y-60704762D01*
X89595239Y-60752381D01*
X89357143Y-60752381D01*
X89261905Y-60704762D01*
X89214286Y-60657143D01*
X45833334Y-50357143D02*
X45785715Y-50404762D01*
X45642858Y-50452381D01*
X45547620Y-50452381D01*
X45404762Y-50404762D01*
X45309524Y-50309524D01*
X45261905Y-50214286D01*
X45214286Y-50023810D01*
X45214286Y-49880952D01*
X45261905Y-49690476D01*
X45309524Y-49595238D01*
X45404762Y-49500000D01*
X45547620Y-49452381D01*
X45642858Y-49452381D01*
X45785715Y-49500000D01*
X45833334Y-49547619D01*
X46690477Y-49452381D02*
X46500000Y-49452381D01*
X46404762Y-49500000D01*
X46357143Y-49547619D01*
X46261905Y-49690476D01*
X46214286Y-49880952D01*
X46214286Y-50261905D01*
X46261905Y-50357143D01*
X46309524Y-50404762D01*
X46404762Y-50452381D01*
X46595239Y-50452381D01*
X46690477Y-50404762D01*
X46738096Y-50357143D01*
X46785715Y-50261905D01*
X46785715Y-50023810D01*
X46738096Y-49928571D01*
X46690477Y-49880952D01*
X46595239Y-49833333D01*
X46404762Y-49833333D01*
X46309524Y-49880952D01*
X46261905Y-49928571D01*
X46214286Y-50023810D01*
X243610905Y-108452381D02*
X243610905Y-107452381D01*
X243849000Y-107452381D01*
X243991858Y-107500000D01*
X244087096Y-107595238D01*
X244134715Y-107690476D01*
X244182334Y-107880952D01*
X244182334Y-108023810D01*
X244134715Y-108214286D01*
X244087096Y-108309524D01*
X243991858Y-108404762D01*
X243849000Y-108452381D01*
X243610905Y-108452381D01*
X245134715Y-108452381D02*
X244563286Y-108452381D01*
X244849000Y-108452381D02*
X244849000Y-107452381D01*
X244753762Y-107595238D01*
X244658524Y-107690476D01*
X244563286Y-107738095D01*
X195642857Y-58580000D02*
X195547619Y-58532381D01*
X195404762Y-58532381D01*
X195261904Y-58580000D01*
X195166666Y-58675238D01*
X195119047Y-58770476D01*
X195071428Y-58960952D01*
X195071428Y-59103810D01*
X195119047Y-59294286D01*
X195166666Y-59389524D01*
X195261904Y-59484762D01*
X195404762Y-59532381D01*
X195500000Y-59532381D01*
X195642857Y-59484762D01*
X195690476Y-59437143D01*
X195690476Y-59103810D01*
X195500000Y-59103810D01*
X196071428Y-58627619D02*
X196119047Y-58580000D01*
X196214285Y-58532381D01*
X196452381Y-58532381D01*
X196547619Y-58580000D01*
X196595238Y-58627619D01*
X196642857Y-58722857D01*
X196642857Y-58818095D01*
X196595238Y-58960952D01*
X196023809Y-59532381D01*
X196642857Y-59532381D01*
X197261904Y-58532381D02*
X197357143Y-58532381D01*
X197452381Y-58580000D01*
X197500000Y-58627619D01*
X197547619Y-58722857D01*
X197595238Y-58913333D01*
X197595238Y-59151429D01*
X197547619Y-59341905D01*
X197500000Y-59437143D01*
X197452381Y-59484762D01*
X197357143Y-59532381D01*
X197261904Y-59532381D01*
X197166666Y-59484762D01*
X197119047Y-59437143D01*
X197071428Y-59341905D01*
X197023809Y-59151429D01*
X197023809Y-58913333D01*
X197071428Y-58722857D01*
X197119047Y-58627619D01*
X197166666Y-58580000D01*
X197261904Y-58532381D01*
X198547619Y-59532381D02*
X197976190Y-59532381D01*
X198261904Y-59532381D02*
X198261904Y-58532381D01*
X198166666Y-58675238D01*
X198071428Y-58770476D01*
X197976190Y-58818095D01*
X198880952Y-58532381D02*
X199547619Y-59532381D01*
X199547619Y-58532381D02*
X198880952Y-59532381D01*
X199690476Y-59627619D02*
X200452381Y-59627619D01*
X200595238Y-58532381D02*
X201261905Y-59532381D01*
X201261905Y-58532381D02*
X200595238Y-59532381D01*
X201404762Y-59627619D02*
X202166667Y-59627619D01*
X202928572Y-59532381D02*
X202357143Y-59532381D01*
X202642857Y-59532381D02*
X202642857Y-58532381D01*
X202547619Y-58675238D01*
X202452381Y-58770476D01*
X202357143Y-58818095D01*
X195690476Y-96580000D02*
X195595238Y-96532381D01*
X195452381Y-96532381D01*
X195309523Y-96580000D01*
X195214285Y-96675238D01*
X195166666Y-96770476D01*
X195119047Y-96960952D01*
X195119047Y-97103810D01*
X195166666Y-97294286D01*
X195214285Y-97389524D01*
X195309523Y-97484762D01*
X195452381Y-97532381D01*
X195547619Y-97532381D01*
X195690476Y-97484762D01*
X195738095Y-97437143D01*
X195738095Y-97103810D01*
X195547619Y-97103810D01*
X196119047Y-96627619D02*
X196166666Y-96580000D01*
X196261904Y-96532381D01*
X196500000Y-96532381D01*
X196595238Y-96580000D01*
X196642857Y-96627619D01*
X196690476Y-96722857D01*
X196690476Y-96818095D01*
X196642857Y-96960952D01*
X196071428Y-97532381D01*
X196690476Y-97532381D01*
X197309523Y-96532381D02*
X197404762Y-96532381D01*
X197500000Y-96580000D01*
X197547619Y-96627619D01*
X197595238Y-96722857D01*
X197642857Y-96913333D01*
X197642857Y-97151429D01*
X197595238Y-97341905D01*
X197547619Y-97437143D01*
X197500000Y-97484762D01*
X197404762Y-97532381D01*
X197309523Y-97532381D01*
X197214285Y-97484762D01*
X197166666Y-97437143D01*
X197119047Y-97341905D01*
X197071428Y-97151429D01*
X197071428Y-96913333D01*
X197119047Y-96722857D01*
X197166666Y-96627619D01*
X197214285Y-96580000D01*
X197309523Y-96532381D01*
X198595238Y-97532381D02*
X198023809Y-97532381D01*
X198309523Y-97532381D02*
X198309523Y-96532381D01*
X198214285Y-96675238D01*
X198119047Y-96770476D01*
X198023809Y-96818095D01*
X198928571Y-96532381D02*
X199595238Y-97532381D01*
X199595238Y-96532381D02*
X198928571Y-97532381D01*
X199738095Y-97627619D02*
X200500000Y-97627619D01*
X200928571Y-97056190D02*
X200928571Y-97532381D01*
X200595238Y-96532381D02*
X200928571Y-97056190D01*
X201261905Y-96532381D01*
X201357143Y-97627619D02*
X202119048Y-97627619D01*
X202880953Y-97532381D02*
X202309524Y-97532381D01*
X202595238Y-97532381D02*
X202595238Y-96532381D01*
X202500000Y-96675238D01*
X202404762Y-96770476D01*
X202309524Y-96818095D01*
X195642857Y-134580000D02*
X195547619Y-134532381D01*
X195404762Y-134532381D01*
X195261904Y-134580000D01*
X195166666Y-134675238D01*
X195119047Y-134770476D01*
X195071428Y-134960952D01*
X195071428Y-135103810D01*
X195119047Y-135294286D01*
X195166666Y-135389524D01*
X195261904Y-135484762D01*
X195404762Y-135532381D01*
X195500000Y-135532381D01*
X195642857Y-135484762D01*
X195690476Y-135437143D01*
X195690476Y-135103810D01*
X195500000Y-135103810D01*
X196071428Y-134627619D02*
X196119047Y-134580000D01*
X196214285Y-134532381D01*
X196452381Y-134532381D01*
X196547619Y-134580000D01*
X196595238Y-134627619D01*
X196642857Y-134722857D01*
X196642857Y-134818095D01*
X196595238Y-134960952D01*
X196023809Y-135532381D01*
X196642857Y-135532381D01*
X197261904Y-134532381D02*
X197357143Y-134532381D01*
X197452381Y-134580000D01*
X197500000Y-134627619D01*
X197547619Y-134722857D01*
X197595238Y-134913333D01*
X197595238Y-135151429D01*
X197547619Y-135341905D01*
X197500000Y-135437143D01*
X197452381Y-135484762D01*
X197357143Y-135532381D01*
X197261904Y-135532381D01*
X197166666Y-135484762D01*
X197119047Y-135437143D01*
X197071428Y-135341905D01*
X197023809Y-135151429D01*
X197023809Y-134913333D01*
X197071428Y-134722857D01*
X197119047Y-134627619D01*
X197166666Y-134580000D01*
X197261904Y-134532381D01*
X198547619Y-135532381D02*
X197976190Y-135532381D01*
X198261904Y-135532381D02*
X198261904Y-134532381D01*
X198166666Y-134675238D01*
X198071428Y-134770476D01*
X197976190Y-134818095D01*
X198880952Y-134532381D02*
X199547619Y-135532381D01*
X199547619Y-134532381D02*
X198880952Y-135532381D01*
X199690476Y-135627619D02*
X200452381Y-135627619D01*
X200595238Y-134532381D02*
X201261905Y-134532381D01*
X200595238Y-135532381D01*
X201261905Y-135532381D01*
X201404762Y-135627619D02*
X202166667Y-135627619D01*
X202928572Y-135532381D02*
X202357143Y-135532381D01*
X202642857Y-135532381D02*
X202642857Y-134532381D01*
X202547619Y-134675238D01*
X202452381Y-134770476D01*
X202357143Y-134818095D01*
X83238095Y-55452381D02*
X83428572Y-55452381D01*
X83523810Y-55500000D01*
X83619048Y-55595238D01*
X83666667Y-55785714D01*
X83666667Y-56119048D01*
X83619048Y-56309524D01*
X83523810Y-56404762D01*
X83428572Y-56452381D01*
X83238095Y-56452381D01*
X83142857Y-56404762D01*
X83047619Y-56309524D01*
X83000000Y-56119048D01*
X83000000Y-55785714D01*
X83047619Y-55595238D01*
X83142857Y-55500000D01*
X83238095Y-55452381D01*
X84095238Y-56452381D02*
X84095238Y-55452381D01*
X84476191Y-55452381D01*
X84571429Y-55500000D01*
X84619048Y-55547619D01*
X84666667Y-55642857D01*
X84666667Y-55785714D01*
X84619048Y-55880952D01*
X84571429Y-55928571D01*
X84476191Y-55976190D01*
X84095238Y-55976190D01*
X84952381Y-55452381D02*
X85523810Y-55452381D01*
X85238095Y-56452381D02*
X85238095Y-55452381D01*
X86047619Y-55452381D02*
X86238096Y-55452381D01*
X86333334Y-55500000D01*
X86428572Y-55595238D01*
X86476191Y-55785714D01*
X86476191Y-56119048D01*
X86428572Y-56309524D01*
X86333334Y-56404762D01*
X86238096Y-56452381D01*
X86047619Y-56452381D01*
X85952381Y-56404762D01*
X85857143Y-56309524D01*
X85809524Y-56119048D01*
X85809524Y-55785714D01*
X85857143Y-55595238D01*
X85952381Y-55500000D01*
X86047619Y-55452381D01*
X86666667Y-56547619D02*
X87428572Y-56547619D01*
X88238096Y-56357143D02*
X88190477Y-56404762D01*
X88047620Y-56452381D01*
X87952382Y-56452381D01*
X87809524Y-56404762D01*
X87714286Y-56309524D01*
X87666667Y-56214286D01*
X87619048Y-56023810D01*
X87619048Y-55880952D01*
X87666667Y-55690476D01*
X87714286Y-55595238D01*
X87809524Y-55500000D01*
X87952382Y-55452381D01*
X88047620Y-55452381D01*
X88190477Y-55500000D01*
X88238096Y-55547619D01*
X88666667Y-56452381D02*
X88666667Y-55452381D01*
X88666667Y-55928571D02*
X89238096Y-55928571D01*
X89238096Y-56452381D02*
X89238096Y-55452381D01*
X89714286Y-56452381D02*
X89714286Y-55452381D01*
X90666667Y-56452381D02*
X90190476Y-56452381D01*
X90190476Y-55452381D01*
X91476191Y-56452381D02*
X91000000Y-56452381D01*
X91000000Y-55452381D01*
X91809524Y-55928571D02*
X92142858Y-55928571D01*
X92285715Y-56452381D02*
X91809524Y-56452381D01*
X91809524Y-55452381D01*
X92285715Y-55452381D01*
X93285715Y-56452381D02*
X92952381Y-55976190D01*
X92714286Y-56452381D02*
X92714286Y-55452381D01*
X93095239Y-55452381D01*
X93190477Y-55500000D01*
X93238096Y-55547619D01*
X93285715Y-55642857D01*
X93285715Y-55785714D01*
X93238096Y-55880952D01*
X93190477Y-55928571D01*
X93095239Y-55976190D01*
X92714286Y-55976190D01*
X93476191Y-56547619D02*
X94238096Y-56547619D01*
X95000001Y-56452381D02*
X94428572Y-56452381D01*
X94714286Y-56452381D02*
X94714286Y-55452381D01*
X94619048Y-55595238D01*
X94523810Y-55690476D01*
X94428572Y-55738095D01*
X68214285Y-55452381D02*
X68404762Y-55452381D01*
X68500000Y-55500000D01*
X68595238Y-55595238D01*
X68642857Y-55785714D01*
X68642857Y-56119048D01*
X68595238Y-56309524D01*
X68500000Y-56404762D01*
X68404762Y-56452381D01*
X68214285Y-56452381D01*
X68119047Y-56404762D01*
X68023809Y-56309524D01*
X67976190Y-56119048D01*
X67976190Y-55785714D01*
X68023809Y-55595238D01*
X68119047Y-55500000D01*
X68214285Y-55452381D01*
X69071428Y-56452381D02*
X69071428Y-55452381D01*
X69452381Y-55452381D01*
X69547619Y-55500000D01*
X69595238Y-55547619D01*
X69642857Y-55642857D01*
X69642857Y-55785714D01*
X69595238Y-55880952D01*
X69547619Y-55928571D01*
X69452381Y-55976190D01*
X69071428Y-55976190D01*
X69928571Y-55452381D02*
X70500000Y-55452381D01*
X70214285Y-56452381D02*
X70214285Y-55452381D01*
X71023809Y-55452381D02*
X71214286Y-55452381D01*
X71309524Y-55500000D01*
X71404762Y-55595238D01*
X71452381Y-55785714D01*
X71452381Y-56119048D01*
X71404762Y-56309524D01*
X71309524Y-56404762D01*
X71214286Y-56452381D01*
X71023809Y-56452381D01*
X70928571Y-56404762D01*
X70833333Y-56309524D01*
X70785714Y-56119048D01*
X70785714Y-55785714D01*
X70833333Y-55595238D01*
X70928571Y-55500000D01*
X71023809Y-55452381D01*
X71642857Y-56547619D02*
X72404762Y-56547619D01*
X72642857Y-56452381D02*
X72642857Y-55452381D01*
X72880952Y-55452381D01*
X73023810Y-55500000D01*
X73119048Y-55595238D01*
X73166667Y-55690476D01*
X73214286Y-55880952D01*
X73214286Y-56023810D01*
X73166667Y-56214286D01*
X73119048Y-56309524D01*
X73023810Y-56404762D01*
X72880952Y-56452381D01*
X72642857Y-56452381D01*
X73833333Y-55452381D02*
X74023810Y-55452381D01*
X74119048Y-55500000D01*
X74214286Y-55595238D01*
X74261905Y-55785714D01*
X74261905Y-56119048D01*
X74214286Y-56309524D01*
X74119048Y-56404762D01*
X74023810Y-56452381D01*
X73833333Y-56452381D01*
X73738095Y-56404762D01*
X73642857Y-56309524D01*
X73595238Y-56119048D01*
X73595238Y-55785714D01*
X73642857Y-55595238D01*
X73738095Y-55500000D01*
X73833333Y-55452381D01*
X74880952Y-55452381D02*
X75071429Y-55452381D01*
X75166667Y-55500000D01*
X75261905Y-55595238D01*
X75309524Y-55785714D01*
X75309524Y-56119048D01*
X75261905Y-56309524D01*
X75166667Y-56404762D01*
X75071429Y-56452381D01*
X74880952Y-56452381D01*
X74785714Y-56404762D01*
X74690476Y-56309524D01*
X74642857Y-56119048D01*
X74642857Y-55785714D01*
X74690476Y-55595238D01*
X74785714Y-55500000D01*
X74880952Y-55452381D01*
X76309524Y-56452381D02*
X75976190Y-55976190D01*
X75738095Y-56452381D02*
X75738095Y-55452381D01*
X76119048Y-55452381D01*
X76214286Y-55500000D01*
X76261905Y-55547619D01*
X76309524Y-55642857D01*
X76309524Y-55785714D01*
X76261905Y-55880952D01*
X76214286Y-55928571D01*
X76119048Y-55976190D01*
X75738095Y-55976190D01*
X76500000Y-56547619D02*
X77261905Y-56547619D01*
X78023810Y-56452381D02*
X77452381Y-56452381D01*
X77738095Y-56452381D02*
X77738095Y-55452381D01*
X77642857Y-55595238D01*
X77547619Y-55690476D01*
X77452381Y-55738095D01*
X47999999Y-55452381D02*
X48190476Y-55452381D01*
X48285714Y-55500000D01*
X48380952Y-55595238D01*
X48428571Y-55785714D01*
X48428571Y-56119048D01*
X48380952Y-56309524D01*
X48285714Y-56404762D01*
X48190476Y-56452381D01*
X47999999Y-56452381D01*
X47904761Y-56404762D01*
X47809523Y-56309524D01*
X47761904Y-56119048D01*
X47761904Y-55785714D01*
X47809523Y-55595238D01*
X47904761Y-55500000D01*
X47999999Y-55452381D01*
X48857142Y-56452381D02*
X48857142Y-55452381D01*
X49238095Y-55452381D01*
X49333333Y-55500000D01*
X49380952Y-55547619D01*
X49428571Y-55642857D01*
X49428571Y-55785714D01*
X49380952Y-55880952D01*
X49333333Y-55928571D01*
X49238095Y-55976190D01*
X48857142Y-55976190D01*
X49714285Y-55452381D02*
X50285714Y-55452381D01*
X49999999Y-56452381D02*
X49999999Y-55452381D01*
X50809523Y-55452381D02*
X51000000Y-55452381D01*
X51095238Y-55500000D01*
X51190476Y-55595238D01*
X51238095Y-55785714D01*
X51238095Y-56119048D01*
X51190476Y-56309524D01*
X51095238Y-56404762D01*
X51000000Y-56452381D01*
X50809523Y-56452381D01*
X50714285Y-56404762D01*
X50619047Y-56309524D01*
X50571428Y-56119048D01*
X50571428Y-55785714D01*
X50619047Y-55595238D01*
X50714285Y-55500000D01*
X50809523Y-55452381D01*
X51428571Y-56547619D02*
X52190476Y-56547619D01*
X52904762Y-56452381D02*
X52428571Y-56452381D01*
X52428571Y-55452381D01*
X53190476Y-56166667D02*
X53666667Y-56166667D01*
X53095238Y-56452381D02*
X53428571Y-55452381D01*
X53761905Y-56452381D01*
X54047619Y-56404762D02*
X54190476Y-56452381D01*
X54428572Y-56452381D01*
X54523810Y-56404762D01*
X54571429Y-56357143D01*
X54619048Y-56261905D01*
X54619048Y-56166667D01*
X54571429Y-56071429D01*
X54523810Y-56023810D01*
X54428572Y-55976190D01*
X54238095Y-55928571D01*
X54142857Y-55880952D01*
X54095238Y-55833333D01*
X54047619Y-55738095D01*
X54047619Y-55642857D01*
X54095238Y-55547619D01*
X54142857Y-55500000D01*
X54238095Y-55452381D01*
X54476191Y-55452381D01*
X54619048Y-55500000D01*
X55047619Y-55928571D02*
X55380953Y-55928571D01*
X55523810Y-56452381D02*
X55047619Y-56452381D01*
X55047619Y-55452381D01*
X55523810Y-55452381D01*
X56523810Y-56452381D02*
X56190476Y-55976190D01*
X55952381Y-56452381D02*
X55952381Y-55452381D01*
X56333334Y-55452381D01*
X56428572Y-55500000D01*
X56476191Y-55547619D01*
X56523810Y-55642857D01*
X56523810Y-55785714D01*
X56476191Y-55880952D01*
X56428572Y-55928571D01*
X56333334Y-55976190D01*
X55952381Y-55976190D01*
X56714286Y-56547619D02*
X57476191Y-56547619D01*
X58238096Y-56452381D02*
X57666667Y-56452381D01*
X57952381Y-56452381D02*
X57952381Y-55452381D01*
X57857143Y-55595238D01*
X57761905Y-55690476D01*
X57666667Y-55738095D01*
X42785714Y-115452381D02*
X42976191Y-115452381D01*
X43071429Y-115500000D01*
X43166667Y-115595238D01*
X43214286Y-115785714D01*
X43214286Y-116119048D01*
X43166667Y-116309524D01*
X43071429Y-116404762D01*
X42976191Y-116452381D01*
X42785714Y-116452381D01*
X42690476Y-116404762D01*
X42595238Y-116309524D01*
X42547619Y-116119048D01*
X42547619Y-115785714D01*
X42595238Y-115595238D01*
X42690476Y-115500000D01*
X42785714Y-115452381D01*
X43642857Y-116452381D02*
X43642857Y-115452381D01*
X44023810Y-115452381D01*
X44119048Y-115500000D01*
X44166667Y-115547619D01*
X44214286Y-115642857D01*
X44214286Y-115785714D01*
X44166667Y-115880952D01*
X44119048Y-115928571D01*
X44023810Y-115976190D01*
X43642857Y-115976190D01*
X44500000Y-115452381D02*
X45071429Y-115452381D01*
X44785714Y-116452381D02*
X44785714Y-115452381D01*
X45595238Y-115452381D02*
X45785715Y-115452381D01*
X45880953Y-115500000D01*
X45976191Y-115595238D01*
X46023810Y-115785714D01*
X46023810Y-116119048D01*
X45976191Y-116309524D01*
X45880953Y-116404762D01*
X45785715Y-116452381D01*
X45595238Y-116452381D01*
X45500000Y-116404762D01*
X45404762Y-116309524D01*
X45357143Y-116119048D01*
X45357143Y-115785714D01*
X45404762Y-115595238D01*
X45500000Y-115500000D01*
X45595238Y-115452381D01*
X46214286Y-116547619D02*
X46976191Y-116547619D01*
X47119048Y-115452381D02*
X47785715Y-116452381D01*
X47785715Y-115452381D02*
X47119048Y-116452381D01*
X47928572Y-116547619D02*
X48690477Y-116547619D01*
X49452382Y-116452381D02*
X48880953Y-116452381D01*
X49166667Y-116452381D02*
X49166667Y-115452381D01*
X49071429Y-115595238D01*
X48976191Y-115690476D01*
X48880953Y-115738095D01*
X69583333Y-115452381D02*
X69773810Y-115452381D01*
X69869048Y-115500000D01*
X69964286Y-115595238D01*
X70011905Y-115785714D01*
X70011905Y-116119048D01*
X69964286Y-116309524D01*
X69869048Y-116404762D01*
X69773810Y-116452381D01*
X69583333Y-116452381D01*
X69488095Y-116404762D01*
X69392857Y-116309524D01*
X69345238Y-116119048D01*
X69345238Y-115785714D01*
X69392857Y-115595238D01*
X69488095Y-115500000D01*
X69583333Y-115452381D01*
X70440476Y-116452381D02*
X70440476Y-115452381D01*
X70821429Y-115452381D01*
X70916667Y-115500000D01*
X70964286Y-115547619D01*
X71011905Y-115642857D01*
X71011905Y-115785714D01*
X70964286Y-115880952D01*
X70916667Y-115928571D01*
X70821429Y-115976190D01*
X70440476Y-115976190D01*
X71297619Y-115452381D02*
X71869048Y-115452381D01*
X71583333Y-116452381D02*
X71583333Y-115452381D01*
X72392857Y-115452381D02*
X72583334Y-115452381D01*
X72678572Y-115500000D01*
X72773810Y-115595238D01*
X72821429Y-115785714D01*
X72821429Y-116119048D01*
X72773810Y-116309524D01*
X72678572Y-116404762D01*
X72583334Y-116452381D01*
X72392857Y-116452381D01*
X72297619Y-116404762D01*
X72202381Y-116309524D01*
X72154762Y-116119048D01*
X72154762Y-115785714D01*
X72202381Y-115595238D01*
X72297619Y-115500000D01*
X72392857Y-115452381D01*
X73011905Y-116547619D02*
X73773810Y-116547619D01*
X74202381Y-115976190D02*
X74202381Y-116452381D01*
X73869048Y-115452381D02*
X74202381Y-115976190D01*
X74535715Y-115452381D01*
X74630953Y-116547619D02*
X75392858Y-116547619D01*
X76154763Y-116452381D02*
X75583334Y-116452381D01*
X75869048Y-116452381D02*
X75869048Y-115452381D01*
X75773810Y-115595238D01*
X75678572Y-115690476D01*
X75583334Y-115738095D01*
X97785714Y-115452381D02*
X97976191Y-115452381D01*
X98071429Y-115500000D01*
X98166667Y-115595238D01*
X98214286Y-115785714D01*
X98214286Y-116119048D01*
X98166667Y-116309524D01*
X98071429Y-116404762D01*
X97976191Y-116452381D01*
X97785714Y-116452381D01*
X97690476Y-116404762D01*
X97595238Y-116309524D01*
X97547619Y-116119048D01*
X97547619Y-115785714D01*
X97595238Y-115595238D01*
X97690476Y-115500000D01*
X97785714Y-115452381D01*
X98642857Y-116452381D02*
X98642857Y-115452381D01*
X99023810Y-115452381D01*
X99119048Y-115500000D01*
X99166667Y-115547619D01*
X99214286Y-115642857D01*
X99214286Y-115785714D01*
X99166667Y-115880952D01*
X99119048Y-115928571D01*
X99023810Y-115976190D01*
X98642857Y-115976190D01*
X99500000Y-115452381D02*
X100071429Y-115452381D01*
X99785714Y-116452381D02*
X99785714Y-115452381D01*
X100595238Y-115452381D02*
X100785715Y-115452381D01*
X100880953Y-115500000D01*
X100976191Y-115595238D01*
X101023810Y-115785714D01*
X101023810Y-116119048D01*
X100976191Y-116309524D01*
X100880953Y-116404762D01*
X100785715Y-116452381D01*
X100595238Y-116452381D01*
X100500000Y-116404762D01*
X100404762Y-116309524D01*
X100357143Y-116119048D01*
X100357143Y-115785714D01*
X100404762Y-115595238D01*
X100500000Y-115500000D01*
X100595238Y-115452381D01*
X101214286Y-116547619D02*
X101976191Y-116547619D01*
X102119048Y-115452381D02*
X102785715Y-115452381D01*
X102119048Y-116452381D01*
X102785715Y-116452381D01*
X102928572Y-116547619D02*
X103690477Y-116547619D01*
X104452382Y-116452381D02*
X103880953Y-116452381D01*
X104166667Y-116452381D02*
X104166667Y-115452381D01*
X104071429Y-115595238D01*
X103976191Y-115690476D01*
X103880953Y-115738095D01*
X38452381Y-125616666D02*
X37976190Y-125950000D01*
X38452381Y-126188095D02*
X37452381Y-126188095D01*
X37452381Y-125807142D01*
X37500000Y-125711904D01*
X37547619Y-125664285D01*
X37642857Y-125616666D01*
X37785714Y-125616666D01*
X37880952Y-125664285D01*
X37928571Y-125711904D01*
X37976190Y-125807142D01*
X37976190Y-126188095D01*
X38452381Y-124664285D02*
X38452381Y-125235714D01*
X38452381Y-124950000D02*
X37452381Y-124950000D01*
X37595238Y-125045238D01*
X37690476Y-125140476D01*
X37738095Y-125235714D01*
X42452381Y-125616666D02*
X41976190Y-125950000D01*
X42452381Y-126188095D02*
X41452381Y-126188095D01*
X41452381Y-125807142D01*
X41500000Y-125711904D01*
X41547619Y-125664285D01*
X41642857Y-125616666D01*
X41785714Y-125616666D01*
X41880952Y-125664285D01*
X41928571Y-125711904D01*
X41976190Y-125807142D01*
X41976190Y-126188095D01*
X41547619Y-125235714D02*
X41500000Y-125188095D01*
X41452381Y-125092857D01*
X41452381Y-124854761D01*
X41500000Y-124759523D01*
X41547619Y-124711904D01*
X41642857Y-124664285D01*
X41738095Y-124664285D01*
X41880952Y-124711904D01*
X42452381Y-125283333D01*
X42452381Y-124664285D01*
X54452381Y-125616666D02*
X53976190Y-125950000D01*
X54452381Y-126188095D02*
X53452381Y-126188095D01*
X53452381Y-125807142D01*
X53500000Y-125711904D01*
X53547619Y-125664285D01*
X53642857Y-125616666D01*
X53785714Y-125616666D01*
X53880952Y-125664285D01*
X53928571Y-125711904D01*
X53976190Y-125807142D01*
X53976190Y-126188095D01*
X53452381Y-125283333D02*
X53452381Y-124664285D01*
X53833333Y-124997619D01*
X53833333Y-124854761D01*
X53880952Y-124759523D01*
X53928571Y-124711904D01*
X54023810Y-124664285D01*
X54261905Y-124664285D01*
X54357143Y-124711904D01*
X54404762Y-124759523D01*
X54452381Y-124854761D01*
X54452381Y-125140476D01*
X54404762Y-125235714D01*
X54357143Y-125283333D01*
X58452381Y-125616666D02*
X57976190Y-125950000D01*
X58452381Y-126188095D02*
X57452381Y-126188095D01*
X57452381Y-125807142D01*
X57500000Y-125711904D01*
X57547619Y-125664285D01*
X57642857Y-125616666D01*
X57785714Y-125616666D01*
X57880952Y-125664285D01*
X57928571Y-125711904D01*
X57976190Y-125807142D01*
X57976190Y-126188095D01*
X57785714Y-124759523D02*
X58452381Y-124759523D01*
X57404762Y-124997619D02*
X58119048Y-125235714D01*
X58119048Y-124616666D01*
X66452381Y-125616666D02*
X65976190Y-125950000D01*
X66452381Y-126188095D02*
X65452381Y-126188095D01*
X65452381Y-125807142D01*
X65500000Y-125711904D01*
X65547619Y-125664285D01*
X65642857Y-125616666D01*
X65785714Y-125616666D01*
X65880952Y-125664285D01*
X65928571Y-125711904D01*
X65976190Y-125807142D01*
X65976190Y-126188095D01*
X65452381Y-124711904D02*
X65452381Y-125188095D01*
X65928571Y-125235714D01*
X65880952Y-125188095D01*
X65833333Y-125092857D01*
X65833333Y-124854761D01*
X65880952Y-124759523D01*
X65928571Y-124711904D01*
X66023810Y-124664285D01*
X66261905Y-124664285D01*
X66357143Y-124711904D01*
X66404762Y-124759523D01*
X66452381Y-124854761D01*
X66452381Y-125092857D01*
X66404762Y-125188095D01*
X66357143Y-125235714D01*
X70452381Y-125616666D02*
X69976190Y-125950000D01*
X70452381Y-126188095D02*
X69452381Y-126188095D01*
X69452381Y-125807142D01*
X69500000Y-125711904D01*
X69547619Y-125664285D01*
X69642857Y-125616666D01*
X69785714Y-125616666D01*
X69880952Y-125664285D01*
X69928571Y-125711904D01*
X69976190Y-125807142D01*
X69976190Y-126188095D01*
X69452381Y-124759523D02*
X69452381Y-124950000D01*
X69500000Y-125045238D01*
X69547619Y-125092857D01*
X69690476Y-125188095D01*
X69880952Y-125235714D01*
X70261905Y-125235714D01*
X70357143Y-125188095D01*
X70404762Y-125140476D01*
X70452381Y-125045238D01*
X70452381Y-124854761D01*
X70404762Y-124759523D01*
X70357143Y-124711904D01*
X70261905Y-124664285D01*
X70023810Y-124664285D01*
X69928571Y-124711904D01*
X69880952Y-124759523D01*
X69833333Y-124854761D01*
X69833333Y-125045238D01*
X69880952Y-125140476D01*
X69928571Y-125188095D01*
X70023810Y-125235714D01*
X82452381Y-125616666D02*
X81976190Y-125950000D01*
X82452381Y-126188095D02*
X81452381Y-126188095D01*
X81452381Y-125807142D01*
X81500000Y-125711904D01*
X81547619Y-125664285D01*
X81642857Y-125616666D01*
X81785714Y-125616666D01*
X81880952Y-125664285D01*
X81928571Y-125711904D01*
X81976190Y-125807142D01*
X81976190Y-126188095D01*
X81452381Y-125283333D02*
X81452381Y-124616666D01*
X82452381Y-125045238D01*
X86452381Y-125616666D02*
X85976190Y-125950000D01*
X86452381Y-126188095D02*
X85452381Y-126188095D01*
X85452381Y-125807142D01*
X85500000Y-125711904D01*
X85547619Y-125664285D01*
X85642857Y-125616666D01*
X85785714Y-125616666D01*
X85880952Y-125664285D01*
X85928571Y-125711904D01*
X85976190Y-125807142D01*
X85976190Y-126188095D01*
X85880952Y-125045238D02*
X85833333Y-125140476D01*
X85785714Y-125188095D01*
X85690476Y-125235714D01*
X85642857Y-125235714D01*
X85547619Y-125188095D01*
X85500000Y-125140476D01*
X85452381Y-125045238D01*
X85452381Y-124854761D01*
X85500000Y-124759523D01*
X85547619Y-124711904D01*
X85642857Y-124664285D01*
X85690476Y-124664285D01*
X85785714Y-124711904D01*
X85833333Y-124759523D01*
X85880952Y-124854761D01*
X85880952Y-125045238D01*
X85928571Y-125140476D01*
X85976190Y-125188095D01*
X86071429Y-125235714D01*
X86261905Y-125235714D01*
X86357143Y-125188095D01*
X86404762Y-125140476D01*
X86452381Y-125045238D01*
X86452381Y-124854761D01*
X86404762Y-124759523D01*
X86357143Y-124711904D01*
X86261905Y-124664285D01*
X86071429Y-124664285D01*
X85976190Y-124711904D01*
X85928571Y-124759523D01*
X85880952Y-124854761D01*
X94452381Y-125616666D02*
X93976190Y-125950000D01*
X94452381Y-126188095D02*
X93452381Y-126188095D01*
X93452381Y-125807142D01*
X93500000Y-125711904D01*
X93547619Y-125664285D01*
X93642857Y-125616666D01*
X93785714Y-125616666D01*
X93880952Y-125664285D01*
X93928571Y-125711904D01*
X93976190Y-125807142D01*
X93976190Y-126188095D01*
X94452381Y-125140476D02*
X94452381Y-124950000D01*
X94404762Y-124854761D01*
X94357143Y-124807142D01*
X94214286Y-124711904D01*
X94023810Y-124664285D01*
X93642857Y-124664285D01*
X93547619Y-124711904D01*
X93500000Y-124759523D01*
X93452381Y-124854761D01*
X93452381Y-125045238D01*
X93500000Y-125140476D01*
X93547619Y-125188095D01*
X93642857Y-125235714D01*
X93880952Y-125235714D01*
X93976190Y-125188095D01*
X94023810Y-125140476D01*
X94071429Y-125045238D01*
X94071429Y-124854761D01*
X94023810Y-124759523D01*
X93976190Y-124711904D01*
X93880952Y-124664285D01*
X98452381Y-126092857D02*
X97976190Y-126426191D01*
X98452381Y-126664286D02*
X97452381Y-126664286D01*
X97452381Y-126283333D01*
X97500000Y-126188095D01*
X97547619Y-126140476D01*
X97642857Y-126092857D01*
X97785714Y-126092857D01*
X97880952Y-126140476D01*
X97928571Y-126188095D01*
X97976190Y-126283333D01*
X97976190Y-126664286D01*
X98452381Y-125140476D02*
X98452381Y-125711905D01*
X98452381Y-125426191D02*
X97452381Y-125426191D01*
X97595238Y-125521429D01*
X97690476Y-125616667D01*
X97738095Y-125711905D01*
X97452381Y-124521429D02*
X97452381Y-124426190D01*
X97500000Y-124330952D01*
X97547619Y-124283333D01*
X97642857Y-124235714D01*
X97833333Y-124188095D01*
X98071429Y-124188095D01*
X98261905Y-124235714D01*
X98357143Y-124283333D01*
X98404762Y-124330952D01*
X98452381Y-124426190D01*
X98452381Y-124521429D01*
X98404762Y-124616667D01*
X98357143Y-124664286D01*
X98261905Y-124711905D01*
X98071429Y-124759524D01*
X97833333Y-124759524D01*
X97642857Y-124711905D01*
X97547619Y-124664286D01*
X97500000Y-124616667D01*
X97452381Y-124521429D01*
X110452381Y-126092857D02*
X109976190Y-126426191D01*
X110452381Y-126664286D02*
X109452381Y-126664286D01*
X109452381Y-126283333D01*
X109500000Y-126188095D01*
X109547619Y-126140476D01*
X109642857Y-126092857D01*
X109785714Y-126092857D01*
X109880952Y-126140476D01*
X109928571Y-126188095D01*
X109976190Y-126283333D01*
X109976190Y-126664286D01*
X110452381Y-125140476D02*
X110452381Y-125711905D01*
X110452381Y-125426191D02*
X109452381Y-125426191D01*
X109595238Y-125521429D01*
X109690476Y-125616667D01*
X109738095Y-125711905D01*
X110452381Y-124188095D02*
X110452381Y-124759524D01*
X110452381Y-124473810D02*
X109452381Y-124473810D01*
X109595238Y-124569048D01*
X109690476Y-124664286D01*
X109738095Y-124759524D01*
X114452381Y-126092857D02*
X113976190Y-126426191D01*
X114452381Y-126664286D02*
X113452381Y-126664286D01*
X113452381Y-126283333D01*
X113500000Y-126188095D01*
X113547619Y-126140476D01*
X113642857Y-126092857D01*
X113785714Y-126092857D01*
X113880952Y-126140476D01*
X113928571Y-126188095D01*
X113976190Y-126283333D01*
X113976190Y-126664286D01*
X114452381Y-125140476D02*
X114452381Y-125711905D01*
X114452381Y-125426191D02*
X113452381Y-125426191D01*
X113595238Y-125521429D01*
X113690476Y-125616667D01*
X113738095Y-125711905D01*
X113547619Y-124759524D02*
X113500000Y-124711905D01*
X113452381Y-124616667D01*
X113452381Y-124378571D01*
X113500000Y-124283333D01*
X113547619Y-124235714D01*
X113642857Y-124188095D01*
X113738095Y-124188095D01*
X113880952Y-124235714D01*
X114452381Y-124807143D01*
X114452381Y-124188095D01*
X116307143Y-98952381D02*
X115973809Y-98476190D01*
X115735714Y-98952381D02*
X115735714Y-97952381D01*
X116116667Y-97952381D01*
X116211905Y-98000000D01*
X116259524Y-98047619D01*
X116307143Y-98142857D01*
X116307143Y-98285714D01*
X116259524Y-98380952D01*
X116211905Y-98428571D01*
X116116667Y-98476190D01*
X115735714Y-98476190D01*
X117259524Y-98952381D02*
X116688095Y-98952381D01*
X116973809Y-98952381D02*
X116973809Y-97952381D01*
X116878571Y-98095238D01*
X116783333Y-98190476D01*
X116688095Y-98238095D01*
X117592857Y-97952381D02*
X118211905Y-97952381D01*
X117878571Y-98333333D01*
X118021429Y-98333333D01*
X118116667Y-98380952D01*
X118164286Y-98428571D01*
X118211905Y-98523810D01*
X118211905Y-98761905D01*
X118164286Y-98857143D01*
X118116667Y-98904762D01*
X118021429Y-98952381D01*
X117735714Y-98952381D01*
X117640476Y-98904762D01*
X117592857Y-98857143D01*
X57452381Y-48092857D02*
X56976190Y-48426191D01*
X57452381Y-48664286D02*
X56452381Y-48664286D01*
X56452381Y-48283333D01*
X56500000Y-48188095D01*
X56547619Y-48140476D01*
X56642857Y-48092857D01*
X56785714Y-48092857D01*
X56880952Y-48140476D01*
X56928571Y-48188095D01*
X56976190Y-48283333D01*
X56976190Y-48664286D01*
X57452381Y-47140476D02*
X57452381Y-47711905D01*
X57452381Y-47426191D02*
X56452381Y-47426191D01*
X56595238Y-47521429D01*
X56690476Y-47616667D01*
X56738095Y-47711905D01*
X56785714Y-46283333D02*
X57452381Y-46283333D01*
X56404762Y-46521429D02*
X57119048Y-46759524D01*
X57119048Y-46140476D01*
X65452381Y-48092857D02*
X64976190Y-48426191D01*
X65452381Y-48664286D02*
X64452381Y-48664286D01*
X64452381Y-48283333D01*
X64500000Y-48188095D01*
X64547619Y-48140476D01*
X64642857Y-48092857D01*
X64785714Y-48092857D01*
X64880952Y-48140476D01*
X64928571Y-48188095D01*
X64976190Y-48283333D01*
X64976190Y-48664286D01*
X65452381Y-47140476D02*
X65452381Y-47711905D01*
X65452381Y-47426191D02*
X64452381Y-47426191D01*
X64595238Y-47521429D01*
X64690476Y-47616667D01*
X64738095Y-47711905D01*
X64452381Y-46235714D02*
X64452381Y-46711905D01*
X64928571Y-46759524D01*
X64880952Y-46711905D01*
X64833333Y-46616667D01*
X64833333Y-46378571D01*
X64880952Y-46283333D01*
X64928571Y-46235714D01*
X65023810Y-46188095D01*
X65261905Y-46188095D01*
X65357143Y-46235714D01*
X65404762Y-46283333D01*
X65452381Y-46378571D01*
X65452381Y-46616667D01*
X65404762Y-46711905D01*
X65357143Y-46759524D01*
X61452381Y-48092857D02*
X60976190Y-48426191D01*
X61452381Y-48664286D02*
X60452381Y-48664286D01*
X60452381Y-48283333D01*
X60500000Y-48188095D01*
X60547619Y-48140476D01*
X60642857Y-48092857D01*
X60785714Y-48092857D01*
X60880952Y-48140476D01*
X60928571Y-48188095D01*
X60976190Y-48283333D01*
X60976190Y-48664286D01*
X61452381Y-47140476D02*
X61452381Y-47711905D01*
X61452381Y-47426191D02*
X60452381Y-47426191D01*
X60595238Y-47521429D01*
X60690476Y-47616667D01*
X60738095Y-47711905D01*
X60452381Y-46283333D02*
X60452381Y-46473810D01*
X60500000Y-46569048D01*
X60547619Y-46616667D01*
X60690476Y-46711905D01*
X60880952Y-46759524D01*
X61261905Y-46759524D01*
X61357143Y-46711905D01*
X61404762Y-46664286D01*
X61452381Y-46569048D01*
X61452381Y-46378571D01*
X61404762Y-46283333D01*
X61357143Y-46235714D01*
X61261905Y-46188095D01*
X61023810Y-46188095D01*
X60928571Y-46235714D01*
X60880952Y-46283333D01*
X60833333Y-46378571D01*
X60833333Y-46569048D01*
X60880952Y-46664286D01*
X60928571Y-46711905D01*
X61023810Y-46759524D01*
X77452381Y-48092857D02*
X76976190Y-48426191D01*
X77452381Y-48664286D02*
X76452381Y-48664286D01*
X76452381Y-48283333D01*
X76500000Y-48188095D01*
X76547619Y-48140476D01*
X76642857Y-48092857D01*
X76785714Y-48092857D01*
X76880952Y-48140476D01*
X76928571Y-48188095D01*
X76976190Y-48283333D01*
X76976190Y-48664286D01*
X77452381Y-47140476D02*
X77452381Y-47711905D01*
X77452381Y-47426191D02*
X76452381Y-47426191D01*
X76595238Y-47521429D01*
X76690476Y-47616667D01*
X76738095Y-47711905D01*
X76452381Y-46807143D02*
X76452381Y-46140476D01*
X77452381Y-46569048D01*
X93452381Y-48092857D02*
X92976190Y-48426191D01*
X93452381Y-48664286D02*
X92452381Y-48664286D01*
X92452381Y-48283333D01*
X92500000Y-48188095D01*
X92547619Y-48140476D01*
X92642857Y-48092857D01*
X92785714Y-48092857D01*
X92880952Y-48140476D01*
X92928571Y-48188095D01*
X92976190Y-48283333D01*
X92976190Y-48664286D01*
X93452381Y-47140476D02*
X93452381Y-47711905D01*
X93452381Y-47426191D02*
X92452381Y-47426191D01*
X92595238Y-47521429D01*
X92690476Y-47616667D01*
X92738095Y-47711905D01*
X92880952Y-46569048D02*
X92833333Y-46664286D01*
X92785714Y-46711905D01*
X92690476Y-46759524D01*
X92642857Y-46759524D01*
X92547619Y-46711905D01*
X92500000Y-46664286D01*
X92452381Y-46569048D01*
X92452381Y-46378571D01*
X92500000Y-46283333D01*
X92547619Y-46235714D01*
X92642857Y-46188095D01*
X92690476Y-46188095D01*
X92785714Y-46235714D01*
X92833333Y-46283333D01*
X92880952Y-46378571D01*
X92880952Y-46569048D01*
X92928571Y-46664286D01*
X92976190Y-46711905D01*
X93071429Y-46759524D01*
X93261905Y-46759524D01*
X93357143Y-46711905D01*
X93404762Y-46664286D01*
X93452381Y-46569048D01*
X93452381Y-46378571D01*
X93404762Y-46283333D01*
X93357143Y-46235714D01*
X93261905Y-46188095D01*
X93071429Y-46188095D01*
X92976190Y-46235714D01*
X92928571Y-46283333D01*
X92880952Y-46378571D01*
X51452381Y-59642857D02*
X50976190Y-59976191D01*
X51452381Y-60214286D02*
X50452381Y-60214286D01*
X50452381Y-59833333D01*
X50500000Y-59738095D01*
X50547619Y-59690476D01*
X50642857Y-59642857D01*
X50785714Y-59642857D01*
X50880952Y-59690476D01*
X50928571Y-59738095D01*
X50976190Y-59833333D01*
X50976190Y-60214286D01*
X50547619Y-59261905D02*
X50500000Y-59214286D01*
X50452381Y-59119048D01*
X50452381Y-58880952D01*
X50500000Y-58785714D01*
X50547619Y-58738095D01*
X50642857Y-58690476D01*
X50738095Y-58690476D01*
X50880952Y-58738095D01*
X51452381Y-59309524D01*
X51452381Y-58690476D01*
X50452381Y-58071429D02*
X50452381Y-57976190D01*
X50500000Y-57880952D01*
X50547619Y-57833333D01*
X50642857Y-57785714D01*
X50833333Y-57738095D01*
X51071429Y-57738095D01*
X51261905Y-57785714D01*
X51357143Y-57833333D01*
X51404762Y-57880952D01*
X51452381Y-57976190D01*
X51452381Y-58071429D01*
X51404762Y-58166667D01*
X51357143Y-58214286D01*
X51261905Y-58261905D01*
X51071429Y-58309524D01*
X50833333Y-58309524D01*
X50642857Y-58261905D01*
X50547619Y-58214286D01*
X50500000Y-58166667D01*
X50452381Y-58071429D01*
X55452381Y-59642857D02*
X54976190Y-59976191D01*
X55452381Y-60214286D02*
X54452381Y-60214286D01*
X54452381Y-59833333D01*
X54500000Y-59738095D01*
X54547619Y-59690476D01*
X54642857Y-59642857D01*
X54785714Y-59642857D01*
X54880952Y-59690476D01*
X54928571Y-59738095D01*
X54976190Y-59833333D01*
X54976190Y-60214286D01*
X54547619Y-59261905D02*
X54500000Y-59214286D01*
X54452381Y-59119048D01*
X54452381Y-58880952D01*
X54500000Y-58785714D01*
X54547619Y-58738095D01*
X54642857Y-58690476D01*
X54738095Y-58690476D01*
X54880952Y-58738095D01*
X55452381Y-59309524D01*
X55452381Y-58690476D01*
X55452381Y-57738095D02*
X55452381Y-58309524D01*
X55452381Y-58023810D02*
X54452381Y-58023810D01*
X54595238Y-58119048D01*
X54690476Y-58214286D01*
X54738095Y-58309524D01*
X59452381Y-59642857D02*
X58976190Y-59976191D01*
X59452381Y-60214286D02*
X58452381Y-60214286D01*
X58452381Y-59833333D01*
X58500000Y-59738095D01*
X58547619Y-59690476D01*
X58642857Y-59642857D01*
X58785714Y-59642857D01*
X58880952Y-59690476D01*
X58928571Y-59738095D01*
X58976190Y-59833333D01*
X58976190Y-60214286D01*
X58547619Y-59261905D02*
X58500000Y-59214286D01*
X58452381Y-59119048D01*
X58452381Y-58880952D01*
X58500000Y-58785714D01*
X58547619Y-58738095D01*
X58642857Y-58690476D01*
X58738095Y-58690476D01*
X58880952Y-58738095D01*
X59452381Y-59309524D01*
X59452381Y-58690476D01*
X58547619Y-58309524D02*
X58500000Y-58261905D01*
X58452381Y-58166667D01*
X58452381Y-57928571D01*
X58500000Y-57833333D01*
X58547619Y-57785714D01*
X58642857Y-57738095D01*
X58738095Y-57738095D01*
X58880952Y-57785714D01*
X59452381Y-58357143D01*
X59452381Y-57738095D01*
X63452381Y-59642857D02*
X62976190Y-59976191D01*
X63452381Y-60214286D02*
X62452381Y-60214286D01*
X62452381Y-59833333D01*
X62500000Y-59738095D01*
X62547619Y-59690476D01*
X62642857Y-59642857D01*
X62785714Y-59642857D01*
X62880952Y-59690476D01*
X62928571Y-59738095D01*
X62976190Y-59833333D01*
X62976190Y-60214286D01*
X62547619Y-59261905D02*
X62500000Y-59214286D01*
X62452381Y-59119048D01*
X62452381Y-58880952D01*
X62500000Y-58785714D01*
X62547619Y-58738095D01*
X62642857Y-58690476D01*
X62738095Y-58690476D01*
X62880952Y-58738095D01*
X63452381Y-59309524D01*
X63452381Y-58690476D01*
X62452381Y-58357143D02*
X62452381Y-57738095D01*
X62833333Y-58071429D01*
X62833333Y-57928571D01*
X62880952Y-57833333D01*
X62928571Y-57785714D01*
X63023810Y-57738095D01*
X63261905Y-57738095D01*
X63357143Y-57785714D01*
X63404762Y-57833333D01*
X63452381Y-57928571D01*
X63452381Y-58214286D01*
X63404762Y-58309524D01*
X63357143Y-58357143D01*
X116357143Y-91452381D02*
X116023809Y-90976190D01*
X115785714Y-91452381D02*
X115785714Y-90452381D01*
X116166667Y-90452381D01*
X116261905Y-90500000D01*
X116309524Y-90547619D01*
X116357143Y-90642857D01*
X116357143Y-90785714D01*
X116309524Y-90880952D01*
X116261905Y-90928571D01*
X116166667Y-90976190D01*
X115785714Y-90976190D01*
X116738095Y-90547619D02*
X116785714Y-90500000D01*
X116880952Y-90452381D01*
X117119048Y-90452381D01*
X117214286Y-90500000D01*
X117261905Y-90547619D01*
X117309524Y-90642857D01*
X117309524Y-90738095D01*
X117261905Y-90880952D01*
X116690476Y-91452381D01*
X117309524Y-91452381D01*
X118166667Y-90785714D02*
X118166667Y-91452381D01*
X117928571Y-90404762D02*
X117690476Y-91119048D01*
X118309524Y-91119048D01*
X180733333Y-108604762D02*
X180876190Y-108652381D01*
X181114286Y-108652381D01*
X181209524Y-108604762D01*
X181257143Y-108557143D01*
X181304762Y-108461905D01*
X181304762Y-108366667D01*
X181257143Y-108271429D01*
X181209524Y-108223810D01*
X181114286Y-108176190D01*
X180923809Y-108128571D01*
X180828571Y-108080952D01*
X180780952Y-108033333D01*
X180733333Y-107938095D01*
X180733333Y-107842857D01*
X180780952Y-107747619D01*
X180828571Y-107700000D01*
X180923809Y-107652381D01*
X181161905Y-107652381D01*
X181304762Y-107700000D01*
X181685714Y-108604762D02*
X181828571Y-108652381D01*
X182066667Y-108652381D01*
X182161905Y-108604762D01*
X182209524Y-108557143D01*
X182257143Y-108461905D01*
X182257143Y-108366667D01*
X182209524Y-108271429D01*
X182161905Y-108223810D01*
X182066667Y-108176190D01*
X181876190Y-108128571D01*
X181780952Y-108080952D01*
X181733333Y-108033333D01*
X181685714Y-107938095D01*
X181685714Y-107842857D01*
X181733333Y-107747619D01*
X181780952Y-107700000D01*
X181876190Y-107652381D01*
X182114286Y-107652381D01*
X182257143Y-107700000D01*
X183257143Y-108652381D02*
X182923809Y-108176190D01*
X182685714Y-108652381D02*
X182685714Y-107652381D01*
X183066667Y-107652381D01*
X183161905Y-107700000D01*
X183209524Y-107747619D01*
X183257143Y-107842857D01*
X183257143Y-107985714D01*
X183209524Y-108080952D01*
X183161905Y-108128571D01*
X183066667Y-108176190D01*
X182685714Y-108176190D01*
X183447619Y-108747619D02*
X184209524Y-108747619D01*
X184400000Y-108366667D02*
X184876191Y-108366667D01*
X184304762Y-108652381D02*
X184638095Y-107652381D01*
X184971429Y-108652381D01*
X185304762Y-108652381D02*
X185304762Y-107652381D01*
X186352381Y-108652381D02*
X186019047Y-108176190D01*
X185780952Y-108652381D02*
X185780952Y-107652381D01*
X186161905Y-107652381D01*
X186257143Y-107700000D01*
X186304762Y-107747619D01*
X186352381Y-107842857D01*
X186352381Y-107985714D01*
X186304762Y-108080952D01*
X186257143Y-108128571D01*
X186161905Y-108176190D01*
X185780952Y-108176190D01*
X186542857Y-108747619D02*
X187304762Y-108747619D01*
X188066667Y-108652381D02*
X187495238Y-108652381D01*
X187780952Y-108652381D02*
X187780952Y-107652381D01*
X187685714Y-107795238D01*
X187590476Y-107890476D01*
X187495238Y-107938095D01*
X186000000Y-44722381D02*
X186000000Y-43722381D01*
X186333334Y-44436667D01*
X186666667Y-43722381D01*
X186666667Y-44722381D01*
X187619048Y-43722381D02*
X187142857Y-43722381D01*
X187095238Y-44198571D01*
X187142857Y-44150952D01*
X187238095Y-44103333D01*
X187476191Y-44103333D01*
X187571429Y-44150952D01*
X187619048Y-44198571D01*
X187666667Y-44293810D01*
X187666667Y-44531905D01*
X187619048Y-44627143D01*
X187571429Y-44674762D01*
X187476191Y-44722381D01*
X187238095Y-44722381D01*
X187142857Y-44674762D01*
X187095238Y-44627143D01*
X188523810Y-44055714D02*
X188523810Y-44722381D01*
X188285714Y-43674762D02*
X188047619Y-44389048D01*
X188666667Y-44389048D01*
X189000000Y-43817619D02*
X189047619Y-43770000D01*
X189142857Y-43722381D01*
X189380953Y-43722381D01*
X189476191Y-43770000D01*
X189523810Y-43817619D01*
X189571429Y-43912857D01*
X189571429Y-44008095D01*
X189523810Y-44150952D01*
X188952381Y-44722381D01*
X189571429Y-44722381D01*
X190000000Y-44722381D02*
X190000000Y-43722381D01*
X190000000Y-44198571D02*
X190571429Y-44198571D01*
X190571429Y-44722381D02*
X190571429Y-43722381D01*
X190809524Y-44817619D02*
X191571429Y-44817619D01*
X191714286Y-43722381D02*
X192380953Y-44722381D01*
X192380953Y-43722381D02*
X191714286Y-44722381D01*
X192523810Y-44817619D02*
X193285715Y-44817619D01*
X194047620Y-44722381D02*
X193476191Y-44722381D01*
X193761905Y-44722381D02*
X193761905Y-43722381D01*
X193666667Y-43865238D01*
X193571429Y-43960476D01*
X193476191Y-44008095D01*
X186047619Y-81722381D02*
X186047619Y-80722381D01*
X186380953Y-81436667D01*
X186714286Y-80722381D01*
X186714286Y-81722381D01*
X187666667Y-80722381D02*
X187190476Y-80722381D01*
X187142857Y-81198571D01*
X187190476Y-81150952D01*
X187285714Y-81103333D01*
X187523810Y-81103333D01*
X187619048Y-81150952D01*
X187666667Y-81198571D01*
X187714286Y-81293810D01*
X187714286Y-81531905D01*
X187666667Y-81627143D01*
X187619048Y-81674762D01*
X187523810Y-81722381D01*
X187285714Y-81722381D01*
X187190476Y-81674762D01*
X187142857Y-81627143D01*
X188571429Y-81055714D02*
X188571429Y-81722381D01*
X188333333Y-80674762D02*
X188095238Y-81389048D01*
X188714286Y-81389048D01*
X189047619Y-80817619D02*
X189095238Y-80770000D01*
X189190476Y-80722381D01*
X189428572Y-80722381D01*
X189523810Y-80770000D01*
X189571429Y-80817619D01*
X189619048Y-80912857D01*
X189619048Y-81008095D01*
X189571429Y-81150952D01*
X189000000Y-81722381D01*
X189619048Y-81722381D01*
X190047619Y-81722381D02*
X190047619Y-80722381D01*
X190047619Y-81198571D02*
X190619048Y-81198571D01*
X190619048Y-81722381D02*
X190619048Y-80722381D01*
X190857143Y-81817619D02*
X191619048Y-81817619D01*
X192047619Y-81246190D02*
X192047619Y-81722381D01*
X191714286Y-80722381D02*
X192047619Y-81246190D01*
X192380953Y-80722381D01*
X192476191Y-81817619D02*
X193238096Y-81817619D01*
X194000001Y-81722381D02*
X193428572Y-81722381D01*
X193714286Y-81722381D02*
X193714286Y-80722381D01*
X193619048Y-80865238D01*
X193523810Y-80960476D01*
X193428572Y-81008095D01*
X243610905Y-116452381D02*
X243610905Y-115452381D01*
X243849000Y-115452381D01*
X243991858Y-115500000D01*
X244087096Y-115595238D01*
X244134715Y-115690476D01*
X244182334Y-115880952D01*
X244182334Y-116023810D01*
X244134715Y-116214286D01*
X244087096Y-116309524D01*
X243991858Y-116404762D01*
X243849000Y-116452381D01*
X243610905Y-116452381D01*
X244563286Y-115547619D02*
X244610905Y-115500000D01*
X244706143Y-115452381D01*
X244944239Y-115452381D01*
X245039477Y-115500000D01*
X245087096Y-115547619D01*
X245134715Y-115642857D01*
X245134715Y-115738095D01*
X245087096Y-115880952D01*
X244515667Y-116452381D01*
X245134715Y-116452381D01*
D10*
X39726190Y-58761902D02*
X40083333Y-58761902D01*
X40154762Y-58785712D01*
X40202381Y-58833331D01*
X40226190Y-58904759D01*
X40226190Y-58952378D01*
X40226190Y-58523807D02*
X39726190Y-58523807D01*
X39726190Y-58333331D01*
X39750000Y-58285712D01*
X39773810Y-58261903D01*
X39821429Y-58238093D01*
X39892857Y-58238093D01*
X39940476Y-58261903D01*
X39964286Y-58285712D01*
X39988095Y-58333331D01*
X39988095Y-58523807D01*
X40273810Y-58142855D02*
X40273810Y-57761903D01*
X39726190Y-57404760D02*
X39726190Y-57642855D01*
X39964286Y-57666665D01*
X39940476Y-57642855D01*
X39916667Y-57595236D01*
X39916667Y-57476189D01*
X39940476Y-57428570D01*
X39964286Y-57404760D01*
X40011905Y-57380951D01*
X40130952Y-57380951D01*
X40178571Y-57404760D01*
X40202381Y-57428570D01*
X40226190Y-57476189D01*
X40226190Y-57595236D01*
X40202381Y-57642855D01*
X40178571Y-57666665D01*
X39726190Y-57238094D02*
X40226190Y-57071427D01*
X39726190Y-56904761D01*
X40273810Y-56857142D02*
X40273810Y-56476190D01*
X40202381Y-56166666D02*
X40226190Y-56214285D01*
X40226190Y-56309523D01*
X40202381Y-56357142D01*
X40154762Y-56380952D01*
X39964286Y-56380952D01*
X39916667Y-56357142D01*
X39892857Y-56309523D01*
X39892857Y-56214285D01*
X39916667Y-56166666D01*
X39964286Y-56142857D01*
X40011905Y-56142857D01*
X40059524Y-56380952D01*
X40226190Y-55976190D02*
X39892857Y-55714286D01*
X39892857Y-55976190D02*
X40226190Y-55714286D01*
X39892857Y-55595238D02*
X39892857Y-55404762D01*
X39726190Y-55523809D02*
X40154762Y-55523809D01*
X40202381Y-55500000D01*
X40226190Y-55452381D01*
X40226190Y-55404762D01*
X40273810Y-55357143D02*
X40273810Y-54976191D01*
X39726190Y-54928572D02*
X39726190Y-54642858D01*
X40226190Y-54785715D02*
X39726190Y-54785715D01*
X39726190Y-54380953D02*
X39726190Y-54285715D01*
X39750000Y-54238096D01*
X39797619Y-54190477D01*
X39892857Y-54166668D01*
X40059524Y-54166668D01*
X40154762Y-54190477D01*
X40202381Y-54238096D01*
X40226190Y-54285715D01*
X40226190Y-54380953D01*
X40202381Y-54428572D01*
X40154762Y-54476191D01*
X40059524Y-54500001D01*
X39892857Y-54500001D01*
X39797619Y-54476191D01*
X39750000Y-54428572D01*
X39726190Y-54380953D01*
X40273810Y-54071429D02*
X40273810Y-53690477D01*
X40226190Y-53500001D02*
X40202381Y-53547620D01*
X40154762Y-53571429D01*
X39726190Y-53571429D01*
X40226190Y-53095239D02*
X39964286Y-53095239D01*
X39916667Y-53119048D01*
X39892857Y-53166667D01*
X39892857Y-53261905D01*
X39916667Y-53309524D01*
X40202381Y-53095239D02*
X40226190Y-53142858D01*
X40226190Y-53261905D01*
X40202381Y-53309524D01*
X40154762Y-53333334D01*
X40107143Y-53333334D01*
X40059524Y-53309524D01*
X40035714Y-53261905D01*
X40035714Y-53142858D01*
X40011905Y-53095239D01*
X40202381Y-52880953D02*
X40226190Y-52833334D01*
X40226190Y-52738096D01*
X40202381Y-52690477D01*
X40154762Y-52666667D01*
X40130952Y-52666667D01*
X40083333Y-52690477D01*
X40059524Y-52738096D01*
X40059524Y-52809524D01*
X40035714Y-52857143D01*
X39988095Y-52880953D01*
X39964286Y-52880953D01*
X39916667Y-52857143D01*
X39892857Y-52809524D01*
X39892857Y-52738096D01*
X39916667Y-52690477D01*
X40202381Y-52261905D02*
X40226190Y-52309524D01*
X40226190Y-52404762D01*
X40202381Y-52452381D01*
X40154762Y-52476191D01*
X39964286Y-52476191D01*
X39916667Y-52452381D01*
X39892857Y-52404762D01*
X39892857Y-52309524D01*
X39916667Y-52261905D01*
X39964286Y-52238096D01*
X40011905Y-52238096D01*
X40059524Y-52476191D01*
X40226190Y-52023810D02*
X39892857Y-52023810D01*
X39988095Y-52023810D02*
X39940476Y-52000001D01*
X39916667Y-51976191D01*
X39892857Y-51928572D01*
X39892857Y-51880953D01*
X40273810Y-51833334D02*
X40273810Y-51452382D01*
X40226190Y-51071430D02*
X40226190Y-51357144D01*
X40226190Y-51214287D02*
X39726190Y-51214287D01*
X39797619Y-51261906D01*
X39845238Y-51309525D01*
X39869048Y-51357144D01*
X34726190Y-59321427D02*
X35083333Y-59321427D01*
X35154762Y-59345237D01*
X35202381Y-59392856D01*
X35226190Y-59464284D01*
X35226190Y-59511903D01*
X35226190Y-59083332D02*
X34726190Y-59083332D01*
X34726190Y-58892856D01*
X34750000Y-58845237D01*
X34773810Y-58821428D01*
X34821429Y-58797618D01*
X34892857Y-58797618D01*
X34940476Y-58821428D01*
X34964286Y-58845237D01*
X34988095Y-58892856D01*
X34988095Y-59083332D01*
X35273810Y-58702380D02*
X35273810Y-58321428D01*
X34750000Y-57940476D02*
X34726190Y-57988095D01*
X34726190Y-58059523D01*
X34750000Y-58130952D01*
X34797619Y-58178571D01*
X34845238Y-58202380D01*
X34940476Y-58226190D01*
X35011905Y-58226190D01*
X35107143Y-58202380D01*
X35154762Y-58178571D01*
X35202381Y-58130952D01*
X35226190Y-58059523D01*
X35226190Y-58011904D01*
X35202381Y-57940476D01*
X35178571Y-57916666D01*
X35011905Y-57916666D01*
X35011905Y-58011904D01*
X35226190Y-57702380D02*
X34726190Y-57702380D01*
X35226190Y-57416666D01*
X34726190Y-57416666D01*
X35226190Y-57178570D02*
X34726190Y-57178570D01*
X34726190Y-57059523D01*
X34750000Y-56988094D01*
X34797619Y-56940475D01*
X34845238Y-56916666D01*
X34940476Y-56892856D01*
X35011905Y-56892856D01*
X35107143Y-56916666D01*
X35154762Y-56940475D01*
X35202381Y-56988094D01*
X35226190Y-57059523D01*
X35226190Y-57178570D01*
X35273810Y-56797618D02*
X35273810Y-56416666D01*
X35202381Y-56107142D02*
X35226190Y-56154761D01*
X35226190Y-56249999D01*
X35202381Y-56297618D01*
X35154762Y-56321428D01*
X34964286Y-56321428D01*
X34916667Y-56297618D01*
X34892857Y-56249999D01*
X34892857Y-56154761D01*
X34916667Y-56107142D01*
X34964286Y-56083333D01*
X35011905Y-56083333D01*
X35059524Y-56321428D01*
X35226190Y-55916666D02*
X34892857Y-55654762D01*
X34892857Y-55916666D02*
X35226190Y-55654762D01*
X34892857Y-55535714D02*
X34892857Y-55345238D01*
X34726190Y-55464285D02*
X35154762Y-55464285D01*
X35202381Y-55440476D01*
X35226190Y-55392857D01*
X35226190Y-55345238D01*
X35273810Y-55297619D02*
X35273810Y-54916667D01*
X34726190Y-54869048D02*
X34726190Y-54583334D01*
X35226190Y-54726191D02*
X34726190Y-54726191D01*
X34726190Y-54321429D02*
X34726190Y-54226191D01*
X34750000Y-54178572D01*
X34797619Y-54130953D01*
X34892857Y-54107144D01*
X35059524Y-54107144D01*
X35154762Y-54130953D01*
X35202381Y-54178572D01*
X35226190Y-54226191D01*
X35226190Y-54321429D01*
X35202381Y-54369048D01*
X35154762Y-54416667D01*
X35059524Y-54440477D01*
X34892857Y-54440477D01*
X34797619Y-54416667D01*
X34750000Y-54369048D01*
X34726190Y-54321429D01*
X35273810Y-54011905D02*
X35273810Y-53630953D01*
X35226190Y-53440477D02*
X35202381Y-53488096D01*
X35154762Y-53511905D01*
X34726190Y-53511905D01*
X35226190Y-53035715D02*
X34964286Y-53035715D01*
X34916667Y-53059524D01*
X34892857Y-53107143D01*
X34892857Y-53202381D01*
X34916667Y-53250000D01*
X35202381Y-53035715D02*
X35226190Y-53083334D01*
X35226190Y-53202381D01*
X35202381Y-53250000D01*
X35154762Y-53273810D01*
X35107143Y-53273810D01*
X35059524Y-53250000D01*
X35035714Y-53202381D01*
X35035714Y-53083334D01*
X35011905Y-53035715D01*
X35202381Y-52821429D02*
X35226190Y-52773810D01*
X35226190Y-52678572D01*
X35202381Y-52630953D01*
X35154762Y-52607143D01*
X35130952Y-52607143D01*
X35083333Y-52630953D01*
X35059524Y-52678572D01*
X35059524Y-52750000D01*
X35035714Y-52797619D01*
X34988095Y-52821429D01*
X34964286Y-52821429D01*
X34916667Y-52797619D01*
X34892857Y-52750000D01*
X34892857Y-52678572D01*
X34916667Y-52630953D01*
X35202381Y-52202381D02*
X35226190Y-52250000D01*
X35226190Y-52345238D01*
X35202381Y-52392857D01*
X35154762Y-52416667D01*
X34964286Y-52416667D01*
X34916667Y-52392857D01*
X34892857Y-52345238D01*
X34892857Y-52250000D01*
X34916667Y-52202381D01*
X34964286Y-52178572D01*
X35011905Y-52178572D01*
X35059524Y-52416667D01*
X35226190Y-51964286D02*
X34892857Y-51964286D01*
X34988095Y-51964286D02*
X34940476Y-51940477D01*
X34916667Y-51916667D01*
X34892857Y-51869048D01*
X34892857Y-51821429D01*
X35273810Y-51773810D02*
X35273810Y-51392858D01*
X35226190Y-51011906D02*
X35226190Y-51297620D01*
X35226190Y-51154763D02*
X34726190Y-51154763D01*
X34797619Y-51202382D01*
X34845238Y-51250001D01*
X34869048Y-51297620D01*
X231773812Y-104976190D02*
X231773812Y-105333333D01*
X231750002Y-105404762D01*
X231702383Y-105452381D01*
X231630955Y-105476190D01*
X231583336Y-105476190D01*
X232011907Y-105476190D02*
X232011907Y-104976190D01*
X232202383Y-104976190D01*
X232250002Y-105000000D01*
X232273811Y-105023810D01*
X232297621Y-105071429D01*
X232297621Y-105142857D01*
X232273811Y-105190476D01*
X232250002Y-105214286D01*
X232202383Y-105238095D01*
X232011907Y-105238095D01*
X232392859Y-105523810D02*
X232773811Y-105523810D01*
X233154763Y-105000000D02*
X233107144Y-104976190D01*
X233035716Y-104976190D01*
X232964287Y-105000000D01*
X232916668Y-105047619D01*
X232892859Y-105095238D01*
X232869049Y-105190476D01*
X232869049Y-105261905D01*
X232892859Y-105357143D01*
X232916668Y-105404762D01*
X232964287Y-105452381D01*
X233035716Y-105476190D01*
X233083335Y-105476190D01*
X233154763Y-105452381D01*
X233178573Y-105428571D01*
X233178573Y-105261905D01*
X233083335Y-105261905D01*
X233392859Y-105476190D02*
X233392859Y-104976190D01*
X233678573Y-105476190D01*
X233678573Y-104976190D01*
X233916669Y-105476190D02*
X233916669Y-104976190D01*
X234035716Y-104976190D01*
X234107145Y-105000000D01*
X234154764Y-105047619D01*
X234178573Y-105095238D01*
X234202383Y-105190476D01*
X234202383Y-105261905D01*
X234178573Y-105357143D01*
X234154764Y-105404762D01*
X234107145Y-105452381D01*
X234035716Y-105476190D01*
X233916669Y-105476190D01*
X234297621Y-105523810D02*
X234678573Y-105523810D01*
X234773811Y-105452381D02*
X234845240Y-105476190D01*
X234964287Y-105476190D01*
X235011906Y-105452381D01*
X235035716Y-105428571D01*
X235059525Y-105380952D01*
X235059525Y-105333333D01*
X235035716Y-105285714D01*
X235011906Y-105261905D01*
X234964287Y-105238095D01*
X234869049Y-105214286D01*
X234821430Y-105190476D01*
X234797621Y-105166667D01*
X234773811Y-105119048D01*
X234773811Y-105071429D01*
X234797621Y-105023810D01*
X234821430Y-105000000D01*
X234869049Y-104976190D01*
X234988097Y-104976190D01*
X235059525Y-105000000D01*
X235202382Y-104976190D02*
X235488096Y-104976190D01*
X235345239Y-105476190D02*
X235345239Y-104976190D01*
X235654763Y-105476190D02*
X235654763Y-104976190D01*
X235845239Y-104976190D01*
X235892858Y-105000000D01*
X235916667Y-105023810D01*
X235940477Y-105071429D01*
X235940477Y-105142857D01*
X235916667Y-105190476D01*
X235892858Y-105214286D01*
X235845239Y-105238095D01*
X235654763Y-105238095D01*
X236440477Y-105476190D02*
X236273810Y-105238095D01*
X236154763Y-105476190D02*
X236154763Y-104976190D01*
X236345239Y-104976190D01*
X236392858Y-105000000D01*
X236416667Y-105023810D01*
X236440477Y-105071429D01*
X236440477Y-105142857D01*
X236416667Y-105190476D01*
X236392858Y-105214286D01*
X236345239Y-105238095D01*
X236154763Y-105238095D01*
X236535715Y-105523810D02*
X236916667Y-105523810D01*
X236964286Y-105142857D02*
X237154762Y-105142857D01*
X237035715Y-104976190D02*
X237035715Y-105404762D01*
X237059524Y-105452381D01*
X237107143Y-105476190D01*
X237154762Y-105476190D01*
X237392857Y-105476190D02*
X237345238Y-105452381D01*
X237321429Y-105428571D01*
X237297619Y-105380952D01*
X237297619Y-105238095D01*
X237321429Y-105190476D01*
X237345238Y-105166667D01*
X237392857Y-105142857D01*
X237464286Y-105142857D01*
X237511905Y-105166667D01*
X237535714Y-105190476D01*
X237559524Y-105238095D01*
X237559524Y-105380952D01*
X237535714Y-105428571D01*
X237511905Y-105452381D01*
X237464286Y-105476190D01*
X237392857Y-105476190D01*
X237654762Y-105523810D02*
X238035714Y-105523810D01*
X238130952Y-105333333D02*
X238369047Y-105333333D01*
X238083333Y-105476190D02*
X238250000Y-104976190D01*
X238416666Y-105476190D01*
X238583333Y-104976190D02*
X238583333Y-105380952D01*
X238607142Y-105428571D01*
X238630952Y-105452381D01*
X238678571Y-105476190D01*
X238773809Y-105476190D01*
X238821428Y-105452381D01*
X238845237Y-105428571D01*
X238869047Y-105380952D01*
X238869047Y-104976190D01*
X239059524Y-104976190D02*
X239392857Y-105476190D01*
X239392857Y-104976190D02*
X239059524Y-105476190D01*
X239559523Y-105333333D02*
X239797618Y-105333333D01*
X239511904Y-105476190D02*
X239678571Y-104976190D01*
X239845237Y-105476190D01*
X240011904Y-105476190D02*
X240011904Y-104976190D01*
X240535713Y-105476190D02*
X240369046Y-105238095D01*
X240249999Y-105476190D02*
X240249999Y-104976190D01*
X240440475Y-104976190D01*
X240488094Y-105000000D01*
X240511903Y-105023810D01*
X240535713Y-105071429D01*
X240535713Y-105142857D01*
X240511903Y-105190476D01*
X240488094Y-105214286D01*
X240440475Y-105238095D01*
X240249999Y-105238095D01*
X240630951Y-105523810D02*
X241011903Y-105523810D01*
X241392855Y-105476190D02*
X241107141Y-105476190D01*
X241249998Y-105476190D02*
X241249998Y-104976190D01*
X241202379Y-105047619D01*
X241154760Y-105095238D01*
X241107141Y-105119048D01*
X208750003Y-104726190D02*
X208750003Y-105083333D01*
X208726193Y-105154762D01*
X208678574Y-105202381D01*
X208607146Y-105226190D01*
X208559527Y-105226190D01*
X208988098Y-105226190D02*
X208988098Y-104726190D01*
X209178574Y-104726190D01*
X209226193Y-104750000D01*
X209250002Y-104773810D01*
X209273812Y-104821429D01*
X209273812Y-104892857D01*
X209250002Y-104940476D01*
X209226193Y-104964286D01*
X209178574Y-104988095D01*
X208988098Y-104988095D01*
X209369050Y-105273810D02*
X209750002Y-105273810D01*
X209869050Y-105226190D02*
X209869050Y-104726190D01*
X210059526Y-104726190D01*
X210107145Y-104750000D01*
X210130954Y-104773810D01*
X210154764Y-104821429D01*
X210154764Y-104892857D01*
X210130954Y-104940476D01*
X210107145Y-104964286D01*
X210059526Y-104988095D01*
X209869050Y-104988095D01*
X210321431Y-104726190D02*
X210440478Y-105226190D01*
X210535716Y-104869048D01*
X210630954Y-105226190D01*
X210750002Y-104726190D01*
X211226193Y-105226190D02*
X211059526Y-104988095D01*
X210940479Y-105226190D02*
X210940479Y-104726190D01*
X211130955Y-104726190D01*
X211178574Y-104750000D01*
X211202383Y-104773810D01*
X211226193Y-104821429D01*
X211226193Y-104892857D01*
X211202383Y-104940476D01*
X211178574Y-104964286D01*
X211130955Y-104988095D01*
X210940479Y-104988095D01*
X211321431Y-105273810D02*
X211702383Y-105273810D01*
X211797621Y-105202381D02*
X211869050Y-105226190D01*
X211988097Y-105226190D01*
X212035716Y-105202381D01*
X212059526Y-105178571D01*
X212083335Y-105130952D01*
X212083335Y-105083333D01*
X212059526Y-105035714D01*
X212035716Y-105011905D01*
X211988097Y-104988095D01*
X211892859Y-104964286D01*
X211845240Y-104940476D01*
X211821431Y-104916667D01*
X211797621Y-104869048D01*
X211797621Y-104821429D01*
X211821431Y-104773810D01*
X211845240Y-104750000D01*
X211892859Y-104726190D01*
X212011907Y-104726190D01*
X212083335Y-104750000D01*
X212226192Y-104726190D02*
X212511906Y-104726190D01*
X212369049Y-105226190D02*
X212369049Y-104726190D01*
X212678573Y-105226190D02*
X212678573Y-104726190D01*
X212869049Y-104726190D01*
X212916668Y-104750000D01*
X212940477Y-104773810D01*
X212964287Y-104821429D01*
X212964287Y-104892857D01*
X212940477Y-104940476D01*
X212916668Y-104964286D01*
X212869049Y-104988095D01*
X212678573Y-104988095D01*
X213464287Y-105226190D02*
X213297620Y-104988095D01*
X213178573Y-105226190D02*
X213178573Y-104726190D01*
X213369049Y-104726190D01*
X213416668Y-104750000D01*
X213440477Y-104773810D01*
X213464287Y-104821429D01*
X213464287Y-104892857D01*
X213440477Y-104940476D01*
X213416668Y-104964286D01*
X213369049Y-104988095D01*
X213178573Y-104988095D01*
X213559525Y-105273810D02*
X213940477Y-105273810D01*
X213988096Y-104892857D02*
X214178572Y-104892857D01*
X214059525Y-104726190D02*
X214059525Y-105154762D01*
X214083334Y-105202381D01*
X214130953Y-105226190D01*
X214178572Y-105226190D01*
X214416667Y-105226190D02*
X214369048Y-105202381D01*
X214345239Y-105178571D01*
X214321429Y-105130952D01*
X214321429Y-104988095D01*
X214345239Y-104940476D01*
X214369048Y-104916667D01*
X214416667Y-104892857D01*
X214488096Y-104892857D01*
X214535715Y-104916667D01*
X214559524Y-104940476D01*
X214583334Y-104988095D01*
X214583334Y-105130952D01*
X214559524Y-105178571D01*
X214535715Y-105202381D01*
X214488096Y-105226190D01*
X214416667Y-105226190D01*
X214678572Y-105273810D02*
X215059524Y-105273810D01*
X215154762Y-105083333D02*
X215392857Y-105083333D01*
X215107143Y-105226190D02*
X215273810Y-104726190D01*
X215440476Y-105226190D01*
X215607143Y-104726190D02*
X215607143Y-105130952D01*
X215630952Y-105178571D01*
X215654762Y-105202381D01*
X215702381Y-105226190D01*
X215797619Y-105226190D01*
X215845238Y-105202381D01*
X215869047Y-105178571D01*
X215892857Y-105130952D01*
X215892857Y-104726190D01*
X216083334Y-104726190D02*
X216416667Y-105226190D01*
X216416667Y-104726190D02*
X216083334Y-105226190D01*
X216583333Y-105083333D02*
X216821428Y-105083333D01*
X216535714Y-105226190D02*
X216702381Y-104726190D01*
X216869047Y-105226190D01*
X217035714Y-105226190D02*
X217035714Y-104726190D01*
X217559523Y-105226190D02*
X217392856Y-104988095D01*
X217273809Y-105226190D02*
X217273809Y-104726190D01*
X217464285Y-104726190D01*
X217511904Y-104750000D01*
X217535713Y-104773810D01*
X217559523Y-104821429D01*
X217559523Y-104892857D01*
X217535713Y-104940476D01*
X217511904Y-104964286D01*
X217464285Y-104988095D01*
X217273809Y-104988095D01*
X217654761Y-105273810D02*
X218035713Y-105273810D01*
X218416665Y-105226190D02*
X218130951Y-105226190D01*
X218273808Y-105226190D02*
X218273808Y-104726190D01*
X218226189Y-104797619D01*
X218178570Y-104845238D01*
X218130951Y-104869048D01*
D13*
X103547618Y-42952381D02*
X103547618Y-41952381D01*
X103928571Y-41952381D01*
X104023809Y-42000000D01*
X104071428Y-42047619D01*
X104119047Y-42142857D01*
X104119047Y-42285714D01*
X104071428Y-42380952D01*
X104023809Y-42428571D01*
X103928571Y-42476190D01*
X103547618Y-42476190D01*
X104738094Y-41952381D02*
X104928571Y-41952381D01*
X105023809Y-42000000D01*
X105119047Y-42095238D01*
X105166666Y-42285714D01*
X105166666Y-42619048D01*
X105119047Y-42809524D01*
X105023809Y-42904762D01*
X104928571Y-42952381D01*
X104738094Y-42952381D01*
X104642856Y-42904762D01*
X104547618Y-42809524D01*
X104499999Y-42619048D01*
X104499999Y-42285714D01*
X104547618Y-42095238D01*
X104642856Y-42000000D01*
X104738094Y-41952381D01*
X105499999Y-41952381D02*
X105738094Y-42952381D01*
X105928571Y-42238095D01*
X106119047Y-42952381D01*
X106357142Y-41952381D01*
X106738094Y-42428571D02*
X107071428Y-42428571D01*
X107214285Y-42952381D02*
X106738094Y-42952381D01*
X106738094Y-41952381D01*
X107214285Y-41952381D01*
X108214285Y-42952381D02*
X107880951Y-42476190D01*
X107642856Y-42952381D02*
X107642856Y-41952381D01*
X108023809Y-41952381D01*
X108119047Y-42000000D01*
X108166666Y-42047619D01*
X108214285Y-42142857D01*
X108214285Y-42285714D01*
X108166666Y-42380952D01*
X108119047Y-42428571D01*
X108023809Y-42476190D01*
X107642856Y-42476190D01*
X108404761Y-43047619D02*
X109166666Y-43047619D01*
X109880952Y-41952381D02*
X109404761Y-41952381D01*
X109357142Y-42428571D01*
X109404761Y-42380952D01*
X109499999Y-42333333D01*
X109738095Y-42333333D01*
X109833333Y-42380952D01*
X109880952Y-42428571D01*
X109928571Y-42523810D01*
X109928571Y-42761905D01*
X109880952Y-42857143D01*
X109833333Y-42904762D01*
X109738095Y-42952381D01*
X109499999Y-42952381D01*
X109404761Y-42904762D01*
X109357142Y-42857143D01*
X110214285Y-41952381D02*
X110547618Y-42952381D01*
X110880952Y-41952381D01*
X110976190Y-43047619D02*
X111738095Y-43047619D01*
X112357143Y-42904762D02*
X112261905Y-42952381D01*
X112071428Y-42952381D01*
X111976190Y-42904762D01*
X111928571Y-42809524D01*
X111928571Y-42428571D01*
X111976190Y-42333333D01*
X112071428Y-42285714D01*
X112261905Y-42285714D01*
X112357143Y-42333333D01*
X112404762Y-42428571D01*
X112404762Y-42523810D01*
X111928571Y-42619048D01*
X112738095Y-42952381D02*
X113261905Y-42285714D01*
X112738095Y-42285714D02*
X113261905Y-42952381D01*
X113500000Y-42285714D02*
X113880952Y-42285714D01*
X113642857Y-41952381D02*
X113642857Y-42809524D01*
X113690476Y-42904762D01*
X113785714Y-42952381D01*
X113880952Y-42952381D01*
X113976191Y-43047619D02*
X114738096Y-43047619D01*
X115500001Y-42952381D02*
X114928572Y-42952381D01*
X115214286Y-42952381D02*
X115214286Y-41952381D01*
X115119048Y-42095238D01*
X115023810Y-42190476D01*
X114928572Y-42238095D01*
X249902381Y-145642857D02*
X248902381Y-145642857D01*
X248902381Y-145261904D01*
X248950000Y-145166666D01*
X248997619Y-145119047D01*
X249092857Y-145071428D01*
X249235714Y-145071428D01*
X249330952Y-145119047D01*
X249378571Y-145166666D01*
X249426190Y-145261904D01*
X249426190Y-145642857D01*
X248902381Y-144452381D02*
X248902381Y-144261904D01*
X248950000Y-144166666D01*
X249045238Y-144071428D01*
X249235714Y-144023809D01*
X249569048Y-144023809D01*
X249759524Y-144071428D01*
X249854762Y-144166666D01*
X249902381Y-144261904D01*
X249902381Y-144452381D01*
X249854762Y-144547619D01*
X249759524Y-144642857D01*
X249569048Y-144690476D01*
X249235714Y-144690476D01*
X249045238Y-144642857D01*
X248950000Y-144547619D01*
X248902381Y-144452381D01*
X248902381Y-143690476D02*
X249902381Y-143452381D01*
X249188095Y-143261904D01*
X249902381Y-143071428D01*
X248902381Y-142833333D01*
X249378571Y-142452381D02*
X249378571Y-142119047D01*
X249902381Y-141976190D02*
X249902381Y-142452381D01*
X248902381Y-142452381D01*
X248902381Y-141976190D01*
X249902381Y-140976190D02*
X249426190Y-141309524D01*
X249902381Y-141547619D02*
X248902381Y-141547619D01*
X248902381Y-141166666D01*
X248950000Y-141071428D01*
X248997619Y-141023809D01*
X249092857Y-140976190D01*
X249235714Y-140976190D01*
X249330952Y-141023809D01*
X249378571Y-141071428D01*
X249426190Y-141166666D01*
X249426190Y-141547619D01*
X249997619Y-140785714D02*
X249997619Y-140023809D01*
X249616667Y-139833333D02*
X249616667Y-139357142D01*
X249902381Y-139928571D02*
X248902381Y-139595238D01*
X249902381Y-139261904D01*
X248902381Y-138928571D02*
X249711905Y-138928571D01*
X249807143Y-138880952D01*
X249854762Y-138833333D01*
X249902381Y-138738095D01*
X249902381Y-138547618D01*
X249854762Y-138452380D01*
X249807143Y-138404761D01*
X249711905Y-138357142D01*
X248902381Y-138357142D01*
X248902381Y-137976190D02*
X249902381Y-137309523D01*
X248902381Y-137309523D02*
X249902381Y-137976190D01*
X249616667Y-136976190D02*
X249616667Y-136499999D01*
X249902381Y-137071428D02*
X248902381Y-136738095D01*
X249902381Y-136404761D01*
X249902381Y-136071428D02*
X248902381Y-136071428D01*
X249902381Y-135023809D02*
X249426190Y-135357143D01*
X249902381Y-135595238D02*
X248902381Y-135595238D01*
X248902381Y-135214285D01*
X248950000Y-135119047D01*
X248997619Y-135071428D01*
X249092857Y-135023809D01*
X249235714Y-135023809D01*
X249330952Y-135071428D01*
X249378571Y-135119047D01*
X249426190Y-135214285D01*
X249426190Y-135595238D01*
X249997619Y-134833333D02*
X249997619Y-134071428D01*
X249902381Y-133309523D02*
X249902381Y-133880952D01*
X249902381Y-133595238D02*
X248902381Y-133595238D01*
X249045238Y-133690476D01*
X249140476Y-133785714D01*
X249188095Y-133880952D01*
X249902381Y-40904762D02*
X248902381Y-40904762D01*
X248902381Y-40523809D01*
X248950000Y-40428571D01*
X248997619Y-40380952D01*
X249092857Y-40333333D01*
X249235714Y-40333333D01*
X249330952Y-40380952D01*
X249378571Y-40428571D01*
X249426190Y-40523809D01*
X249426190Y-40904762D01*
X248902381Y-39714286D02*
X248902381Y-39523809D01*
X248950000Y-39428571D01*
X249045238Y-39333333D01*
X249235714Y-39285714D01*
X249569048Y-39285714D01*
X249759524Y-39333333D01*
X249854762Y-39428571D01*
X249902381Y-39523809D01*
X249902381Y-39714286D01*
X249854762Y-39809524D01*
X249759524Y-39904762D01*
X249569048Y-39952381D01*
X249235714Y-39952381D01*
X249045238Y-39904762D01*
X248950000Y-39809524D01*
X248902381Y-39714286D01*
X248902381Y-38952381D02*
X249902381Y-38714286D01*
X249188095Y-38523809D01*
X249902381Y-38333333D01*
X248902381Y-38095238D01*
X249378571Y-37714286D02*
X249378571Y-37380952D01*
X249902381Y-37238095D02*
X249902381Y-37714286D01*
X248902381Y-37714286D01*
X248902381Y-37238095D01*
X249902381Y-36238095D02*
X249426190Y-36571429D01*
X249902381Y-36809524D02*
X248902381Y-36809524D01*
X248902381Y-36428571D01*
X248950000Y-36333333D01*
X248997619Y-36285714D01*
X249092857Y-36238095D01*
X249235714Y-36238095D01*
X249330952Y-36285714D01*
X249378571Y-36333333D01*
X249426190Y-36428571D01*
X249426190Y-36809524D01*
X249997619Y-36047619D02*
X249997619Y-35285714D01*
X249854762Y-35095238D02*
X249902381Y-34952381D01*
X249902381Y-34714285D01*
X249854762Y-34619047D01*
X249807143Y-34571428D01*
X249711905Y-34523809D01*
X249616667Y-34523809D01*
X249521429Y-34571428D01*
X249473810Y-34619047D01*
X249426190Y-34714285D01*
X249378571Y-34904762D01*
X249330952Y-35000000D01*
X249283333Y-35047619D01*
X249188095Y-35095238D01*
X249092857Y-35095238D01*
X248997619Y-35047619D01*
X248950000Y-35000000D01*
X248902381Y-34904762D01*
X248902381Y-34666666D01*
X248950000Y-34523809D01*
X248902381Y-34238095D02*
X248902381Y-33666666D01*
X249902381Y-33952381D02*
X248902381Y-33952381D01*
X249902381Y-33333333D02*
X248902381Y-33333333D01*
X248902381Y-32952380D01*
X248950000Y-32857142D01*
X248997619Y-32809523D01*
X249092857Y-32761904D01*
X249235714Y-32761904D01*
X249330952Y-32809523D01*
X249378571Y-32857142D01*
X249426190Y-32952380D01*
X249426190Y-33333333D01*
X249902381Y-31761904D02*
X249426190Y-32095238D01*
X249902381Y-32333333D02*
X248902381Y-32333333D01*
X248902381Y-31952380D01*
X248950000Y-31857142D01*
X248997619Y-31809523D01*
X249092857Y-31761904D01*
X249235714Y-31761904D01*
X249330952Y-31809523D01*
X249378571Y-31857142D01*
X249426190Y-31952380D01*
X249426190Y-32333333D01*
X249997619Y-31571428D02*
X249997619Y-30809523D01*
X249902381Y-30047618D02*
X249902381Y-30619047D01*
X249902381Y-30333333D02*
X248902381Y-30333333D01*
X249045238Y-30428571D01*
X249140476Y-30523809D01*
X249188095Y-30619047D01*
X180471428Y-101804762D02*
X180614285Y-101852381D01*
X180852381Y-101852381D01*
X180947619Y-101804762D01*
X180995238Y-101757143D01*
X181042857Y-101661905D01*
X181042857Y-101566667D01*
X180995238Y-101471429D01*
X180947619Y-101423810D01*
X180852381Y-101376190D01*
X180661904Y-101328571D01*
X180566666Y-101280952D01*
X180519047Y-101233333D01*
X180471428Y-101138095D01*
X180471428Y-101042857D01*
X180519047Y-100947619D01*
X180566666Y-100900000D01*
X180661904Y-100852381D01*
X180900000Y-100852381D01*
X181042857Y-100900000D01*
X181423809Y-101804762D02*
X181566666Y-101852381D01*
X181804762Y-101852381D01*
X181900000Y-101804762D01*
X181947619Y-101757143D01*
X181995238Y-101661905D01*
X181995238Y-101566667D01*
X181947619Y-101471429D01*
X181900000Y-101423810D01*
X181804762Y-101376190D01*
X181614285Y-101328571D01*
X181519047Y-101280952D01*
X181471428Y-101233333D01*
X181423809Y-101138095D01*
X181423809Y-101042857D01*
X181471428Y-100947619D01*
X181519047Y-100900000D01*
X181614285Y-100852381D01*
X181852381Y-100852381D01*
X181995238Y-100900000D01*
X182995238Y-101852381D02*
X182661904Y-101376190D01*
X182423809Y-101852381D02*
X182423809Y-100852381D01*
X182804762Y-100852381D01*
X182900000Y-100900000D01*
X182947619Y-100947619D01*
X182995238Y-101042857D01*
X182995238Y-101185714D01*
X182947619Y-101280952D01*
X182900000Y-101328571D01*
X182804762Y-101376190D01*
X182423809Y-101376190D01*
X183185714Y-101947619D02*
X183947619Y-101947619D01*
X184138095Y-101566667D02*
X184614286Y-101566667D01*
X184042857Y-101852381D02*
X184376190Y-100852381D01*
X184709524Y-101852381D01*
X185042857Y-100852381D02*
X185042857Y-101661905D01*
X185090476Y-101757143D01*
X185138095Y-101804762D01*
X185233333Y-101852381D01*
X185423810Y-101852381D01*
X185519048Y-101804762D01*
X185566667Y-101757143D01*
X185614286Y-101661905D01*
X185614286Y-100852381D01*
X185995238Y-100852381D02*
X186661905Y-101852381D01*
X186661905Y-100852381D02*
X185995238Y-101852381D01*
X186804762Y-101947619D02*
X187566667Y-101947619D01*
X188328572Y-101852381D02*
X187757143Y-101852381D01*
X188042857Y-101852381D02*
X188042857Y-100852381D01*
X187947619Y-100995238D01*
X187852381Y-101090476D01*
X187757143Y-101138095D01*
X264311381Y-126407381D02*
X265025667Y-126407381D01*
X265168524Y-126455001D01*
X265263762Y-126550239D01*
X265311381Y-126693096D01*
X265311381Y-126788334D01*
X265025667Y-125978810D02*
X265025667Y-125502619D01*
X265311381Y-126074048D02*
X264311381Y-125740715D01*
X265311381Y-125407381D01*
X265216143Y-124502619D02*
X265263762Y-124550238D01*
X265311381Y-124693095D01*
X265311381Y-124788333D01*
X265263762Y-124931191D01*
X265168524Y-125026429D01*
X265073286Y-125074048D01*
X264882810Y-125121667D01*
X264739952Y-125121667D01*
X264549476Y-125074048D01*
X264454238Y-125026429D01*
X264359000Y-124931191D01*
X264311381Y-124788333D01*
X264311381Y-124693095D01*
X264359000Y-124550238D01*
X264406619Y-124502619D01*
X265311381Y-124074048D02*
X264311381Y-124074048D01*
X265311381Y-123502619D02*
X264739952Y-123931191D01*
X264311381Y-123502619D02*
X264882810Y-124074048D01*
X265406619Y-123312143D02*
X265406619Y-122550238D01*
X265025667Y-122359762D02*
X265025667Y-121883571D01*
X265311381Y-122455000D02*
X264311381Y-122121667D01*
X265311381Y-121788333D01*
X264311381Y-121455000D02*
X265120905Y-121455000D01*
X265216143Y-121407381D01*
X265263762Y-121359762D01*
X265311381Y-121264524D01*
X265311381Y-121074047D01*
X265263762Y-120978809D01*
X265216143Y-120931190D01*
X265120905Y-120883571D01*
X264311381Y-120883571D01*
X264311381Y-120502619D02*
X265311381Y-119835952D01*
X264311381Y-119835952D02*
X265311381Y-120502619D01*
X265406619Y-119693095D02*
X265406619Y-118931190D01*
X265311381Y-118169285D02*
X265311381Y-118740714D01*
X265311381Y-118455000D02*
X264311381Y-118455000D01*
X264454238Y-118550238D01*
X264549476Y-118645476D01*
X264597095Y-118740714D01*
X66309524Y-44202381D02*
X66309524Y-44916667D01*
X66261904Y-45059524D01*
X66166666Y-45154762D01*
X66023809Y-45202381D01*
X65928571Y-45202381D01*
X66738095Y-44916667D02*
X67214286Y-44916667D01*
X66642857Y-45202381D02*
X66976190Y-44202381D01*
X67309524Y-45202381D01*
X68214286Y-45107143D02*
X68166667Y-45154762D01*
X68023810Y-45202381D01*
X67928572Y-45202381D01*
X67785714Y-45154762D01*
X67690476Y-45059524D01*
X67642857Y-44964286D01*
X67595238Y-44773810D01*
X67595238Y-44630952D01*
X67642857Y-44440476D01*
X67690476Y-44345238D01*
X67785714Y-44250000D01*
X67928572Y-44202381D01*
X68023810Y-44202381D01*
X68166667Y-44250000D01*
X68214286Y-44297619D01*
X68642857Y-45202381D02*
X68642857Y-44202381D01*
X69214286Y-45202381D02*
X68785714Y-44630952D01*
X69214286Y-44202381D02*
X68642857Y-44773810D01*
X69404762Y-45297619D02*
X70166667Y-45297619D01*
X70404762Y-45202381D02*
X70404762Y-44202381D01*
X70642857Y-44202381D01*
X70785715Y-44250000D01*
X70880953Y-44345238D01*
X70928572Y-44440476D01*
X70976191Y-44630952D01*
X70976191Y-44773810D01*
X70928572Y-44964286D01*
X70880953Y-45059524D01*
X70785715Y-45154762D01*
X70642857Y-45202381D01*
X70404762Y-45202381D01*
X71595238Y-44202381D02*
X71785715Y-44202381D01*
X71880953Y-44250000D01*
X71976191Y-44345238D01*
X72023810Y-44535714D01*
X72023810Y-44869048D01*
X71976191Y-45059524D01*
X71880953Y-45154762D01*
X71785715Y-45202381D01*
X71595238Y-45202381D01*
X71500000Y-45154762D01*
X71404762Y-45059524D01*
X71357143Y-44869048D01*
X71357143Y-44535714D01*
X71404762Y-44345238D01*
X71500000Y-44250000D01*
X71595238Y-44202381D01*
X72642857Y-44202381D02*
X72833334Y-44202381D01*
X72928572Y-44250000D01*
X73023810Y-44345238D01*
X73071429Y-44535714D01*
X73071429Y-44869048D01*
X73023810Y-45059524D01*
X72928572Y-45154762D01*
X72833334Y-45202381D01*
X72642857Y-45202381D01*
X72547619Y-45154762D01*
X72452381Y-45059524D01*
X72404762Y-44869048D01*
X72404762Y-44535714D01*
X72452381Y-44345238D01*
X72547619Y-44250000D01*
X72642857Y-44202381D01*
X74071429Y-45202381D02*
X73738095Y-44726190D01*
X73500000Y-45202381D02*
X73500000Y-44202381D01*
X73880953Y-44202381D01*
X73976191Y-44250000D01*
X74023810Y-44297619D01*
X74071429Y-44392857D01*
X74071429Y-44535714D01*
X74023810Y-44630952D01*
X73976191Y-44678571D01*
X73880953Y-44726190D01*
X73500000Y-44726190D01*
X75023810Y-45202381D02*
X74452381Y-45202381D01*
X74738095Y-45202381D02*
X74738095Y-44202381D01*
X74642857Y-44345238D01*
X74547619Y-44440476D01*
X74452381Y-44488095D01*
X46354524Y-44311381D02*
X46354524Y-45025667D01*
X46306904Y-45168524D01*
X46211666Y-45263762D01*
X46068809Y-45311381D01*
X45973571Y-45311381D01*
X46783095Y-45025667D02*
X47259286Y-45025667D01*
X46687857Y-45311381D02*
X47021190Y-44311381D01*
X47354524Y-45311381D01*
X48259286Y-45216143D02*
X48211667Y-45263762D01*
X48068810Y-45311381D01*
X47973572Y-45311381D01*
X47830714Y-45263762D01*
X47735476Y-45168524D01*
X47687857Y-45073286D01*
X47640238Y-44882810D01*
X47640238Y-44739952D01*
X47687857Y-44549476D01*
X47735476Y-44454238D01*
X47830714Y-44359000D01*
X47973572Y-44311381D01*
X48068810Y-44311381D01*
X48211667Y-44359000D01*
X48259286Y-44406619D01*
X48687857Y-45311381D02*
X48687857Y-44311381D01*
X49259286Y-45311381D02*
X48830714Y-44739952D01*
X49259286Y-44311381D02*
X48687857Y-44882810D01*
X49449762Y-45406619D02*
X50211667Y-45406619D01*
X50449762Y-45311381D02*
X50449762Y-44311381D01*
X50687857Y-44311381D01*
X50830715Y-44359000D01*
X50925953Y-44454238D01*
X50973572Y-44549476D01*
X51021191Y-44739952D01*
X51021191Y-44882810D01*
X50973572Y-45073286D01*
X50925953Y-45168524D01*
X50830715Y-45263762D01*
X50687857Y-45311381D01*
X50449762Y-45311381D01*
X51640238Y-44311381D02*
X51830715Y-44311381D01*
X51925953Y-44359000D01*
X52021191Y-44454238D01*
X52068810Y-44644714D01*
X52068810Y-44978048D01*
X52021191Y-45168524D01*
X51925953Y-45263762D01*
X51830715Y-45311381D01*
X51640238Y-45311381D01*
X51545000Y-45263762D01*
X51449762Y-45168524D01*
X51402143Y-44978048D01*
X51402143Y-44644714D01*
X51449762Y-44454238D01*
X51545000Y-44359000D01*
X51640238Y-44311381D01*
X52687857Y-44311381D02*
X52878334Y-44311381D01*
X52973572Y-44359000D01*
X53068810Y-44454238D01*
X53116429Y-44644714D01*
X53116429Y-44978048D01*
X53068810Y-45168524D01*
X52973572Y-45263762D01*
X52878334Y-45311381D01*
X52687857Y-45311381D01*
X52592619Y-45263762D01*
X52497381Y-45168524D01*
X52449762Y-44978048D01*
X52449762Y-44644714D01*
X52497381Y-44454238D01*
X52592619Y-44359000D01*
X52687857Y-44311381D01*
X54116429Y-45311381D02*
X53783095Y-44835190D01*
X53545000Y-45311381D02*
X53545000Y-44311381D01*
X53925953Y-44311381D01*
X54021191Y-44359000D01*
X54068810Y-44406619D01*
X54116429Y-44501857D01*
X54116429Y-44644714D01*
X54068810Y-44739952D01*
X54021191Y-44787571D01*
X53925953Y-44835190D01*
X53545000Y-44835190D01*
X54497381Y-44406619D02*
X54545000Y-44359000D01*
X54640238Y-44311381D01*
X54878334Y-44311381D01*
X54973572Y-44359000D01*
X55021191Y-44406619D01*
X55068810Y-44501857D01*
X55068810Y-44597095D01*
X55021191Y-44739952D01*
X54449762Y-45311381D01*
X55068810Y-45311381D01*
X22964286Y-44452381D02*
X22964286Y-45166667D01*
X22916666Y-45309524D01*
X22821428Y-45404762D01*
X22678571Y-45452381D01*
X22583333Y-45452381D01*
X23392857Y-45166667D02*
X23869048Y-45166667D01*
X23297619Y-45452381D02*
X23630952Y-44452381D01*
X23964286Y-45452381D01*
X24869048Y-45357143D02*
X24821429Y-45404762D01*
X24678572Y-45452381D01*
X24583334Y-45452381D01*
X24440476Y-45404762D01*
X24345238Y-45309524D01*
X24297619Y-45214286D01*
X24250000Y-45023810D01*
X24250000Y-44880952D01*
X24297619Y-44690476D01*
X24345238Y-44595238D01*
X24440476Y-44500000D01*
X24583334Y-44452381D01*
X24678572Y-44452381D01*
X24821429Y-44500000D01*
X24869048Y-44547619D01*
X25297619Y-45452381D02*
X25297619Y-44452381D01*
X25869048Y-45452381D02*
X25440476Y-44880952D01*
X25869048Y-44452381D02*
X25297619Y-45023810D01*
X26059524Y-45547619D02*
X26821429Y-45547619D01*
X27535715Y-45452381D02*
X27059524Y-45452381D01*
X27059524Y-44452381D01*
X27821429Y-45166667D02*
X28297620Y-45166667D01*
X27726191Y-45452381D02*
X28059524Y-44452381D01*
X28392858Y-45452381D01*
X28678572Y-45404762D02*
X28821429Y-45452381D01*
X29059525Y-45452381D01*
X29154763Y-45404762D01*
X29202382Y-45357143D01*
X29250001Y-45261905D01*
X29250001Y-45166667D01*
X29202382Y-45071429D01*
X29154763Y-45023810D01*
X29059525Y-44976190D01*
X28869048Y-44928571D01*
X28773810Y-44880952D01*
X28726191Y-44833333D01*
X28678572Y-44738095D01*
X28678572Y-44642857D01*
X28726191Y-44547619D01*
X28773810Y-44500000D01*
X28869048Y-44452381D01*
X29107144Y-44452381D01*
X29250001Y-44500000D01*
X29678572Y-44928571D02*
X30011906Y-44928571D01*
X30154763Y-45452381D02*
X29678572Y-45452381D01*
X29678572Y-44452381D01*
X30154763Y-44452381D01*
X31154763Y-45452381D02*
X30821429Y-44976190D01*
X30583334Y-45452381D02*
X30583334Y-44452381D01*
X30964287Y-44452381D01*
X31059525Y-44500000D01*
X31107144Y-44547619D01*
X31154763Y-44642857D01*
X31154763Y-44785714D01*
X31107144Y-44880952D01*
X31059525Y-44928571D01*
X30964287Y-44976190D01*
X30583334Y-44976190D01*
X31345239Y-45547619D02*
X32107144Y-45547619D01*
X32869049Y-45452381D02*
X32297620Y-45452381D01*
X32583334Y-45452381D02*
X32583334Y-44452381D01*
X32488096Y-44595238D01*
X32392858Y-44690476D01*
X32297620Y-44738095D01*
X264311381Y-58097857D02*
X265025667Y-58097857D01*
X265168524Y-58145477D01*
X265263762Y-58240715D01*
X265311381Y-58383572D01*
X265311381Y-58478810D01*
X265025667Y-57669286D02*
X265025667Y-57193095D01*
X265311381Y-57764524D02*
X264311381Y-57431191D01*
X265311381Y-57097857D01*
X265216143Y-56193095D02*
X265263762Y-56240714D01*
X265311381Y-56383571D01*
X265311381Y-56478809D01*
X265263762Y-56621667D01*
X265168524Y-56716905D01*
X265073286Y-56764524D01*
X264882810Y-56812143D01*
X264739952Y-56812143D01*
X264549476Y-56764524D01*
X264454238Y-56716905D01*
X264359000Y-56621667D01*
X264311381Y-56478809D01*
X264311381Y-56383571D01*
X264359000Y-56240714D01*
X264406619Y-56193095D01*
X265311381Y-55764524D02*
X264311381Y-55764524D01*
X265311381Y-55193095D02*
X264739952Y-55621667D01*
X264311381Y-55193095D02*
X264882810Y-55764524D01*
X265406619Y-55002619D02*
X265406619Y-54240714D01*
X265263762Y-54050238D02*
X265311381Y-53907381D01*
X265311381Y-53669285D01*
X265263762Y-53574047D01*
X265216143Y-53526428D01*
X265120905Y-53478809D01*
X265025667Y-53478809D01*
X264930429Y-53526428D01*
X264882810Y-53574047D01*
X264835190Y-53669285D01*
X264787571Y-53859762D01*
X264739952Y-53955000D01*
X264692333Y-54002619D01*
X264597095Y-54050238D01*
X264501857Y-54050238D01*
X264406619Y-54002619D01*
X264359000Y-53955000D01*
X264311381Y-53859762D01*
X264311381Y-53621666D01*
X264359000Y-53478809D01*
X264311381Y-53193095D02*
X264311381Y-52621666D01*
X265311381Y-52907381D02*
X264311381Y-52907381D01*
X264787571Y-52288333D02*
X264787571Y-51954999D01*
X265311381Y-51812142D02*
X265311381Y-52288333D01*
X264311381Y-52288333D01*
X264311381Y-51812142D01*
X265311381Y-51383571D02*
X264311381Y-51383571D01*
X264311381Y-51002618D01*
X264359000Y-50907380D01*
X264406619Y-50859761D01*
X264501857Y-50812142D01*
X264644714Y-50812142D01*
X264739952Y-50859761D01*
X264787571Y-50907380D01*
X264835190Y-51002618D01*
X264835190Y-51383571D01*
X265311381Y-50383571D02*
X264311381Y-50383571D01*
X264311381Y-50002618D01*
X264359000Y-49907380D01*
X264406619Y-49859761D01*
X264501857Y-49812142D01*
X264644714Y-49812142D01*
X264739952Y-49859761D01*
X264787571Y-49907380D01*
X264835190Y-50002618D01*
X264835190Y-50383571D01*
X264787571Y-49383571D02*
X264787571Y-49050237D01*
X265311381Y-48907380D02*
X265311381Y-49383571D01*
X264311381Y-49383571D01*
X264311381Y-48907380D01*
X265311381Y-47907380D02*
X264835190Y-48240714D01*
X265311381Y-48478809D02*
X264311381Y-48478809D01*
X264311381Y-48097856D01*
X264359000Y-48002618D01*
X264406619Y-47954999D01*
X264501857Y-47907380D01*
X264644714Y-47907380D01*
X264739952Y-47954999D01*
X264787571Y-48002618D01*
X264835190Y-48097856D01*
X264835190Y-48478809D01*
X265406619Y-47716904D02*
X265406619Y-46954999D01*
X264311381Y-46812142D02*
X265311381Y-46145475D01*
X264311381Y-46145475D02*
X265311381Y-46812142D01*
X265406619Y-46002618D02*
X265406619Y-45240713D01*
X265311381Y-44478808D02*
X265311381Y-45050237D01*
X265311381Y-44764523D02*
X264311381Y-44764523D01*
X264454238Y-44859761D01*
X264549476Y-44954999D01*
X264597095Y-45050237D01*
X264311381Y-92097857D02*
X265025667Y-92097857D01*
X265168524Y-92145477D01*
X265263762Y-92240715D01*
X265311381Y-92383572D01*
X265311381Y-92478810D01*
X265025667Y-91669286D02*
X265025667Y-91193095D01*
X265311381Y-91764524D02*
X264311381Y-91431191D01*
X265311381Y-91097857D01*
X265216143Y-90193095D02*
X265263762Y-90240714D01*
X265311381Y-90383571D01*
X265311381Y-90478809D01*
X265263762Y-90621667D01*
X265168524Y-90716905D01*
X265073286Y-90764524D01*
X264882810Y-90812143D01*
X264739952Y-90812143D01*
X264549476Y-90764524D01*
X264454238Y-90716905D01*
X264359000Y-90621667D01*
X264311381Y-90478809D01*
X264311381Y-90383571D01*
X264359000Y-90240714D01*
X264406619Y-90193095D01*
X265311381Y-89764524D02*
X264311381Y-89764524D01*
X265311381Y-89193095D02*
X264739952Y-89621667D01*
X264311381Y-89193095D02*
X264882810Y-89764524D01*
X265406619Y-89002619D02*
X265406619Y-88240714D01*
X265263762Y-88050238D02*
X265311381Y-87907381D01*
X265311381Y-87669285D01*
X265263762Y-87574047D01*
X265216143Y-87526428D01*
X265120905Y-87478809D01*
X265025667Y-87478809D01*
X264930429Y-87526428D01*
X264882810Y-87574047D01*
X264835190Y-87669285D01*
X264787571Y-87859762D01*
X264739952Y-87955000D01*
X264692333Y-88002619D01*
X264597095Y-88050238D01*
X264501857Y-88050238D01*
X264406619Y-88002619D01*
X264359000Y-87955000D01*
X264311381Y-87859762D01*
X264311381Y-87621666D01*
X264359000Y-87478809D01*
X264311381Y-87193095D02*
X264311381Y-86621666D01*
X265311381Y-86907381D02*
X264311381Y-86907381D01*
X264787571Y-86288333D02*
X264787571Y-85954999D01*
X265311381Y-85812142D02*
X265311381Y-86288333D01*
X264311381Y-86288333D01*
X264311381Y-85812142D01*
X265311381Y-85383571D02*
X264311381Y-85383571D01*
X264311381Y-85002618D01*
X264359000Y-84907380D01*
X264406619Y-84859761D01*
X264501857Y-84812142D01*
X264644714Y-84812142D01*
X264739952Y-84859761D01*
X264787571Y-84907380D01*
X264835190Y-85002618D01*
X264835190Y-85383571D01*
X265311381Y-84383571D02*
X264311381Y-84383571D01*
X264311381Y-84002618D01*
X264359000Y-83907380D01*
X264406619Y-83859761D01*
X264501857Y-83812142D01*
X264644714Y-83812142D01*
X264739952Y-83859761D01*
X264787571Y-83907380D01*
X264835190Y-84002618D01*
X264835190Y-84383571D01*
X264787571Y-83383571D02*
X264787571Y-83050237D01*
X265311381Y-82907380D02*
X265311381Y-83383571D01*
X264311381Y-83383571D01*
X264311381Y-82907380D01*
X265311381Y-81907380D02*
X264835190Y-82240714D01*
X265311381Y-82478809D02*
X264311381Y-82478809D01*
X264311381Y-82097856D01*
X264359000Y-82002618D01*
X264406619Y-81954999D01*
X264501857Y-81907380D01*
X264644714Y-81907380D01*
X264739952Y-81954999D01*
X264787571Y-82002618D01*
X264835190Y-82097856D01*
X264835190Y-82478809D01*
X265406619Y-81716904D02*
X265406619Y-80954999D01*
X264311381Y-80812142D02*
X264311381Y-80145475D01*
X265311381Y-80812142D01*
X265311381Y-80145475D01*
X265406619Y-80002618D02*
X265406619Y-79240713D01*
X265311381Y-78478808D02*
X265311381Y-79050237D01*
X265311381Y-78764523D02*
X264311381Y-78764523D01*
X264454238Y-78859761D01*
X264549476Y-78954999D01*
X264597095Y-79050237D01*
X64883572Y-128593381D02*
X64883572Y-129307667D01*
X64835952Y-129450524D01*
X64740714Y-129545762D01*
X64597857Y-129593381D01*
X64502619Y-129593381D01*
X65312143Y-129307667D02*
X65788334Y-129307667D01*
X65216905Y-129593381D02*
X65550238Y-128593381D01*
X65883572Y-129593381D01*
X66788334Y-129498143D02*
X66740715Y-129545762D01*
X66597858Y-129593381D01*
X66502620Y-129593381D01*
X66359762Y-129545762D01*
X66264524Y-129450524D01*
X66216905Y-129355286D01*
X66169286Y-129164810D01*
X66169286Y-129021952D01*
X66216905Y-128831476D01*
X66264524Y-128736238D01*
X66359762Y-128641000D01*
X66502620Y-128593381D01*
X66597858Y-128593381D01*
X66740715Y-128641000D01*
X66788334Y-128688619D01*
X67216905Y-129593381D02*
X67216905Y-128593381D01*
X67788334Y-129593381D02*
X67359762Y-129021952D01*
X67788334Y-128593381D02*
X67216905Y-129164810D01*
X67978810Y-129688619D02*
X68740715Y-129688619D01*
X69169286Y-129117190D02*
X69169286Y-129593381D01*
X68835953Y-128593381D02*
X69169286Y-129117190D01*
X69502620Y-128593381D01*
X70359763Y-129593381D02*
X69788334Y-129593381D01*
X70074048Y-129593381D02*
X70074048Y-128593381D01*
X69978810Y-128736238D01*
X69883572Y-128831476D01*
X69788334Y-128879095D01*
X98835953Y-128593381D02*
X98835953Y-129307667D01*
X98788333Y-129450524D01*
X98693095Y-129545762D01*
X98550238Y-129593381D01*
X98455000Y-129593381D01*
X99264524Y-129307667D02*
X99740715Y-129307667D01*
X99169286Y-129593381D02*
X99502619Y-128593381D01*
X99835953Y-129593381D01*
X100740715Y-129498143D02*
X100693096Y-129545762D01*
X100550239Y-129593381D01*
X100455001Y-129593381D01*
X100312143Y-129545762D01*
X100216905Y-129450524D01*
X100169286Y-129355286D01*
X100121667Y-129164810D01*
X100121667Y-129021952D01*
X100169286Y-128831476D01*
X100216905Y-128736238D01*
X100312143Y-128641000D01*
X100455001Y-128593381D01*
X100550239Y-128593381D01*
X100693096Y-128641000D01*
X100740715Y-128688619D01*
X101169286Y-129593381D02*
X101169286Y-128593381D01*
X101740715Y-129593381D02*
X101312143Y-129021952D01*
X101740715Y-128593381D02*
X101169286Y-129164810D01*
X101931191Y-129688619D02*
X102693096Y-129688619D01*
X102835953Y-128593381D02*
X103502620Y-128593381D01*
X102835953Y-129593381D01*
X103502620Y-129593381D01*
X104407382Y-129593381D02*
X103835953Y-129593381D01*
X104121667Y-129593381D02*
X104121667Y-128593381D01*
X104026429Y-128736238D01*
X103931191Y-128831476D01*
X103835953Y-128879095D01*
X115835953Y-128593381D02*
X115835953Y-129307667D01*
X115788333Y-129450524D01*
X115693095Y-129545762D01*
X115550238Y-129593381D01*
X115455000Y-129593381D01*
X116264524Y-129307667D02*
X116740715Y-129307667D01*
X116169286Y-129593381D02*
X116502619Y-128593381D01*
X116835953Y-129593381D01*
X117740715Y-129498143D02*
X117693096Y-129545762D01*
X117550239Y-129593381D01*
X117455001Y-129593381D01*
X117312143Y-129545762D01*
X117216905Y-129450524D01*
X117169286Y-129355286D01*
X117121667Y-129164810D01*
X117121667Y-129021952D01*
X117169286Y-128831476D01*
X117216905Y-128736238D01*
X117312143Y-128641000D01*
X117455001Y-128593381D01*
X117550239Y-128593381D01*
X117693096Y-128641000D01*
X117740715Y-128688619D01*
X118169286Y-129593381D02*
X118169286Y-128593381D01*
X118740715Y-129593381D02*
X118312143Y-129021952D01*
X118740715Y-128593381D02*
X118169286Y-129164810D01*
X118931191Y-129688619D02*
X119693096Y-129688619D01*
X119835953Y-128593381D02*
X120502620Y-128593381D01*
X119835953Y-129593381D01*
X120502620Y-129593381D01*
X120835953Y-128688619D02*
X120883572Y-128641000D01*
X120978810Y-128593381D01*
X121216906Y-128593381D01*
X121312144Y-128641000D01*
X121359763Y-128688619D01*
X121407382Y-128783857D01*
X121407382Y-128879095D01*
X121359763Y-129021952D01*
X120788334Y-129593381D01*
X121407382Y-129593381D01*
X28190476Y-121452381D02*
X28190476Y-120452381D01*
X28523810Y-121166667D01*
X28857143Y-120452381D01*
X28857143Y-121452381D01*
X29857143Y-121452381D02*
X29285714Y-121452381D01*
X29571428Y-121452381D02*
X29571428Y-120452381D01*
X29476190Y-120595238D01*
X29380952Y-120690476D01*
X29285714Y-120738095D01*
X123190476Y-121452381D02*
X123190476Y-120452381D01*
X123523810Y-121166667D01*
X123857143Y-120452381D01*
X123857143Y-121452381D01*
X124285714Y-120547619D02*
X124333333Y-120500000D01*
X124428571Y-120452381D01*
X124666667Y-120452381D01*
X124761905Y-120500000D01*
X124809524Y-120547619D01*
X124857143Y-120642857D01*
X124857143Y-120738095D01*
X124809524Y-120880952D01*
X124238095Y-121452381D01*
X124857143Y-121452381D01*
X243190476Y-129452381D02*
X243190476Y-128452381D01*
X243523810Y-129166667D01*
X243857143Y-128452381D01*
X243857143Y-129452381D01*
X244238095Y-128452381D02*
X244857143Y-128452381D01*
X244523809Y-128833333D01*
X244666667Y-128833333D01*
X244761905Y-128880952D01*
X244809524Y-128928571D01*
X244857143Y-129023810D01*
X244857143Y-129261905D01*
X244809524Y-129357143D01*
X244761905Y-129404762D01*
X244666667Y-129452381D01*
X244380952Y-129452381D01*
X244285714Y-129404762D01*
X244238095Y-129357143D01*
X243190476Y-46404381D02*
X243190476Y-45404381D01*
X243523810Y-46118667D01*
X243857143Y-45404381D01*
X243857143Y-46404381D01*
X244761905Y-45737714D02*
X244761905Y-46404381D01*
X244523809Y-45356762D02*
X244285714Y-46071048D01*
X244904762Y-46071048D01*
X123190476Y-46404381D02*
X123190476Y-45404381D01*
X123523810Y-46118667D01*
X123857143Y-45404381D01*
X123857143Y-46404381D01*
X124809524Y-45404381D02*
X124333333Y-45404381D01*
X124285714Y-45880571D01*
X124333333Y-45832952D01*
X124428571Y-45785333D01*
X124666667Y-45785333D01*
X124761905Y-45832952D01*
X124809524Y-45880571D01*
X124857143Y-45975810D01*
X124857143Y-46213905D01*
X124809524Y-46309143D01*
X124761905Y-46356762D01*
X124666667Y-46404381D01*
X124428571Y-46404381D01*
X124333333Y-46356762D01*
X124285714Y-46309143D01*
X28190476Y-46404381D02*
X28190476Y-45404381D01*
X28523810Y-46118667D01*
X28857143Y-45404381D01*
X28857143Y-46404381D01*
X29761905Y-45404381D02*
X29571428Y-45404381D01*
X29476190Y-45452000D01*
X29428571Y-45499619D01*
X29333333Y-45642476D01*
X29285714Y-45832952D01*
X29285714Y-46213905D01*
X29333333Y-46309143D01*
X29380952Y-46356762D01*
X29476190Y-46404381D01*
X29666667Y-46404381D01*
X29761905Y-46356762D01*
X29809524Y-46309143D01*
X29857143Y-46213905D01*
X29857143Y-45975810D01*
X29809524Y-45880571D01*
X29761905Y-45832952D01*
X29666667Y-45785333D01*
X29476190Y-45785333D01*
X29380952Y-45832952D01*
X29333333Y-45880571D01*
X29285714Y-45975810D01*
M02*
